<svg width="32" height="33" viewBox="0 0 32 33" fill="none" xmlns="http://www.w3.org/2000/svg">
<g clip-path="url(#clip0_344_1138)">
<path d="M1.57548 16.4992C1.10772 17.1582 1.32361 17.7453 2.18716 17.7453H3.8423C4.48996 23.8445 9.75523 28.6854 16.004 28.6854C19.6621 28.6854 22.9724 27.0198 25.2272 24.4316C25.671 23.9164 25.611 23.2694 25.1433 22.9338C24.6755 22.5983 24.0998 22.7181 23.716 23.1615C21.857 25.3064 19.0983 26.6485 16.004 26.6485C10.7747 26.6485 6.51692 22.778 5.90523 17.7453H7.69231C8.54387 17.7453 8.75976 17.1582 8.30398 16.5111L5.61738 12.6887C5.23358 12.1375 4.65788 12.1255 4.26209 12.6887L1.57548 16.4992ZM6.79277 8.49479C6.33701 9.01004 6.39697 9.64512 6.87673 9.98063C7.34448 10.3161 7.9082 10.2083 8.30398 9.76494C10.175 7.63204 12.9336 6.27801 16.004 6.27801C21.2213 6.27801 25.4791 10.1484 26.1028 15.193H24.3157C23.4642 15.193 23.2482 15.7682 23.704 16.4273L26.3906 20.2497C26.7744 20.8009 27.3501 20.8129 27.7459 20.2497L30.4205 16.4393C30.9003 15.7682 30.6723 15.193 29.8088 15.193H28.1657C27.506 9.09391 22.2528 4.24097 16.004 4.24097C12.3459 4.24097 9.04761 5.89457 6.79277 8.49479Z" fill="white"/>
</g>
<defs>
<clipPath id="clip0_344_1138">
<rect y="0.240967" width="32" height="32" rx="5" fill="white"/>
</clipPath>
</defs>
</svg>
