<svg width="32" height="33" viewBox="0 0 32 33" fill="none" xmlns="http://www.w3.org/2000/svg">
<g clip-path="url(#clip0_344_1083)">
<path d="M16.0266 2.90771C14.8873 2.90771 14.0849 3.72705 14.0849 4.88986L14.0849 18.1043L14.2919 23.7072L11.6512 20.5093L8.59619 17.3378C8.2595 16.9679 7.79356 16.7564 7.22401 16.7564C6.16246 16.7564 5.33398 17.6021 5.33398 18.6593C5.33398 19.2144 5.54121 19.69 5.87768 20.0335L14.4991 28.8344C14.9909 29.3365 15.4571 29.5744 16.0266 29.5744C16.5703 29.5744 17.0104 29.3629 17.5283 28.8344L26.1754 20.0335C26.512 19.69 26.6673 19.2144 26.6673 18.6593C26.6673 17.6021 25.8647 16.7564 24.8032 16.7564C24.2596 16.7564 23.7935 16.9943 23.4311 17.3378L20.3502 20.5093L17.7611 23.6808L17.9684 18.1043L17.9684 4.88986C17.9684 3.72705 17.1399 2.90771 16.0266 2.90771Z" fill="white"/>
</g>
<defs>
<clipPath id="clip0_344_1083">
<rect y="0.240967" width="32" height="32" rx="5" fill="white"/>
</clipPath>
</defs>
</svg>
