<svg width="32" height="33" viewBox="0 0 32 33" fill="none" xmlns="http://www.w3.org/2000/svg">
<g clip-path="url(#clip0_344_1127)">
<path d="M14.5571 3.58461C14.969 3.17244 15.499 2.90771 16.0287 2.90771C16.5584 2.90771 17.0884 3.14306 17.5003 3.58461L27.449 13.7393C27.8022 14.1218 28.0376 14.7399 28.0376 15.2108C28.0376 16.3293 27.2724 17.124 26.1539 17.124C25.5358 17.124 25.0943 16.9474 24.7116 16.5649L23.0339 14.7105L17.6771 8.70614L18.0009 14.0924L18.0009 27.6023C18.0009 28.7503 17.2062 29.5744 16.0287 29.5744C14.9103 29.5744 14.0568 28.7503 14.0568 27.6023L14.0568 14.0924L14.3806 8.73552L9.11185 14.6811L7.28688 16.5649C6.87497 16.9474 6.345 17.124 5.81529 17.124C4.72624 17.124 3.96094 16.2705 3.96094 15.2108C3.96094 14.6515 4.10812 14.1512 4.57906 13.7096L14.5571 3.58461Z" fill="white"/>
</g>
<defs>
<clipPath id="clip0_344_1127">
<rect y="0.240967" width="32" height="32" rx="5" fill="white"/>
</clipPath>
</defs>
</svg>
