<svg width="32" height="33" viewBox="0 0 32 33" fill="none" xmlns="http://www.w3.org/2000/svg">
<g clip-path="url(#clip0_344_1039)">
<path d="M29.331 22.8299L29.313 4.66952C29.313 3.64054 28.645 2.91846 27.562 2.91846H9.40142C8.3905 2.91846 7.70452 3.6947 7.70452 4.5612C7.70452 5.4277 8.48077 6.16784 9.32922 6.16784H15.6114L24.4208 5.87901L21.0631 8.82152L3.17343 26.7473C2.84849 27.0722 2.66797 27.4875 2.66797 27.8846C2.66797 28.7511 3.44421 29.5634 4.34681 29.5634C4.76203 29.5634 5.15917 29.4191 5.4841 29.076L23.4098 11.1683L26.3884 7.79254L26.0636 16.2229V22.9022C26.0636 23.7507 26.8037 24.5449 27.6883 24.5449C28.5548 24.5449 29.331 23.8049 29.331 22.8299Z" fill="white"/>
</g>
<defs>
<clipPath id="clip0_344_1039">
<rect y="0.240967" width="32" height="32" rx="5" fill="white"/>
</clipPath>
</defs>
</svg>
