<svg width="32" height="33" viewBox="0 0 32 33" fill="none" xmlns="http://www.w3.org/2000/svg">
<g clip-path="url(#clip0_344_1094)">
<path fill-rule="evenodd" clip-rule="evenodd" d="M19.297 24.8902C19.7981 25.3969 20.6151 25.4014 21.1217 24.9003L28.9497 17.1584C29.1948 16.916 29.3327 16.5856 29.3327 16.2409C29.3327 15.8962 29.1948 15.5659 28.9497 15.3235L21.1217 7.58158C20.6151 7.08047 19.7981 7.08498 19.297 7.59166C18.7959 8.09834 18.8004 8.91531 19.3071 9.41642L24.9027 14.9506H3.95634C3.24371 14.9506 2.66602 15.5283 2.66602 16.2409C2.66602 16.9536 3.24371 17.5313 3.95634 17.5313H24.9027L19.3071 23.0654C18.8004 23.5666 18.7959 24.3835 19.297 24.8902Z" fill="white"/>
</g>
<defs>
<clipPath id="clip0_344_1094">
<rect y="0.240967" width="32" height="32" rx="5" fill="white"/>
</clipPath>
</defs>
</svg>
