<svg width="32" height="33" viewBox="0 0 32 33" fill="none" xmlns="http://www.w3.org/2000/svg">
<g clip-path="url(#clip0_344_1050)">
<path d="M29.334 16.2348C29.334 15.8267 29.1732 15.3567 28.7032 14.9114L18.9444 5.69678C18.3507 5.14019 17.8559 4.89282 17.2499 4.89282C16.4088 4.89282 15.8028 5.51125 15.8028 6.33994L15.8028 11.3492L5.51208 11.3492C3.71866 11.3492 2.66732 12.3634 2.66732 14.1322L2.66732 18.3252C2.66732 20.0938 3.71866 21.1081 5.51208 21.1081L15.8028 21.1081L15.8028 26.0679C15.8028 26.8966 16.4088 27.5892 17.2746 27.5892C17.8806 27.5892 18.2889 27.3171 18.9444 26.6987L28.7032 17.5706C29.1856 17.1253 29.334 16.6553 29.334 16.2348Z" fill="white"/>
</g>
<defs>
<clipPath id="clip0_344_1050">
<rect y="0.240967" width="32" height="32" rx="5" fill="white"/>
</clipPath>
</defs>
</svg>
