<svg width="32" height="33" viewBox="0 0 32 33" fill="none" xmlns="http://www.w3.org/2000/svg">
<g clip-path="url(#clip0_344_984)">
<path d="M2.66732 16.2145C2.66732 17.3775 3.48665 18.1966 4.64946 18.1966L17.8639 18.1966L23.4668 17.9853L20.2689 20.681L17.0974 23.7996C16.7275 24.1433 16.516 24.6189 16.516 25.2003C16.516 26.284 17.3617 27.1297 18.4189 27.1297C18.974 27.1297 19.4496 26.9182 19.7931 26.5747L28.594 17.7738C29.0961 17.2717 29.334 16.7959 29.334 16.2145C29.334 15.6595 29.1226 15.2102 28.594 14.6816L19.7931 5.85445C19.4496 5.51086 18.974 5.35229 18.4189 5.35229C17.3617 5.35229 16.516 6.17158 16.516 7.25517C16.516 7.81016 16.7539 8.28589 17.0974 8.65589L20.2689 11.8009L23.4404 14.4439L17.8639 14.2323L4.64946 14.2323C3.48665 14.2323 2.66732 15.078 2.66732 16.2145Z" fill="white"/>
</g>
<defs>
<clipPath id="clip0_344_984">
<rect y="0.240967" width="32" height="32" rx="5" fill="white"/>
</clipPath>
</defs>
</svg>
