<svg width="32" height="33" viewBox="0 0 32 33" fill="none" xmlns="http://www.w3.org/2000/svg">
<g clip-path="url(#clip0_344_1160)">
<path d="M8.33203 16.241C8.34704 16.7672 8.54211 17.2482 8.96226 17.639L20.6364 29.0633C20.9665 29.394 21.3867 29.5744 21.8819 29.5744C22.8722 29.5744 23.6675 28.7927 23.6675 27.8006C23.6675 27.3196 23.4724 26.8536 23.1273 26.5079L12.6086 16.2561L23.1273 5.97423C23.4574 5.6285 23.6675 5.17754 23.6675 4.68148C23.6675 3.68938 22.8722 2.90771 21.8819 2.90771C21.3867 2.90771 20.9665 3.0881 20.6364 3.4188L8.96226 14.8581C8.54211 15.264 8.33203 15.7149 8.33203 16.241Z" fill="white"/>
</g>
<defs>
<clipPath id="clip0_344_1160">
<rect y="0.240967" width="32" height="32" rx="5" fill="white"/>
</clipPath>
</defs>
</svg>
