<svg width="32" height="33" viewBox="0 0 32 33" fill="none" xmlns="http://www.w3.org/2000/svg">
<g clip-path="url(#clip0_344_1006)">
<path d="M23.6675 16.241C23.6525 16.7672 23.4574 17.2482 23.0373 17.639L11.3631 29.0633C11.033 29.394 10.6128 29.5744 10.1177 29.5744C9.12732 29.5744 8.33203 28.7927 8.33203 27.8006C8.33203 27.3196 8.5271 26.8536 8.87222 26.5079L19.391 16.2561L8.87222 5.97423C8.54211 5.6285 8.33203 5.17754 8.33203 4.68148C8.33203 3.68938 9.12731 2.90771 10.1177 2.90771C10.6128 2.90771 11.033 3.0881 11.3631 3.4188L23.0373 14.8581C23.4574 15.264 23.6675 15.7149 23.6675 16.241Z" fill="white"/>
</g>
<defs>
<clipPath id="clip0_344_1006">
<rect y="0.240967" width="32" height="32" rx="5" fill="white"/>
</clipPath>
</defs>
</svg>
