<svg width="32" height="33" viewBox="0 0 32 33" fill="none" xmlns="http://www.w3.org/2000/svg">
<g clip-path="url(#clip0_344_1105)">
<path d="M15.9993 24.8892C16.5255 24.8742 17.0065 24.6791 17.3973 24.2589L28.8216 12.5848C29.1523 12.2547 29.3327 11.8345 29.3327 11.3393C29.3327 10.349 28.551 9.55371 27.5589 9.55371C27.0779 9.55371 26.6119 9.74878 26.2662 10.0939L16.0144 20.6126L5.73253 10.0939C5.3868 9.76379 4.93584 9.55371 4.43978 9.55371C3.44768 9.55371 2.66602 10.349 2.66602 11.3393C2.66602 11.8345 2.8464 12.2547 3.1771 12.5848L14.6164 24.2589C15.0223 24.6791 15.4732 24.8892 15.9993 24.8892Z" fill="white"/>
</g>
<defs>
<clipPath id="clip0_344_1105">
<rect y="0.240967" width="32" height="32" rx="5" fill="white"/>
</clipPath>
</defs>
</svg>
