<svg width="32" height="33" viewBox="0 0 32 33" fill="none" xmlns="http://www.w3.org/2000/svg">
<g clip-path="url(#clip0_344_1116)">
<path d="M15.9993 8.57324C15.4732 8.58825 14.9922 8.78332 14.6014 9.20347L3.1771 20.8776C2.8464 21.2077 2.66602 21.6279 2.66602 22.1231C2.66602 23.1134 3.44768 23.9087 4.43978 23.9087C4.92081 23.9087 5.3868 23.7136 5.73253 23.3685L15.9843 12.8498L26.2662 23.3685C26.6119 23.6986 27.0629 23.9087 27.5589 23.9087C28.551 23.9087 29.3327 23.1134 29.3327 22.1231C29.3327 21.6279 29.1523 21.2077 28.8216 20.8776L17.3823 9.20347C16.9764 8.78332 16.5255 8.57324 15.9993 8.57324Z" fill="white"/>
</g>
<defs>
<clipPath id="clip0_344_1116">
<rect y="0.240967" width="32" height="32" rx="5" fill="white"/>
</clipPath>
</defs>
</svg>
