<svg width="32" height="33" viewBox="0 0 32 33" fill="none" xmlns="http://www.w3.org/2000/svg">
<g clip-path="url(#clip0_344_1017)">
<path d="M2.66732 16.2409C2.66732 8.95976 8.70648 2.90755 16.0007 2.90755C23.2817 2.90755 29.334 8.95976 29.334 16.2409C29.334 23.535 23.2948 29.5742 16.0137 29.5742C8.71952 29.5742 2.66731 23.535 2.66732 16.2409ZM16.7719 22.7245L21.2686 18.2408C21.4516 18.0579 21.5301 17.8225 21.5301 17.5349C21.5301 16.9859 21.1117 16.5546 20.5497 16.5546C20.2751 16.5546 20.0137 16.6722 19.8307 16.8553L18.2359 18.4631L16.8896 20.084L17.0071 17.2213L17.0071 10.5154C17.0071 9.91404 16.5758 9.49574 15.9876 9.49574C15.3862 9.49574 14.9679 9.91404 14.9679 10.5154L14.9679 17.2213L15.0856 20.0971L13.713 18.4631L12.1313 16.8553C11.9484 16.6592 11.7 16.5546 11.4124 16.5546C10.8503 16.5546 10.4189 16.9859 10.4189 17.5349C10.4189 17.8225 10.5235 18.0579 10.7065 18.2408L15.1901 22.7245C15.4516 22.986 15.6869 23.1036 15.9876 23.1036C16.2752 23.1036 16.4974 22.999 16.7719 22.7245Z" fill="white"/>
</g>
<defs>
<clipPath id="clip0_344_1017">
<rect y="0.240967" width="32" height="32" rx="5" fill="white"/>
</clipPath>
</defs>
</svg>
