<svg width="32" height="33" viewBox="0 0 32 33" fill="none" xmlns="http://www.w3.org/2000/svg">
<g clip-path="url(#clip0_344_1149)">
<path d="M15.9932 2.90755C15.2193 2.90755 14.6687 3.46721 14.6687 4.25378L14.6687 19.5308L14.7728 22.7677L10.2931 17.7913L6.9593 14.4485C6.72117 14.2066 6.36405 14.0704 6.00679 14.0704C5.2627 14.0704 4.71202 14.6452 4.71202 15.4014C4.71202 15.7645 4.86087 16.0972 5.15856 16.4149L14.9961 26.4281C15.2789 26.7306 15.636 26.897 15.9932 26.897C16.3653 26.897 16.7076 26.7306 16.9904 26.4281L26.8428 16.4149C27.1256 16.0972 27.2745 15.7645 27.2745 15.4014C27.2745 14.6452 26.7387 14.0704 25.9796 14.0704C25.6224 14.0704 25.2801 14.2066 25.0271 14.4485L21.6934 17.7913L17.2136 22.7828L17.3327 19.5308L17.3327 4.25378C17.3327 3.46721 16.782 2.90755 15.9932 2.90755ZM26.0541 26.8667L5.97708 26.8667C5.20313 26.8667 4.66732 27.4264 4.66732 28.2129C4.66732 28.9994 5.20313 29.5742 5.97708 29.5742L26.0541 29.5742C26.8131 29.5742 27.334 28.9994 27.334 28.2129C27.334 27.4264 26.8131 26.8667 26.0541 26.8667Z" fill="white"/>
</g>
<defs>
<clipPath id="clip0_344_1149">
<rect y="0.240967" width="32" height="32" rx="5" fill="white"/>
</clipPath>
</defs>
</svg>
