<svg width="32" height="33" viewBox="0 0 32 33" fill="none" xmlns="http://www.w3.org/2000/svg">
<g clip-path="url(#clip0_344_1171)">
<path d="M26.8836 14.8917C27.6088 14.8917 28.1698 14.3707 28.1698 13.6626C28.156 12.9411 27.6088 12.4468 26.8836 12.4468H25.7343L20.9455 12.714L24.7354 9.2003L28.9633 5.0854C29.2096 4.84492 29.3327 4.51092 29.3327 4.16356C29.3327 3.4154 28.7581 2.90771 27.9919 2.90771C27.6498 2.90771 27.3488 3.02796 27.1162 3.26844L22.9158 7.41005L19.3036 11.1108L19.5773 6.44813V5.32588C19.5773 4.6178 19.0574 4.0834 18.3459 4.0834C17.6071 4.0834 17.0734 4.63116 17.0734 5.32588V12.7274C17.0734 14.0901 17.8806 14.8917 19.2763 14.8917H26.8836ZM13.7486 28.4521C14.4875 28.4521 15.0211 27.9178 15.0211 27.2097V19.6612C15.0211 18.2985 14.2138 17.5103 12.8182 17.5103H5.06041C4.33525 17.5103 3.77428 18.018 3.77428 18.7394C3.78796 19.4475 4.33525 19.9418 5.06041 19.9418H6.36022L11.149 19.6746L7.35903 23.1882L3.04912 27.3966C2.80284 27.6372 2.66602 27.9711 2.66602 28.3185C2.66602 29.0667 3.24067 29.5744 4.02056 29.5744C4.34894 29.5744 4.66363 29.4541 4.89623 29.2137L9.17876 24.9919L12.7909 21.2912L12.5172 25.9404V27.2097C12.5172 27.9311 13.0372 28.4521 13.7486 28.4521Z" fill="white"/>
</g>
<defs>
<clipPath id="clip0_344_1171">
<rect y="0.240967" width="32" height="32" rx="5" fill="white"/>
</clipPath>
</defs>
</svg>
