<svg width="32" height="33" viewBox="0 0 32 33" fill="none" xmlns="http://www.w3.org/2000/svg">
<g clip-path="url(#clip0_344_995)">
<path d="M3.95324 14.227C4.69481 14.227 5.22649 13.6673 5.22649 12.9257V11.7504L4.94666 6.86736L8.62646 10.743L12.9359 15.0804C13.1737 15.3322 13.4816 15.4442 13.8174 15.4442C14.6149 15.4442 15.2025 14.9265 15.2025 14.143C15.2025 13.7652 15.0766 13.4294 14.8248 13.1776L10.5013 8.86816L6.62566 5.18836L11.5227 5.46819H12.684C13.4256 5.46819 13.9993 4.9505 13.9993 4.19494C13.9993 3.4394 13.4396 2.90771 12.684 2.90771H4.91867C3.49152 2.90771 2.66602 3.73322 2.66602 5.16037V12.9257C2.66602 13.6533 3.21169 14.227 3.95324 14.227ZM19.3021 29.6038H27.0675C28.4946 29.6038 29.3341 28.7783 29.3341 27.3512V19.5858C29.3341 18.8582 28.7884 18.2845 28.0329 18.2845C27.3053 18.2845 26.7597 18.8443 26.7597 19.5858V20.761L27.0535 25.6442L23.3596 21.7685L19.0643 17.4311C18.8264 17.1792 18.5045 17.0673 18.1688 17.0673C17.3852 17.0673 16.7836 17.585 16.7836 18.3685C16.7836 18.7462 16.9235 19.0821 17.1753 19.3339L21.4848 23.6434L25.3744 27.3231L20.4774 27.0433H19.3021C18.5605 27.0433 17.9868 27.561 17.9868 28.3165C17.9868 29.0722 18.5605 29.6038 19.3021 29.6038Z" fill="white"/>
</g>
<defs>
<clipPath id="clip0_344_995">
<rect y="0.240967" width="32" height="32" rx="5" fill="white"/>
</clipPath>
</defs>
</svg>
