<svg width="32" height="33" viewBox="0 0 32 33" fill="none" xmlns="http://www.w3.org/2000/svg">
<g clip-path="url(#clip0_344_1072)">
<path d="M17.1579 28.241C23.8063 28.241 29.3327 22.794 29.3327 16.241C29.3327 9.67627 23.8063 4.24097 17.1579 4.24097C10.4976 4.24097 4.98321 9.6645 4.98321 16.2292H7.01233C7.01233 10.6763 11.5241 6.25274 17.1579 6.25274C22.7917 6.25274 27.3036 10.688 27.3036 16.241C27.3036 21.794 22.7917 26.2645 17.1579 26.2411C13.7562 26.2292 10.7722 24.6058 8.94596 22.0999C8.57594 21.6175 8.01495 21.4645 7.51364 21.7586C7.0362 22.0528 6.90491 22.6998 7.31073 23.2174C9.57857 26.2175 13.1355 28.241 17.1579 28.241ZM3.51508 13.9704C2.65569 13.9704 2.44084 14.5468 2.90635 15.2057L5.58001 18.9468C5.97389 19.4881 6.54682 19.4763 6.92877 18.9468L9.60244 15.194C10.056 14.5468 9.84116 13.9704 8.99371 13.9704H3.51508Z" fill="white"/>
</g>
<defs>
<clipPath id="clip0_344_1072">
<rect y="0.240967" width="32" height="32" rx="5" fill="white"/>
</clipPath>
</defs>
</svg>
