<svg width="32" height="33" viewBox="0 0 32 33" fill="none" xmlns="http://www.w3.org/2000/svg">
<g clip-path="url(#clip0_344_1028)">
<path d="M14.8421 28.241C8.1937 28.241 2.66732 22.794 2.66732 16.241C2.66732 9.67627 8.1937 4.24097 14.8421 4.24097C21.5024 4.24097 27.0168 9.6645 27.0168 16.2292H24.9877C24.9877 10.6763 20.4759 6.25274 14.8421 6.25274C9.20827 6.25274 4.69645 10.688 4.69645 16.241C4.69645 21.794 9.20827 26.2645 14.8421 26.2411C18.2438 26.2292 21.2278 24.6058 23.054 22.0999C23.4241 21.6175 23.985 21.4645 24.4864 21.7586C24.9638 22.0528 25.0951 22.6998 24.6893 23.2174C22.4214 26.2175 18.8645 28.241 14.8421 28.241ZM28.4849 13.9704C29.3443 13.9704 29.5592 14.5468 29.0937 15.2057L26.42 18.9468C26.0261 19.4881 25.4532 19.4763 25.0712 18.9468L22.3976 15.194C21.944 14.5468 22.1588 13.9704 23.0063 13.9704H28.4849Z" fill="white"/>
</g>
<defs>
<clipPath id="clip0_344_1028">
<rect y="0.240967" width="32" height="32" rx="5" fill="white"/>
</clipPath>
</defs>
</svg>
