<svg width="32" height="33" viewBox="0 0 32 33" fill="none" xmlns="http://www.w3.org/2000/svg">
<g clip-path="url(#clip0_344_1182)">
<path d="M8.68224 5.90017C9.23937 5.30294 10.1101 5.33913 10.6432 5.89903L16.2426 11.6206L16.2439 11.6219C16.5047 11.8835 16.6495 12.255 16.6495 12.5852C16.6495 12.9555 16.5224 13.289 16.2824 13.5309C16.0422 13.773 15.711 13.9012 15.3445 13.9012C14.9618 13.9012 14.6695 13.7616 14.4244 13.5165L14.4211 13.5133L12.0905 11.1158L10.9154 9.74972L10.9793 11.3956V25.6822C10.9793 26.0547 10.848 26.3902 10.6066 26.6334C10.3652 26.8768 10.032 27.0093 9.6633 27.0093C9.29068 27.0093 8.9547 26.8779 8.71114 26.6343C8.46757 26.3908 8.33616 26.0548 8.33616 25.6822L8.33646 11.3815L8.40709 9.75001L7.21855 11.1223L4.90223 13.5166C4.65413 13.7646 4.34956 13.9012 3.97092 13.9012C3.60446 13.9012 3.27324 13.773 3.03312 13.5309C2.79312 13.289 2.66602 12.9555 2.66602 12.5852C2.66602 12.247 2.82766 11.8801 3.06646 11.6272L3.0707 11.6228L8.68224 5.90017Z" fill="white"/>
<path d="M22.3465 5.4656C21.5744 5.4656 21.0194 6.03673 21.0194 6.79274L21.0191 21.0793L21.0901 22.7209L19.9083 21.3482L17.5892 18.951L17.5854 18.9472C17.3319 18.6937 17.025 18.5736 16.6653 18.5736C16.3018 18.5736 15.9691 18.697 15.7256 18.9347C15.4812 19.1733 15.3492 19.5052 15.3492 19.8785C15.3492 20.2232 15.5075 20.595 15.7686 20.8447L21.3663 26.5867C21.9061 27.1539 22.7635 27.1644 23.3252 26.5882L28.9244 20.8447C29.1915 20.5892 29.3327 20.2145 29.3327 19.8785C29.3327 19.5079 29.2053 19.1762 28.9637 18.9365C28.7226 18.6973 28.3915 18.5736 28.0277 18.5736C27.6548 18.5736 27.3597 18.6951 27.1076 18.9472L24.7847 21.3482L23.5986 22.7259L23.6625 21.092V6.79274C23.6625 6.03913 23.1098 5.4656 22.3465 5.4656Z" fill="white"/>
</g>
<defs>
<clipPath id="clip0_344_1182">
<rect y="0.240967" width="32" height="32" rx="5" fill="white"/>
</clipPath>
</defs>
</svg>
