<svg width="32" height="33" viewBox="0 0 32 33" fill="none" xmlns="http://www.w3.org/2000/svg">
<g clip-path="url(#clip0_344_1061)">
<path d="M15.9932 2.90771C15.5856 2.90771 15.1162 3.06851 14.6715 3.53851L5.46892 13.2973C4.91306 13.891 4.66602 14.3858 4.66602 14.9918C4.66602 15.8329 5.28364 16.4389 6.11124 16.4389H11.114V26.7296C11.114 28.523 12.1269 29.5744 13.8933 29.5744H18.0808C19.8471 29.5744 20.86 28.523 20.86 26.7296V16.4389H25.8133C26.641 16.4389 27.3327 15.8329 27.3327 14.9671C27.3327 14.3611 27.0609 13.9528 26.4434 13.2973L17.3272 3.53851C16.8825 3.05614 16.4131 2.90771 15.9932 2.90771Z" fill="white"/>
</g>
<defs>
<clipPath id="clip0_344_1061">
<rect y="0.240967" width="32" height="32" rx="5" fill="white"/>
</clipPath>
</defs>
</svg>
