<svg width="32" height="32" viewBox="0 0 32 32" fill="none" xmlns="http://www.w3.org/2000/svg">
<g clip-path="url(#clip0_344_582)">
<path d="M20.6697 4.76769C19.9797 5.70365 19.5738 6.85792 19.5738 8.09985C19.5738 11.2322 22.1369 13.7994 25.2527 13.7994C26.677 13.7994 27.9857 13.2631 28.9832 12.3773C29.2159 13.1495 29.3327 13.9578 29.3327 14.7886C29.3327 20.6529 23.7007 25.4811 15.2351 25.4811C15.0823 25.4811 14.9293 25.4693 14.7765 25.4576C14.6119 25.4576 14.4356 25.5164 14.2356 25.6577C12.2368 27.0944 8.73303 28.6371 7.31034 28.6371C6.41675 28.6371 6.15808 27.8952 6.61664 27.3063C7.06343 26.7176 8.23921 25.4222 8.88589 24.3388C8.99171 24.1622 8.93292 23.9856 8.74479 23.8914C4.9823 21.8659 2.66602 18.5569 2.66602 14.7886C2.66602 8.86529 8.59194 4.08426 15.9993 4.08426C17.6474 4.08426 19.223 4.32167 20.6697 4.76769Z" fill="white"/>
<path d="M26.0825 7.38348H24.4551V6.77497C24.4551 6.18745 24.8305 5.87504 25.2665 5.87504C25.7024 5.87504 26.0825 6.18745 26.0825 6.77497V7.38348Z" fill="white"/>
<path fill-rule="evenodd" clip-rule="evenodd" d="M29.3327 8.06199C29.3327 10.3476 27.4908 12.2143 25.2618 12.2143C23.0327 12.2143 21.2026 10.3476 21.2026 8.06199C21.2026 5.78838 23.0327 3.92163 25.2618 3.92163C27.4908 3.92163 29.3327 5.78838 29.3327 8.06199ZM26.3343 10.0973H24.201C23.8583 10.0973 23.6764 9.91075 23.6764 9.54238V7.93603C23.6764 7.61193 23.8172 7.43041 24.0844 7.39146V6.82626C24.0844 5.94965 24.658 5.523 25.2665 5.523C25.8773 5.523 26.4508 5.94965 26.4508 6.82626V7.39146C26.7181 7.43041 26.8588 7.61193 26.8588 7.93603V9.54238C26.8588 9.91075 26.677 10.0973 26.3343 10.0973Z" fill="white"/>
</g>
<defs>
<clipPath id="clip0_344_582">
<rect y="-0.00439453" width="32" height="32" rx="5" fill="white"/>
</clipPath>
</defs>
</svg>
