<svg width="32" height="32" viewBox="0 0 32 32" fill="none" xmlns="http://www.w3.org/2000/svg">
<g clip-path="url(#clip0_344_593)">
<path d="M7.28471 27.9256C8.68641 27.9256 12.0298 26.5089 14.1208 25.0811C14.3391 24.925 14.523 24.8692 14.7068 24.8692C14.8562 24.8804 14.994 24.8915 15.1204 24.8915C23.4042 24.8804 29.3327 20.4966 29.3327 14.4731C29.3327 8.70622 23.3927 4.06592 15.9936 4.06592C8.59449 4.06592 2.66602 8.70622 2.66602 14.4731C2.66602 18.0649 4.89494 21.2774 8.66343 23.2518C8.87024 23.3745 8.92768 23.5418 8.82428 23.7426C8.1579 24.8246 7.04344 26.0293 6.58387 26.5982C6.06685 27.234 6.36557 27.9256 7.28471 27.9256Z" fill="white"/>
</g>
<defs>
<clipPath id="clip0_344_593">
<rect y="-0.00439453" width="32" height="32" rx="5" fill="white"/>
</clipPath>
</defs>
</svg>
