<svg width="32" height="32" viewBox="0 0 32 32" fill="none" xmlns="http://www.w3.org/2000/svg">
<g clip-path="url(#clip0_344_472)">
<path d="M18.3669 2.79761C17.5907 3.31844 16.3196 4.58928 15.5487 5.6049C14.314 7.24553 13.418 9.17782 13.069 10.9695C12.819 12.2507 12.6731 13.8028 12.6679 15.1986C12.6679 15.7559 12.6523 15.8914 12.595 15.8914C12.5585 15.8914 12.3397 15.7976 12.1157 15.6882C11.1416 15.1986 10.3758 14.0216 10.0112 12.4539C9.94865 12.183 9.87572 11.907 9.84967 11.8393C9.79237 11.6934 9.50586 11.5164 9.33395 11.5164C8.95888 11.5164 8.03163 12.3289 7.51591 13.1049C6.48447 14.6674 6 16.6518 6 19.2768C6.00521 22.0684 6.98977 24.4747 8.92242 26.407C10.8394 28.3236 13.2722 29.3289 16.0019 29.3289C18.7315 29.3289 21.1643 28.3236 23.0813 26.407C24.6493 24.8393 25.587 22.9643 25.9308 20.6934C25.9985 20.2195 26.0141 19.8914 25.9881 19.0268C25.9568 17.8497 25.8683 17.1361 25.6391 16.1778C25.1129 13.9851 24.3732 12.5841 22.0394 9.38094C20.8726 7.77678 20.5652 7.30803 20.1693 6.49032C19.6848 5.49553 19.3879 4.41219 19.3879 3.63094C19.3827 2.94344 19.2108 2.66219 18.794 2.66219C18.6378 2.66219 18.5075 2.70386 18.3669 2.79761ZM16.7833 18.9695C16.7833 19.1518 17.3198 20.1101 17.9345 21.0216C18.9451 22.5216 19.2108 23.1986 19.2681 24.4382C19.3046 25.2403 19.216 25.6986 18.9087 26.3236C18.643 26.8549 17.9762 27.5476 17.4761 27.808C16.7833 28.1726 15.9862 28.2664 15.2517 28.0789C14.6422 27.9226 14.2672 27.7039 13.7619 27.1934C13.0065 26.4486 12.72 25.7247 12.72 24.5893C12.72 24.2559 12.746 23.8445 12.7773 23.6726C12.8502 23.2664 12.9805 22.8184 13.0221 22.8184C13.043 22.8184 13.1107 22.907 13.1732 23.0164C13.517 23.6101 14.0536 23.9643 14.6735 24.0059C15.0954 24.032 15.2778 23.9591 15.3663 23.7143C15.3976 23.6361 15.434 23.2195 15.4549 22.7924C15.5226 21.1101 15.7362 20.3445 16.3978 19.3445C16.6634 18.9434 16.7833 18.8289 16.7833 18.9695Z" fill="white"/>
</g>
<defs>
<clipPath id="clip0_344_472">
<rect y="-0.00439453" width="32" height="32" rx="5" fill="white"/>
</clipPath>
</defs>
</svg>
