<svg width="32" height="32" viewBox="0 0 32 32" fill="none" xmlns="http://www.w3.org/2000/svg">
<g clip-path="url(#clip0_344_494)">
<path d="M10.3888 15.7116C8.04173 15.7116 6.05902 13.6324 6.05902 10.9424C6.05902 8.31662 8.05245 6.30176 10.3888 6.30176C12.7145 6.30176 14.7186 8.34877 14.7079 10.9638C14.7079 13.6324 12.7359 15.7116 10.3888 15.7116ZM22.7781 15.9581C20.731 15.9581 19.0056 14.1361 19.0056 11.7997C19.0056 9.50624 20.7525 7.75931 22.7781 7.75931C24.8036 7.75931 26.5506 9.53839 26.5398 11.8212C26.5398 14.1361 24.8144 15.9581 22.7781 15.9581ZM28.6833 25.6894H20.6453C21.7921 24.0497 20.5596 20.813 18.1375 18.9053C19.3164 18.1444 20.8489 17.5871 22.7781 17.5871C27.5687 17.5871 30.666 21.1131 30.666 24.0175C30.666 25.0785 30.1301 25.6894 28.6833 25.6894ZM17.0657 25.6787H3.71193C1.94357 25.6787 1.33268 25.1428 1.33268 24.1568C1.33268 21.4025 4.83725 17.6085 10.3888 17.6085C15.9511 17.6085 19.445 21.4025 19.445 24.1568C19.445 25.1428 18.8341 25.6787 17.0657 25.6787Z" fill="white"/>
</g>
<defs>
<clipPath id="clip0_344_494">
<rect y="-0.00439453" width="32" height="32" rx="5" fill="white"/>
</clipPath>
</defs>
</svg>
