<svg width="32" height="32" viewBox="0 0 32 32" fill="none" xmlns="http://www.w3.org/2000/svg">
<g clip-path="url(#clip0_344_549)">
<path d="M15.4222 21.2106L17.3178 19.2902C15.8558 19.1663 14.8027 18.6831 14.0469 17.9274C11.9531 15.8335 11.9531 12.8724 14.0346 10.8034L18.1479 6.67768C20.2417 4.59624 23.1904 4.58385 25.2842 6.67768C27.3905 8.7839 27.3657 11.7326 25.2966 13.8141L23.1904 15.9079C23.5869 16.8247 23.7232 17.9398 23.5001 18.9061L27.0436 15.3751C30.0914 12.3397 30.1038 8.00336 27.0312 4.93076C23.9462 1.84577 19.6346 1.87055 16.5868 4.91837L12.2752 9.22992C9.22741 12.2777 9.21502 16.6017 12.2876 19.6743C13.0062 20.4053 13.9974 20.9504 15.4222 21.2106ZM16.5744 10.7414L14.6788 12.6618C16.1408 12.7981 17.1939 13.2689 17.9496 14.0247C20.0559 16.1185 20.0435 19.0796 17.962 21.161L13.8487 25.2744C11.7549 27.3682 8.80617 27.3682 6.72473 25.2744C4.61851 23.1681 4.6309 20.2318 6.71234 18.1504L8.80617 16.0442C8.40971 15.1397 8.28581 14.0247 8.49643 13.0459L4.95303 16.5893C1.9052 19.6247 1.89281 23.9487 4.96542 27.0213C8.05041 30.1063 12.362 30.0815 15.4098 27.0461L19.7213 22.7221C22.7692 19.6743 22.7816 15.3504 19.709 12.2777C18.9904 11.5592 18.0116 11.014 16.5744 10.7414Z" fill="white"/>
</g>
<defs>
<clipPath id="clip0_344_549">
<rect y="-0.00439453" width="32" height="32" rx="5" fill="white"/>
</clipPath>
</defs>
</svg>
