<svg width="32" height="32" viewBox="0 0 32 32" fill="none" xmlns="http://www.w3.org/2000/svg">
<g clip-path="url(#clip0_344_560)">
<path d="M5.43262 14.8007H12.0377C13.8773 14.8007 14.8043 13.8736 14.8043 11.9616V5.48689C14.8043 3.5749 13.8773 2.66235 12.0377 2.66235H5.43262C3.59305 2.66235 2.66602 3.5749 2.66602 5.48689V11.9616C2.66602 13.8736 3.59305 14.8007 5.43262 14.8007ZM5.46159 12.7583C4.95462 12.7583 4.70838 12.4976 4.70838 11.9616V5.48689C4.70838 4.96545 4.95462 4.70472 5.46159 4.70472H11.9943C12.5012 4.70472 12.762 4.96545 12.762 5.48689V11.9616C12.762 12.4976 12.5012 12.7583 11.9943 12.7583H5.46159ZM7.48947 10.2524H9.96638C10.1692 10.2524 10.2561 10.1655 10.2561 9.91926V7.51478C10.2561 7.28302 10.1692 7.19612 9.96638 7.19612H7.48947C7.2722 7.19612 7.19978 7.28302 7.19978 7.51478V9.91926C7.19978 10.1655 7.2722 10.2524 7.48947 10.2524ZM19.9754 14.8007H26.566C28.4056 14.8007 29.3326 13.8736 29.3326 11.9616V5.48689C29.3326 3.5749 28.4056 2.66235 26.566 2.66235H19.9754C18.1213 2.66235 17.1943 3.5749 17.1943 5.48689V11.9616C17.1943 13.8736 18.1213 14.8007 19.9754 14.8007ZM20.0043 12.7583C19.483 12.7583 19.2366 12.4976 19.2366 11.9616V5.48689C19.2366 4.96545 19.483 4.70472 20.0043 4.70472H26.5371C27.0441 4.70472 27.2903 4.96545 27.2903 5.48689V11.9616C27.2903 12.4976 27.0441 12.7583 26.5371 12.7583H20.0043ZM22.1047 10.2524H24.5816C24.7988 10.2524 24.8858 10.1655 24.8858 9.91926V7.51478C24.8858 7.28302 24.7988 7.19612 24.5816 7.19612H22.1047C21.9019 7.19612 21.8295 7.28302 21.8295 7.51478V9.91926C21.8295 10.1655 21.9019 10.2524 22.1047 10.2524ZM5.43262 29.329H12.0377C13.8773 29.329 14.8043 28.4164 14.8043 26.5044V20.0152C14.8043 18.1176 13.8773 17.1906 12.0377 17.1906H5.43262C3.59305 17.1906 2.66602 18.1176 2.66602 20.0152V26.5044C2.66602 28.4164 3.59305 29.329 5.43262 29.329ZM5.46159 27.2866C4.95462 27.2866 4.70838 27.0259 4.70838 26.5044V20.0297C4.70838 19.4937 4.95462 19.233 5.46159 19.233H11.9943C12.5012 19.233 12.762 19.4937 12.762 20.0297V26.5044C12.762 27.0259 12.5012 27.2866 11.9943 27.2866H5.46159ZM7.48947 24.7952H9.96638C10.1692 24.7952 10.2561 24.7083 10.2561 24.4475V22.0575C10.2561 21.8258 10.1692 21.7389 9.96638 21.7389H7.48947C7.2722 21.7389 7.19978 21.8258 7.19978 22.0575V24.4475C7.19978 24.7083 7.2722 24.7952 7.48947 24.7952ZM18.1793 20.9422H20.6562C20.8591 20.9422 20.9459 20.8553 20.9459 20.6091V18.2047C20.9459 17.9729 20.8591 17.8859 20.6562 17.8859H18.1793C17.962 17.8859 17.8896 17.9729 17.8896 18.2047V20.6091C17.8896 20.8553 17.962 20.9422 18.1793 20.9422ZM25.8707 20.9422H28.3476C28.5504 20.9422 28.6373 20.8553 28.6373 20.6091V18.2047C28.6373 17.9729 28.5504 17.8859 28.3476 17.8859H25.8707C25.6535 17.8859 25.5811 17.9729 25.5811 18.2047V20.6091C25.5811 20.8553 25.6535 20.9422 25.8707 20.9422ZM22.0612 24.7952H24.5381C24.741 24.7952 24.8279 24.7083 24.8279 24.4475V22.0575C24.8279 21.8258 24.741 21.7389 24.5381 21.7389H22.0612C21.8439 21.7389 21.7715 21.8258 21.7715 22.0575V24.4475C21.7715 24.7083 21.8439 24.7952 22.0612 24.7952ZM18.1793 28.6337H20.6562C20.8591 28.6337 20.9459 28.5467 20.9459 28.3005V25.896C20.9459 25.6643 20.8591 25.5774 20.6562 25.5774H18.1793C17.962 25.5774 17.8896 25.6643 17.8896 25.896V28.3005C17.8896 28.5467 17.962 28.6337 18.1793 28.6337ZM25.8707 28.6337H28.3476C28.5504 28.6337 28.6373 28.5467 28.6373 28.3005V25.896C28.6373 25.6643 28.5504 25.5774 28.3476 25.5774H25.8707C25.6535 25.5774 25.5811 25.6643 25.5811 25.896V28.3005C25.5811 28.5467 25.6535 28.6337 25.8707 28.6337Z" fill="white"/>
</g>
<defs>
<clipPath id="clip0_344_560">
<rect y="-0.00439453" width="32" height="32" rx="5" fill="white"/>
</clipPath>
</defs>
</svg>
