<svg width="32" height="32" viewBox="0 0 32 32" fill="none" xmlns="http://www.w3.org/2000/svg">
<g clip-path="url(#clip0_344_604)">
<path d="M5.5 25.436C5.5 28.0354 6.78597 29.329 9.3704 29.329H22.6296C25.2141 29.329 26.5 28.0354 26.5 25.436V6.56783C26.5 3.98076 25.2141 2.66235 22.6296 2.66235H9.3704C6.78597 2.66235 5.5 3.98076 5.5 6.56783V25.436ZM7.51011 25.3987V6.60514C7.51011 5.36136 8.17182 4.66484 9.47028 4.66484H22.5298C23.8282 4.66484 24.4899 5.36136 24.4899 6.60514V25.3987C24.4899 26.6425 23.8282 27.3266 22.5298 27.3266H9.47028C8.17182 27.3266 7.51011 26.6425 7.51011 25.3987Z" fill="white"/>
<path fill-rule="evenodd" clip-rule="evenodd" d="M12.7415 14.879C12.7415 15.0275 12.8113 15.0998 12.955 15.0998H14.8071C14.9508 15.0998 15.0247 15.0275 15.0247 14.879V13.0841C15.0247 12.9396 14.9508 12.8673 14.8071 12.8673H12.955C12.8113 12.8673 12.7415 12.9396 12.7415 13.0841V14.879ZM14.2322 14.4051H13.5299C13.4683 14.4051 13.4478 14.3811 13.4478 14.3128V13.6463C13.4478 13.582 13.4683 13.5579 13.5299 13.5579H14.2322C14.2896 13.5579 14.3143 13.582 14.3143 13.6463V14.3128C14.3143 14.3811 14.2896 14.4051 14.2322 14.4051Z" fill="white"/>
<path fill-rule="evenodd" clip-rule="evenodd" d="M16.8604 14.879C16.8604 15.0275 16.9302 15.0998 17.078 15.0998H18.9301C19.0739 15.0998 19.1437 15.0275 19.1437 14.879V13.0841C19.1437 12.9396 19.0739 12.8673 18.9301 12.8673H17.078C16.9302 12.8673 16.8604 12.9396 16.8604 13.0841V14.879ZM18.3757 14.4051H17.6735C17.616 14.4051 17.5955 14.3811 17.5955 14.3128V13.6463C17.5955 13.582 17.616 13.5579 17.6735 13.5579H18.3757C18.4373 13.5579 18.462 13.582 18.462 13.6463V14.3128C18.462 14.3811 18.4373 14.4051 18.3757 14.4051Z" fill="white"/>
<path fill-rule="evenodd" clip-rule="evenodd" d="M12.7415 18.9103C12.7415 19.0549 12.8113 19.1271 12.955 19.1271H14.8071C14.9508 19.1271 15.0247 19.0549 15.0247 18.9103V17.1155C15.0247 16.9669 14.9508 16.8946 14.8071 16.8946H12.955C12.8113 16.8946 12.7415 16.9669 12.7415 17.1155V18.9103ZM14.2322 18.4365H13.5299C13.4683 18.4365 13.4478 18.4124 13.4478 18.3401V17.6776C13.4478 17.6133 13.4683 17.5893 13.5299 17.5893H14.2322C14.2896 17.5893 14.3143 17.6133 14.3143 17.6776V18.3401C14.3143 18.4124 14.2896 18.4365 14.2322 18.4365Z" fill="white"/>
<path fill-rule="evenodd" clip-rule="evenodd" d="M21.7035 25.6523H10.2768C9.48404 25.6523 9.15684 25.3404 9.15684 24.554V7.41735C9.15684 6.63104 9.48404 6.31901 10.2768 6.31901H21.7035C22.5089 6.31901 22.8235 6.63104 22.8235 7.41735V24.554C22.8235 25.3404 22.5089 25.6523 21.7035 25.6523ZM14.8194 15.6659H12.9468C12.4252 15.6659 12.1624 15.409 12.1624 14.879V13.0841C12.1624 12.5541 12.4252 12.3011 12.9468 12.3011H14.8194C15.3409 12.3011 15.6038 12.5541 15.6038 13.0841V14.879C15.6038 15.409 15.3409 15.6659 14.8194 15.6659ZM18.9383 15.6659H17.0698C16.5442 15.6659 16.2814 15.409 16.2814 14.879V13.0841C16.2814 12.5541 16.5442 12.3011 17.0698 12.3011H18.9383C19.4599 12.3011 19.7227 12.5541 19.7227 13.0841V14.879C19.7227 15.409 19.4599 15.6659 18.9383 15.6659ZM14.8194 19.6933H12.9468C12.4252 19.6933 12.1624 19.4403 12.1624 18.9103V17.1115C12.1624 16.5854 12.4252 16.3285 12.9468 16.3285H14.8194C15.3409 16.3285 15.6038 16.5854 15.6038 17.1115V18.9103C15.6038 19.4403 15.3409 19.6933 14.8194 19.6933ZM17.2628 17.3684H16.5606C16.499 17.3684 16.4785 17.3443 16.4785 17.2761V16.6096C16.4785 16.5453 16.499 16.5212 16.5606 16.5212H17.2628C17.3204 16.5212 17.345 16.5453 17.345 16.6096V17.2761C17.345 17.3443 17.3204 17.3684 17.2628 17.3684ZM19.4434 17.3684H18.7412C18.6796 17.3684 18.6591 17.3443 18.6591 17.2761V16.6096C18.6591 16.5453 18.6796 16.5212 18.7412 16.5212H19.4434C19.5009 16.5212 19.5256 16.5453 19.5256 16.6096V17.2761C19.5256 17.3443 19.5009 17.3684 19.4434 17.3684ZM18.3634 18.4365H17.6612C17.5996 18.4365 17.579 18.4124 17.579 18.3401V17.6776C17.579 17.6133 17.5996 17.5893 17.6612 17.5893H18.3634C18.4209 17.5893 18.4456 17.6133 18.4456 17.6776V18.3401C18.4456 18.4124 18.4209 18.4365 18.3634 18.4365ZM17.2628 19.5006H16.5606C16.499 19.5006 16.4785 19.4764 16.4785 19.4082V18.7417C16.4785 18.6774 16.499 18.6533 16.5606 18.6533H17.2628C17.3204 18.6533 17.345 18.6774 17.345 18.7417V19.4082C17.345 19.4764 17.3204 19.5006 17.2628 19.5006ZM19.4434 19.5006H18.7412C18.6796 19.5006 18.6591 19.4764 18.6591 19.4082V18.7417C18.6591 18.6774 18.6796 18.6533 18.7412 18.6533H19.4434C19.5009 18.6533 19.5256 18.6774 19.5256 18.7417V19.4082C19.5256 19.4764 19.5009 19.5006 19.4434 19.5006Z" fill="white"/>
</g>
<defs>
<clipPath id="clip0_344_604">
<rect y="-0.00439453" width="32" height="32" rx="5" fill="white"/>
</clipPath>
</defs>
</svg>
