<svg width="32" height="32" viewBox="0 0 32 32" fill="none" xmlns="http://www.w3.org/2000/svg">
<g clip-path="url(#clip0_344_505)">
<path fill-rule="evenodd" clip-rule="evenodd" d="M5.65092 4.38374C4.90159 4.38374 4.29415 4.99119 4.29415 5.74052V12.6191C4.29415 13.0687 3.92968 13.4332 3.48008 13.4332C3.03048 13.4332 2.66602 13.0687 2.66602 12.6191V5.74052C2.66602 4.092 4.0024 2.75562 5.65092 2.75562H12.34C12.7896 2.75562 13.154 3.12008 13.154 3.56968C13.154 4.01928 12.7896 4.38374 12.34 4.38374H5.65092Z" fill="white"/>
<path fill-rule="evenodd" clip-rule="evenodd" d="M26.3478 27.7009C27.0971 27.7009 27.7046 27.0934 27.7046 26.3441L27.7046 19.4655C27.7046 19.0159 28.069 18.6515 28.5186 18.6515C28.9682 18.6515 29.3327 19.0159 29.3327 19.4655V26.3441C29.3327 27.9926 27.9963 29.329 26.3478 29.329H19.6587C19.2091 29.329 18.8447 28.9645 18.8447 28.5149C18.8447 28.0653 19.2091 27.7009 19.6587 27.7009H26.3478Z" fill="white"/>
<path fill-rule="evenodd" clip-rule="evenodd" d="M27.7046 5.79139C27.7046 5.04207 27.0971 4.43462 26.3478 4.43462L19.4692 4.43462C19.0196 4.43462 18.6552 4.07015 18.6552 3.62055C18.6552 3.17096 19.0196 2.80649 19.4692 2.80649L26.3478 2.80649C27.9963 2.80649 29.3327 4.14288 29.3327 5.79139V12.4805C29.3327 12.9301 28.9682 13.2945 28.5186 13.2945C28.069 13.2945 27.7046 12.9301 27.7046 12.4805V5.79139Z" fill="white"/>
<path fill-rule="evenodd" clip-rule="evenodd" d="M4.29415 26.2932C4.29415 27.0425 4.90159 27.65 5.65092 27.65H12.5295C12.9791 27.65 13.3436 28.0145 13.3436 28.4641C13.3436 28.9136 12.9791 29.2781 12.5295 29.2781L5.65092 29.2781C4.0024 29.2781 2.66602 27.9417 2.66602 26.2932L2.66602 19.6041C2.66602 19.1546 3.03049 18.7901 3.48008 18.7901C3.92968 18.7901 4.29415 19.1546 4.29415 19.6042L4.29415 26.2932Z" fill="white"/>
<path fill-rule="evenodd" clip-rule="evenodd" d="M13.2888 9.14729H9.15387V13.2822H13.2888V9.14729ZM9.15387 7.51916C8.25468 7.51916 7.52574 8.2481 7.52574 9.14729V13.2822C7.52574 14.1814 8.25468 14.9103 9.15387 14.9103H13.2888C14.1879 14.9103 14.9169 14.1814 14.9169 13.2822V9.14729C14.9169 8.2481 14.1879 7.51916 13.2888 7.51916H9.15387Z" fill="white"/>
<path fill-rule="evenodd" clip-rule="evenodd" d="M13.2888 18.721H9.15387V22.8559H13.2888V18.721ZM9.15387 17.0929C8.25468 17.0929 7.52574 17.8218 7.52574 18.721V22.8559C7.52574 23.7551 8.25468 24.4841 9.15387 24.4841H13.2888C14.1879 24.4841 14.9169 23.7551 14.9169 22.8559V18.721C14.9169 17.8218 14.1879 17.0929 13.2888 17.0929H9.15387Z" fill="white"/>
<path fill-rule="evenodd" clip-rule="evenodd" d="M22.8625 9.14729H18.7276V13.2822H22.8625V9.14729ZM18.7276 7.51916C17.8284 7.51916 17.0995 8.2481 17.0995 9.14729V13.2822C17.0995 14.1814 17.8284 14.9103 18.7276 14.9103H22.8625C23.7617 14.9103 24.4906 14.1814 24.4906 13.2822V9.14729C24.4906 8.2481 23.7617 7.51916 22.8625 7.51916H18.7276Z" fill="white"/>
<path fill-rule="evenodd" clip-rule="evenodd" d="M22.8625 18.721H18.7276V22.8559H22.8625V18.721ZM18.7276 17.0929C17.8284 17.0929 17.0995 17.8218 17.0995 18.721V22.8559C17.0995 23.7551 17.8284 24.4841 18.7276 24.4841H22.8625C23.7617 24.4841 24.4906 23.7551 24.4906 22.8559V18.721C24.4906 17.8218 23.7617 17.0929 22.8625 17.0929H18.7276Z" fill="white"/>
</g>
<defs>
<clipPath id="clip0_344_505">
<rect y="-0.00439453" width="32" height="32" rx="5" fill="white"/>
</clipPath>
</defs>
</svg>
