<svg width="32" height="32" viewBox="0 0 32 32" fill="none" xmlns="http://www.w3.org/2000/svg">
<g clip-path="url(#clip0_344_527)">
<path d="M26.4886 13.8726V25.6658C26.4886 28.1 25.2478 29.329 22.7781 29.329H9.22416C6.75444 29.329 5.51367 28.1 5.51367 25.6658V13.8726C5.51367 11.4383 6.75444 10.2094 9.22416 10.2094H12.781V12.1119H9.24779C8.06611 12.1119 7.41618 12.75 7.41618 13.9789V25.5594C7.41618 26.7884 8.06611 27.4265 9.24779 27.4265H22.7426C23.9125 27.4265 24.5861 26.7884 24.5861 25.5594V13.9789C24.5861 12.75 23.9125 12.1119 22.7426 12.1119H19.2211V10.2094H22.7781C25.2478 10.2094 26.4886 11.4383 26.4886 13.8726Z" fill="white"/>
<path d="M15.9952 20.0804C16.5033 20.0804 16.9405 19.6549 16.9405 19.1586V7.02277L16.8696 5.25024L17.6614 6.08924L19.4575 8.00356C19.623 8.19263 19.8593 8.28716 20.0956 8.28716C20.5801 8.28716 20.9583 7.93266 20.9583 7.44817C20.9583 7.20002 20.8519 7.01095 20.6747 6.8337L16.6806 2.98141C16.4442 2.74507 16.2433 2.66235 15.9952 2.66235C15.7589 2.66235 15.558 2.74507 15.3098 2.98141L11.3157 6.8337C11.1385 7.01095 11.0439 7.20002 11.0439 7.44817C11.0439 7.93266 11.3984 8.28716 11.8947 8.28716C12.1193 8.28716 12.3792 8.19263 12.5447 8.00356L14.329 6.08924L15.1326 5.25024L15.0617 7.02277V19.1586C15.0617 19.6549 15.4871 20.0804 15.9952 20.0804Z" fill="white"/>
</g>
<defs>
<clipPath id="clip0_344_527">
<rect y="-0.00439453" width="32" height="32" rx="5" fill="white"/>
</clipPath>
</defs>
</svg>
