<svg width="32" height="32" viewBox="0 0 32 32" fill="none" xmlns="http://www.w3.org/2000/svg">
<g clip-path="url(#clip0_344_571)">
<path d="M23.7781 29.329C26.2317 29.329 28.2206 27.34 28.2206 24.8865C28.2206 22.4329 26.2317 20.4439 23.7781 20.4439C22.5302 20.4439 21.4024 20.9585 20.5954 21.787L12.5091 17.1644C12.6103 16.792 12.6644 16.4002 12.6644 15.9957C12.6644 15.5912 12.6103 15.1994 12.5091 14.827L20.5965 10.2055C21.4034 11.0333 22.5307 11.5474 23.7781 11.5474C26.2317 11.5474 28.2206 9.55844 28.2206 7.10489C28.2206 4.65135 26.2317 2.66235 23.7781 2.66235C21.3246 2.66235 19.3356 4.65135 19.3356 7.10489C19.3356 7.50937 19.3896 7.90121 19.4909 8.27361L11.4045 12.8962C10.5976 12.0677 9.46979 11.5531 8.22184 11.5531C5.76829 11.5531 3.7793 13.5421 3.7793 15.9957C3.7793 18.4492 5.76829 20.4382 8.22184 20.4382C9.46923 20.4382 10.5965 19.9241 11.4035 19.0962L19.4909 23.7178C19.3896 24.0902 19.3356 24.482 19.3356 24.8865C19.3356 27.34 21.3246 29.329 23.7781 29.329Z" fill="white"/>
</g>
<defs>
<clipPath id="clip0_344_571">
<rect y="-0.00439453" width="32" height="32" rx="5" fill="white"/>
</clipPath>
</defs>
</svg>
