<svg width="32" height="32" viewBox="0 0 32 32" fill="none" xmlns="http://www.w3.org/2000/svg">
<g clip-path="url(#clip0_344_538)">
<path d="M18.6024 29.329C19.5188 29.329 20.168 28.5398 20.639 27.3178L28.9763 5.53904C29.2054 4.95353 29.3327 4.43165 29.3327 3.99887C29.3327 3.1715 28.8235 2.66235 27.9961 2.66235C27.5634 2.66235 27.0415 2.78964 26.4559 3.01875L4.56259 11.407C3.49338 11.8143 2.66602 12.4634 2.66602 13.3926C2.66602 14.5637 3.55702 14.9583 4.77898 15.3275L11.6525 17.4149C12.4671 17.6695 12.9254 17.6441 13.4727 17.1349L27.4361 4.08797C27.6015 3.93523 27.7925 3.96068 27.9198 4.07524C28.0471 4.20253 28.0598 4.39346 27.9071 4.55893L14.911 18.5732C14.4146 19.0951 14.3764 19.5278 14.6183 20.3807L16.6422 27.1015C17.0241 28.3871 17.4186 29.329 18.6024 29.329Z" fill="white"/>
</g>
<defs>
<clipPath id="clip0_344_538">
<rect y="-0.00439453" width="32" height="32" rx="5" fill="white"/>
</clipPath>
</defs>
</svg>
