<svg width="32" height="32" viewBox="0 0 32 32" fill="none" xmlns="http://www.w3.org/2000/svg">
<g clip-path="url(#clip0_344_450)">
<path d="M30.6674 15.9309C30.6674 22.687 25.0637 28.303 18.2954 28.303C16.5821 28.303 14.9421 27.9418 13.45 27.2898C13.852 26.8197 14.1976 26.3009 14.4714 25.7416C15.6817 26.2107 16.9863 26.4593 18.2833 26.4593C21.073 26.4593 23.8749 25.3191 25.7429 23.342C24.4208 21.2557 21.546 20.0671 18.2833 20.0671C17.1529 20.0671 16.0742 20.2104 15.0944 20.4858C14.2836 17.0411 11.1662 14.4511 7.488 14.4511C6.97961 14.4511 6.48165 14.5009 5.99989 14.5992C6.67328 8.44251 11.9762 3.55884 18.2833 3.55884C25.0514 3.55884 30.6674 9.16266 30.6674 15.9309ZM14.1229 13.4322C14.1229 16.04 15.9544 17.9807 18.2833 18.0051C20.6242 18.0293 22.4436 16.04 22.4436 13.4322C22.4436 10.9821 20.6121 8.94432 18.2833 8.94432C15.9665 8.94432 14.1107 10.9821 14.1229 13.4322Z" fill="white"/>
<path d="M13.6575 22.2706C13.6575 25.6426 10.8313 28.4323 7.49576 28.4323C4.12376 28.4323 1.33398 25.6668 1.33398 22.2706C1.33398 18.8986 4.12376 16.1088 7.49576 16.1088C10.8799 16.1088 13.6575 18.8865 13.6575 22.2706ZM4.37849 21.5306C3.96608 21.5306 3.63858 21.8824 3.63858 22.2706C3.63858 22.6587 3.96608 23.0104 4.37849 23.0104H10.613C11.0133 23.0104 11.353 22.6587 11.353 22.2706C11.353 21.8824 11.0133 21.5306 10.613 21.5306H4.37849Z" fill="white"/>
</g>
<defs>
<clipPath id="clip0_344_450">
<rect y="-0.00439453" width="32" height="32" rx="5" fill="white"/>
</clipPath>
</defs>
</svg>
