<svg width="32" height="32" viewBox="0 0 32 32" fill="none" xmlns="http://www.w3.org/2000/svg">
<g clip-path="url(#clip0_344_439)">
<path d="M24.3768 28.2636C24.274 28.2729 24.1662 28.2769 24.055 28.2769H6.0761C4.64154 28.2769 3.78349 27.6068 3.78349 26.4942C3.78349 23.1496 7.83445 18.5762 14.4037 18.293L24.3768 28.2636ZM20.4351 9.94074C20.4351 11.8294 19.6471 13.471 18.4431 14.5439L10.6278 6.73053C11.6061 5.172 13.2647 4.17716 15.0723 4.17716C17.9414 4.17716 20.4351 6.63004 20.4351 9.94074Z" fill="white"/>
<path d="M27.5696 29.0341C27.9719 29.4361 28.6422 29.4228 29.0311 29.0206C29.4332 28.6052 29.4332 27.9618 29.0311 27.5597L4.44245 2.96393C4.04024 2.56183 3.36988 2.56183 2.96767 2.96393C2.56546 3.35264 2.56546 4.03623 2.96767 4.42493L27.5696 29.0341Z" fill="white"/>
</g>
<defs>
<clipPath id="clip0_344_439">
<rect y="-0.00439453" width="32" height="32" rx="5" fill="white"/>
</clipPath>
</defs>
</svg>
