<svg width="32" height="32" viewBox="0 0 32 32" fill="none" xmlns="http://www.w3.org/2000/svg">
<g clip-path="url(#clip0_344_428)">
<path d="M30.6673 15.9303C30.6673 22.6848 25.0648 28.2994 18.2981 28.2994C16.5852 28.2994 14.9456 27.9384 13.4539 27.2865C14.6114 25.9236 15.315 24.1687 15.315 22.2725C15.315 21.634 15.2369 21.0125 15.0813 20.4203C16.0495 20.1876 17.1308 20.0533 18.2981 20.0533C21.9488 20.0533 24.7555 21.3599 25.979 22.8114C27.6182 20.9981 28.6057 18.5869 28.6057 15.9303C28.6057 10.2064 24.0097 5.62256 18.286 5.62256C13.0552 5.62256 8.79683 9.45066 8.11363 14.4826C7.91003 14.4592 7.70254 14.4508 7.49324 14.4508C6.98498 14.4508 6.48713 14.5006 6.00548 14.5989C6.67871 8.44358 11.9804 3.56104 18.286 3.56104C25.0526 3.56104 30.6673 9.16355 30.6673 15.9303ZM22.4575 13.42C22.4575 16.0272 20.6385 18.016 18.2981 17.9918C15.9698 17.9675 14.1508 16.0272 14.1387 13.42C14.1266 10.9704 15.9698 8.94527 18.2981 8.94527C20.6264 8.94527 22.4575 10.9704 22.4575 13.42Z" fill="white"/>
<path d="M13.6547 22.2701C13.6547 25.6413 10.8291 28.4304 7.49433 28.4304C4.12312 28.4304 1.33398 25.6655 1.33398 22.2701C1.33398 18.8989 4.12312 16.1098 7.49433 16.1098C10.8776 16.1098 13.6547 18.8868 13.6547 22.2701ZM6.7546 19.1535V21.5303H4.37778C3.94122 21.5303 3.63805 21.8214 3.63805 22.2701C3.63805 22.7188 3.94122 23.0098 4.37778 23.0098H6.7546V25.3866C6.7546 25.8353 7.04564 26.1263 7.49433 26.1263C7.94302 26.1263 8.23406 25.8353 8.23406 25.3866V23.0098H10.6109C11.0475 23.0098 11.3507 22.7188 11.3507 22.2701C11.3507 21.8214 11.0475 21.5303 10.6109 21.5303H8.23406V19.1535C8.23406 18.717 7.94302 18.4138 7.49433 18.4138C7.04564 18.4138 6.7546 18.717 6.7546 19.1535Z" fill="white"/>
</g>
<defs>
<clipPath id="clip0_344_428">
<rect y="-0.00439453" width="32" height="32" rx="5" fill="white"/>
</clipPath>
</defs>
</svg>
