<svg width="32" height="32" viewBox="0 0 32 32" fill="none" xmlns="http://www.w3.org/2000/svg">
<g clip-path="url(#clip0_344_516)">
<path d="M18.2429 16.8697C16.489 18.3064 15.3633 20.4861 15.3633 22.9096C15.3633 23.5271 15.4361 24.1285 15.5813 24.7027H4.7378C3.44142 24.7027 2.66602 24.097 2.66602 23.0913C2.66602 19.9655 6.57943 15.6523 12.8553 15.6523C14.9305 15.6523 16.747 16.1221 18.2429 16.8697ZM17.7137 8.1284C17.7137 11.1573 15.4602 13.4836 12.8674 13.4836C10.2626 13.4836 8.02116 11.1573 8.02116 8.1527C8.02116 5.18434 10.2747 2.9187 12.8674 2.9187C15.4602 2.9187 17.7137 5.13587 17.7137 8.1284Z" fill="white"/>
<path d="M29.3325 22.9175C29.3325 26.2736 26.5095 29.0723 23.1776 29.0723C19.7974 29.0723 17.0108 26.2978 17.0108 22.9175C17.0108 19.5373 19.7974 16.7628 23.1776 16.7628C26.5459 16.7628 29.3325 19.5373 29.3325 22.9175ZM22.4265 19.8038V22.1664H20.0639C19.6156 22.1664 19.3128 22.4572 19.3128 22.9175C19.3128 23.3658 19.6156 23.6567 20.0639 23.6567H22.4265V26.0312C22.4265 26.4674 22.7172 26.7704 23.1776 26.7704C23.6259 26.7704 23.9167 26.4674 23.9167 26.0312V23.6567H26.2792C26.7275 23.6567 27.0184 23.3658 27.0184 22.9175C27.0184 22.4572 26.7275 22.1664 26.2792 22.1664H23.9167V19.8038C23.9167 19.3676 23.6259 19.0648 23.1776 19.0648C22.7172 19.0648 22.4265 19.3676 22.4265 19.8038Z" fill="white"/>
</g>
<defs>
<clipPath id="clip0_344_516">
<rect y="-0.00439453" width="32" height="32" rx="5" fill="white"/>
</clipPath>
</defs>
</svg>
