<svg width="32" height="32" viewBox="0 0 32 32" fill="none" xmlns="http://www.w3.org/2000/svg">
<g clip-path="url(#clip0_344_417)">
<path d="M29.3327 7.15267V24.8387C29.3327 27.8226 27.8263 29.3291 24.7844 29.3291H7.21428C4.18693 29.3291 2.66602 27.8371 2.66602 24.8387V7.15267C2.66602 4.1543 4.18693 2.66235 7.21428 2.66235H24.7844C27.8263 2.66235 29.3327 4.16879 29.3327 7.15267ZM6.24378 27.1563H25.7839C24.6686 23.4772 20.7576 20.8265 16.0211 20.8265C11.27 20.8265 7.35913 23.4772 6.24378 27.1563ZM11.0528 12.9756C11.0673 16.0754 13.24 18.3785 16.0066 18.4074C18.7732 18.4365 20.9605 16.0754 20.9605 12.9756C20.9605 10.0641 18.7732 7.65965 16.0066 7.65965C13.24 7.65965 11.0383 10.0641 11.0528 12.9756Z" fill="white"/>
</g>
<defs>
<clipPath id="clip0_344_417">
<rect y="-0.00439453" width="32" height="32" rx="5" fill="white"/>
</clipPath>
</defs>
</svg>
