<svg width="32" height="32" viewBox="0 0 32 32" fill="none" xmlns="http://www.w3.org/2000/svg">
<g clip-path="url(#clip0_344_461)">
<path d="M30.6674 15.9321C30.6674 22.6867 25.0649 28.3014 18.2981 28.3014C16.5852 28.3014 14.9456 27.9404 13.4538 27.2884C13.8557 26.8185 14.2013 26.2998 14.475 25.7407C15.685 26.2096 16.9894 26.4582 18.286 26.4582C21.0752 26.4582 23.8764 25.3182 25.744 23.3415C24.4222 21.2557 21.5481 20.0674 18.286 20.0674C17.1559 20.0674 16.0774 20.2107 15.0978 20.4859C14.2873 17.0421 11.1705 14.4526 7.49313 14.4526C6.98485 14.4526 6.487 14.5024 6.00534 14.6007C6.67859 8.44534 11.9803 3.56274 18.286 3.56274C25.0527 3.56274 30.6674 9.16533 30.6674 15.9321ZM14.1266 13.4339C14.1266 16.0412 15.9577 17.9815 18.286 18.0058C20.6265 18.03 22.4455 16.0412 22.4455 13.4339C22.4455 10.9843 20.6144 8.94704 18.286 8.94704C15.9698 8.94704 14.1143 10.9843 14.1266 13.4339Z" fill="white"/>
<path d="M13.6548 22.2682C13.6548 25.6395 10.8292 28.4286 7.4944 28.4286C4.12315 28.4286 1.33398 25.6637 1.33398 22.2682C1.33398 18.897 4.12315 16.1078 7.4944 16.1078C10.8778 16.1078 13.6548 18.8849 13.6548 22.2682ZM9.24066 19.3941L7.47016 21.1768L5.82091 19.5397C5.52986 19.2607 5.06904 19.2729 4.77799 19.5397C4.48695 19.8186 4.49908 20.2915 4.77799 20.5826L6.41511 22.2318L4.63248 24.0145C4.31718 24.3298 4.36569 24.8027 4.66885 25.0938C4.95991 25.3969 5.44497 25.4454 5.76027 25.1301L7.54291 23.3597L9.18003 24.9846C9.47108 25.2756 9.93189 25.2635 10.2229 24.9846C10.5018 24.7057 10.5018 24.2448 10.2229 23.9417L8.58582 22.3045L10.3684 20.522C10.6837 20.2067 10.6231 19.7337 10.3321 19.4305C10.0289 19.1394 9.55596 19.0789 9.24066 19.3941Z" fill="white"/>
</g>
<defs>
<clipPath id="clip0_344_461">
<rect y="-0.00439453" width="32" height="32" rx="5" fill="white"/>
</clipPath>
</defs>
</svg>
