<svg width="32" height="33" viewBox="0 0 32 33" fill="none" xmlns="http://www.w3.org/2000/svg">
<g clip-path="url(#clip0_344_1865)">
<path d="M29.3327 16.4867C29.3327 23.7678 23.2935 29.82 15.9993 29.82C8.71831 29.82 2.66602 23.7678 2.66602 16.4867C2.66602 9.19255 8.70524 3.15332 15.9863 3.15332C23.2805 3.15332 29.3327 9.19255 29.3327 16.4867ZM14.5353 21.8985C14.5353 22.6697 15.2151 23.2972 15.9993 23.2972C16.7836 23.2972 17.4634 22.6828 17.4634 21.8985C17.4634 21.1142 16.7968 20.4867 15.9993 20.4867C15.202 20.4867 14.5353 21.1272 14.5353 21.8985ZM14.7575 10.722L14.9275 17.8462C14.9405 18.539 15.3197 18.918 15.9993 18.918C16.653 18.918 17.0321 18.5521 17.0451 17.8462L17.2282 10.735C17.2412 10.0422 16.7052 9.53242 15.9863 9.53242C15.2543 9.53242 14.7444 10.0291 14.7575 10.722Z" fill="white"/>
</g>
<defs>
<clipPath id="clip0_344_1865">
<rect y="0.486572" width="32" height="32" rx="5" fill="white"/>
</clipPath>
</defs>
</svg>
