<svg width="32" height="33" viewBox="0 0 32 33" fill="none" xmlns="http://www.w3.org/2000/svg">
<g clip-path="url(#clip0_344_2008)">
<path d="M3.10123 29.3846C3.6899 29.9565 4.6654 29.9565 5.23725 29.3846L16.0014 18.6204L26.7656 29.3846C27.3375 29.9565 28.3298 29.9733 28.9016 29.3846C29.4734 28.796 29.4734 27.8373 28.9016 27.2655L18.1375 16.4844L28.9016 5.72023C29.4734 5.14838 29.4904 4.17288 28.9016 3.60103C28.3129 3.01236 27.3375 3.01236 26.7656 3.60103L16.0014 14.3652L5.23725 3.60103C4.6654 3.01236 3.67308 2.99554 3.10123 3.60103C2.52938 4.18969 2.52938 5.14838 3.10123 5.72023L13.8654 16.4844L3.10123 27.2655C2.52938 27.8373 2.51256 28.8128 3.10123 29.3846Z" fill="white"/>
</g>
<defs>
<clipPath id="clip0_344_2008">
<rect y="0.486572" width="32" height="32" rx="5" fill="white"/>
</clipPath>
</defs>
</svg>
