<svg width="32" height="33" viewBox="0 0 32 33" fill="none" xmlns="http://www.w3.org/2000/svg">
<g clip-path="url(#clip0_344_1997)">
<path d="M13.4057 26.9799C13.9382 26.9799 14.3591 26.7446 14.6563 26.2865L26.3568 7.86285C26.5797 7.50379 26.6663 7.2314 26.6663 6.94663C26.6663 6.26563 26.2206 5.81991 25.5396 5.81991C25.0443 5.81991 24.7719 5.98087 24.4748 6.45137L13.3562 24.1693L7.58644 16.6166C7.2769 16.1832 6.96737 16.0099 6.52163 16.0099C5.81589 16.0099 5.33301 16.4928 5.33301 17.1737C5.33301 17.4586 5.45682 17.7805 5.69207 18.0776L12.1181 26.2618C12.4895 26.7446 12.8733 26.9799 13.4057 26.9799Z" fill="white"/>
<path fill-rule="evenodd" clip-rule="evenodd" d="M14.8801 26.4316C14.5358 26.9623 14.0324 27.2466 13.4058 27.2466C13.0973 27.2466 12.822 27.1776 12.5695 27.0335C12.3205 26.8915 12.1066 26.6839 11.9075 26.4253C11.9073 26.425 11.9078 26.4257 11.9075 26.4253L5.48307 18.2431C5.48298 18.243 5.48317 18.2432 5.48307 18.2431C5.22068 17.9116 5.06641 17.5328 5.06641 17.1737C5.06641 16.7683 5.2113 16.4068 5.47559 16.1465C5.73971 15.8863 6.1066 15.7432 6.5217 15.7432C6.78146 15.7432 7.01754 15.7944 7.23679 15.9188C7.45199 16.0409 7.63291 16.2234 7.80095 16.458L13.3348 23.7018L24.249 6.30961C24.4084 6.05715 24.5785 5.85924 24.797 5.72977C25.0188 5.59836 25.2627 5.55322 25.5397 5.55322C25.9395 5.55322 26.2929 5.68525 26.547 5.93931C26.801 6.19338 26.9331 6.54675 26.9331 6.94661C26.9331 7.29608 26.8233 7.61706 26.5834 8.0035L26.582 8.0058L14.8801 26.4316ZM24.4748 6.45137C24.7719 5.98087 25.0443 5.81991 25.5396 5.81991C26.2206 5.81991 26.6663 6.26563 26.6663 6.94663C26.6663 7.2314 26.5797 7.50379 26.3568 7.86285L14.6563 26.2865C14.3591 26.7446 13.9382 26.9799 13.4057 26.9799C12.8733 26.9799 12.4895 26.7446 12.1181 26.2618L5.69207 18.0776C5.45682 17.7805 5.33301 17.4586 5.33301 17.1737C5.33301 16.4928 5.81589 16.0099 6.52163 16.0099C6.96737 16.0099 7.2769 16.1832 7.58644 16.6166L13.3562 24.1693L24.4748 6.45137Z" fill="white"/>
</g>
<defs>
<clipPath id="clip0_344_1997">
<rect y="0.486572" width="32" height="32" rx="5" fill="white"/>
</clipPath>
</defs>
</svg>
