<svg width="32" height="33" viewBox="0 0 32 33" fill="none" xmlns="http://www.w3.org/2000/svg">
<g clip-path="url(#clip0_344_2074)">
<g clip-path="url(#clip1_344_2074)">
<path d="M25.4288 7.05848C30.5773 12.207 30.5866 20.7569 25.4288 25.9147C20.2803 31.0631 11.7212 31.0632 6.57262 25.9147C1.41491 20.7569 1.41491 12.2162 6.56339 7.06771C11.7212 1.90995 20.2711 1.90077 25.4288 7.05848ZM11.4993 13.5934L14.3924 16.4866L11.4993 19.3797C11.0186 19.8604 11.0187 20.5259 11.4993 21.0065C11.9707 21.4779 12.6177 21.4594 13.0983 20.9788L15.9915 18.0856L18.8939 20.988C19.3653 21.4594 20.0309 21.4779 20.5022 21.0065C20.9829 20.5259 20.9829 19.8603 20.5022 19.3797L17.5998 16.4773L20.5021 13.575C20.9736 13.1035 21.0013 12.4473 20.5299 11.9758C20.0493 11.4952 19.3745 11.5045 18.9031 11.9759L16.0008 14.8782L13.1076 11.9851C12.627 11.5044 11.98 11.5229 11.4993 12.0036C11.0279 12.475 11.0186 13.1128 11.4993 13.5934Z" fill="white"/>
</g>
</g>
<defs>
<clipPath id="clip0_344_2074">
<rect y="0.486572" width="32" height="32" rx="5" fill="white"/>
</clipPath>
<clipPath id="clip1_344_2074">
<rect width="32" height="32" fill="white" transform="translate(0 0.486572)"/>
</clipPath>
</defs>
</svg>
