<svg width="32" height="33" viewBox="0 0 32 33" fill="none" xmlns="http://www.w3.org/2000/svg">
<g clip-path="url(#clip0_344_1909)">
<path d="M29.3327 16.4867C29.3327 23.7678 23.2935 29.82 15.9993 29.82C8.71831 29.82 2.66602 23.7678 2.66602 16.4867C2.66602 9.19255 8.70524 3.15332 15.9863 3.15332C23.2805 3.15332 29.3327 9.19255 29.3327 16.4867ZM20.0648 11.2971L14.4831 20.2644L11.8294 16.8396C11.5026 16.4082 11.215 16.2906 10.836 16.2906C10.2477 16.2906 9.79021 16.7742 9.79021 17.3625C9.79021 17.6631 9.90786 17.9507 10.1039 18.2122L13.385 22.2384C13.7249 22.6958 14.0909 22.8789 14.5353 22.8789C14.9798 22.8789 15.3588 22.6697 15.6334 22.2384L21.7772 12.5651C21.934 12.2906 22.104 11.9899 22.104 11.7024C22.104 11.088 21.568 10.6958 20.9929 10.6958C20.653 10.6958 20.3131 10.905 20.0648 11.2971Z" fill="white"/>
</g>
<defs>
<clipPath id="clip0_344_1909">
<rect y="0.486572" width="32" height="32" rx="5" fill="white"/>
</clipPath>
</defs>
</svg>
