<svg width="32" height="33" viewBox="0 0 32 33" fill="none" xmlns="http://www.w3.org/2000/svg">
<g clip-path="url(#clip0_344_2063)">
<path d="M20.7446 10.7325C20.3134 10.7325 19.9255 11.0063 19.6539 11.4209L14.5126 19.6716L12.2016 16.6803C12.0324 16.455 11.8577 16.2974 11.6606 16.1989C11.462 16.0996 11.2607 16.0704 11.0569 16.0704C10.3635 16.0704 9.82347 16.6355 9.82347 17.3295C9.82347 17.6802 9.96659 17.9999 10.1662 18.2707L13.3019 22.1261C13.6599 22.5971 14.0733 22.8228 14.5855 22.8228C15.1015 22.8228 15.5344 22.5671 15.8311 22.1075L15.832 22.1061L21.6963 12.8806L21.7038 12.8669L21.7305 12.8187C21.7926 12.7064 21.8642 12.5769 21.9211 12.4446C21.9869 12.2917 22.0421 12.1155 22.0421 11.9275C22.0421 11.1772 21.3784 10.7325 20.7446 10.7325Z" fill="white"/>
<path fill-rule="evenodd" clip-rule="evenodd" d="M15.9865 3.15332C8.7038 3.15332 2.66602 9.19142 2.66602 16.4867C2.66602 23.7693 8.71679 29.82 15.9993 29.82C23.295 29.82 29.3327 23.7691 29.3327 16.4867C29.3327 9.19095 23.2817 3.15332 15.9865 3.15332ZM5.35098 16.4867C5.35098 10.5651 10.0664 5.82545 15.9865 5.82545C21.9078 5.82545 26.6607 10.5662 26.6607 16.4867C26.6607 22.4076 21.9203 27.148 15.9993 27.148C10.0789 27.148 5.35098 22.4079 5.35098 16.4867Z" fill="white"/>
</g>
<defs>
<clipPath id="clip0_344_2063">
<rect y="0.486572" width="32" height="32" rx="5" fill="white"/>
</clipPath>
</defs>
</svg>
