<svg width="32" height="33" viewBox="0 0 32 33" fill="none" xmlns="http://www.w3.org/2000/svg">
<g clip-path="url(#clip0_344_2085)">
<path d="M5.43431 29.8199C5.98085 29.8199 6.4233 29.3714 6.4233 28.8005V21.2436C6.74862 21.0941 7.97185 20.6048 9.88477 20.6048C14.6996 20.6048 17.7186 23.0649 22.2992 23.0649C24.3292 23.0649 25.084 22.8338 26.073 22.3717C26.9709 21.9504 27.5564 21.2436 27.5564 19.9931V6.19771C27.5564 5.46377 26.9579 5.04242 26.2031 5.04242C25.5655 5.04242 24.3683 5.61327 22.13 5.61327C17.5494 5.61327 14.5434 3.1532 9.71559 3.1532C7.68556 3.1532 6.91779 3.38426 5.9288 3.84637C5.0309 4.26771 4.44531 4.97447 4.44531 6.21131V28.8005C4.44531 29.3578 4.90077 29.8199 5.43431 29.8199ZM22.2992 21.0126C17.9658 21.0126 14.8948 18.5525 9.88477 18.5525C8.45332 18.5525 7.15203 18.7291 6.4233 19.0417V6.27926C6.60548 5.83074 7.68556 5.20553 9.71559 5.20553C14.2962 5.20553 17.3543 7.6656 22.13 7.6656C23.5485 7.6656 24.7197 7.48891 25.5915 7.23067V19.9388C25.4094 20.3873 24.3292 21.0126 22.2992 21.0126Z" fill="white"/>
</g>
<defs>
<clipPath id="clip0_344_2085">
<rect y="0.486572" width="32" height="32" rx="5" fill="white"/>
</clipPath>
</defs>
</svg>
