<svg width="32" height="33" viewBox="0 0 32 33" fill="none" xmlns="http://www.w3.org/2000/svg">
<g clip-path="url(#clip0_344_2107)">
<path d="M12.1411 18.0519C14.209 18.0523 15.9775 19.3957 16.6259 21.2747H27.1982C28.0921 21.2747 28.7988 21.9568 28.7992 22.827C28.7992 23.6741 28.0923 24.3811 27.1982 24.3811H16.6328C15.9911 26.2485 14.2175 27.6036 12.1411 27.6039C10.0643 27.6039 8.2893 26.2488 7.64754 24.3811H4.68199C3.882 24.3811 3.19922 23.6741 3.19922 22.827C3.19962 21.9568 3.88223 21.2747 4.68199 21.2747H7.65449C8.30291 19.3955 10.0728 18.0519 12.1411 18.0519ZM12.1411 20.4977C10.847 20.4977 9.81179 21.5337 9.81173 22.8514C9.81173 24.1689 10.847 25.1807 12.1411 25.1807C13.4583 25.1803 14.4704 24.1687 14.4704 22.8514C14.4703 21.534 13.4583 20.4981 12.1411 20.4977ZM19.8348 5.36926C21.9111 5.36948 23.6847 6.72479 24.3266 8.59208H27.2938C28.0935 8.5925 28.7992 9.29932 28.7992 10.1461C28.799 11.0162 28.0933 11.698 27.2938 11.6984H24.3144C23.6626 13.5595 21.8984 14.8984 19.8348 14.8986C17.7709 14.8986 16.0052 13.5598 15.3534 11.6984H4.77586C3.88191 11.6984 3.19945 11.0165 3.19922 10.1461C3.19922 9.29906 3.88176 8.59208 4.77586 8.59208H15.3413C15.9831 6.72452 17.7581 5.36926 19.8348 5.36926ZM19.8348 7.79246C18.5174 7.79246 17.5056 8.78081 17.5055 10.1218C17.5055 11.4394 18.5173 12.4754 19.8348 12.4754C21.1288 12.4752 22.1641 11.4392 22.1641 10.1218C22.1639 8.78099 21.1287 7.79272 19.8348 7.79246Z" fill="white"/>
</g>
<defs>
<clipPath id="clip0_344_2107">
<rect y="0.486572" width="32" height="32" rx="5" fill="white"/>
</clipPath>
</defs>
</svg>
