<svg width="32" height="33" viewBox="0 0 32 33" fill="none" xmlns="http://www.w3.org/2000/svg">
<g clip-path="url(#clip0_344_1898)">
<path opacity="0.8" d="M15.9993 29.0879C19.6333 29.0879 22.6007 23.7153 22.6007 16.5127C22.6007 9.27086 19.6465 3.8983 15.9993 3.8983C12.3523 3.8983 9.39806 9.27086 9.39806 16.5127C9.39806 23.7153 12.3654 29.0879 15.9993 29.0879ZM15.9993 5.48C18.5615 5.48 20.8491 10.578 20.8491 16.5127C20.8491 22.3428 18.5615 27.4931 15.9993 27.4931C13.4373 27.4931 11.1497 22.3428 11.1497 16.5127C11.1497 10.578 13.4373 5.48 15.9993 5.48ZM15.1497 4.0813V28.8395H16.8622V4.0813H15.1497ZM15.9993 21.4016C11.9732 21.4016 8.40459 22.4604 6.57452 24.1467L7.89478 25.2317C9.62028 23.8591 12.4307 23.114 15.9993 23.114C19.568 23.114 22.3785 23.8591 24.104 25.2317L25.4242 24.1467C23.5941 22.4604 20.0255 21.4016 15.9993 21.4016ZM28.0647 15.6238H3.93399V17.3362H28.0647V15.6238ZM15.9993 11.6369C20.0255 11.6369 23.5941 10.578 25.4242 8.89177L24.104 7.80681C22.3785 9.16628 19.568 9.92445 15.9993 9.92445C12.4307 9.92445 9.62028 9.16628 7.89478 7.80681L6.57452 8.89177C8.40459 10.578 11.9732 11.6369 15.9993 11.6369ZM15.9993 29.8199C23.2935 29.8199 29.3327 23.7677 29.3327 16.4865C29.3327 9.19242 23.2805 3.1532 15.9863 3.1532C8.70524 3.1532 2.66602 9.19242 2.66602 16.4865C2.66602 23.7677 8.71831 29.8199 15.9993 29.8199ZM15.9993 28.0421C9.68564 28.0421 4.4438 22.8003 4.4438 16.4865C4.4438 10.1728 9.67257 4.93098 15.9863 4.93098C22.3001 4.93098 27.555 10.1728 27.555 16.4865C27.555 22.8003 22.3131 28.0421 15.9993 28.0421Z" fill="white"/>
</g>
<defs>
<clipPath id="clip0_344_1898">
<rect y="0.486572" width="32" height="32" rx="5" fill="white"/>
</clipPath>
</defs>
</svg>
