<svg width="32" height="33" viewBox="0 0 32 33" fill="none" xmlns="http://www.w3.org/2000/svg">
<g clip-path="url(#clip0_344_2096)">
<path fill-rule="evenodd" clip-rule="evenodd" d="M8.60283 3.15332C8.62434 3.15332 8.64592 3.15332 8.66757 3.15332C8.68923 3.15332 8.71081 3.15332 8.73231 3.15332C9.61325 3.15328 10.3729 3.15325 10.9931 3.21634C11.6507 3.28324 12.2977 3.43194 12.8896 3.8274C13.3263 4.11922 13.7013 4.49419 13.9931 4.93093C14.3886 5.52278 14.5373 6.16976 14.6042 6.82737C14.6672 7.44755 14.6672 8.20724 14.6672 9.08817V9.21768C14.6672 10.0986 14.6672 10.8583 14.6042 11.4785C14.5373 12.1361 14.3886 12.7831 13.9931 13.3749C13.7013 13.8117 13.3263 14.1866 12.8896 14.4784C12.2977 14.8739 11.6507 15.0226 10.9931 15.0895C10.3729 15.1526 9.61326 15.1526 8.73233 15.1525H8.60282C7.72189 15.1526 6.9622 15.1526 6.34202 15.0895C5.68441 15.0226 5.03743 14.8739 4.44557 14.4784C4.00884 14.1866 3.63386 13.8117 3.34205 13.3749C2.94658 12.7831 2.79789 12.1361 2.73099 11.4785C2.6679 10.8583 2.66793 10.0986 2.66797 9.21767C2.66797 9.19616 2.66797 9.17458 2.66797 9.15293C2.66797 9.13127 2.66797 9.10969 2.66797 9.08819C2.66793 8.20725 2.6679 7.44756 2.73099 6.82737C2.79789 6.16976 2.94658 5.52278 3.34205 4.93093C3.63386 4.49419 4.00884 4.11922 4.44557 3.8274C5.03743 3.43194 5.68441 3.28324 6.34202 3.21634C6.96221 3.15325 7.7219 3.15328 8.60283 3.15332ZM6.61188 5.86914C6.16511 5.91459 6.00769 5.99059 5.927 6.04451C5.78142 6.14178 5.65643 6.26677 5.55915 6.41235C5.50523 6.49304 5.42924 6.65046 5.38379 7.09723C5.33607 7.56629 5.33446 8.18893 5.33446 9.15293C5.33446 10.1169 5.33607 10.7396 5.38379 11.2086C5.42924 11.6554 5.50523 11.8128 5.55915 11.8935C5.65643 12.0391 5.78142 12.1641 5.927 12.2613C6.00769 12.3153 6.16511 12.3913 6.61188 12.4367C7.08094 12.4844 7.70358 12.486 8.66757 12.486C9.63157 12.486 10.2542 12.4844 10.7233 12.4367C11.17 12.3913 11.3275 12.3153 11.4082 12.2613C11.5537 12.1641 11.6787 12.0391 11.776 11.8935C11.8299 11.8128 11.9059 11.6554 11.9514 11.2086C11.9991 10.7396 12.0007 10.1169 12.0007 9.15293C12.0007 8.18893 11.9991 7.56629 11.9514 7.09723C11.9059 6.65046 11.8299 6.49304 11.776 6.41235C11.6787 6.26677 11.5537 6.14178 11.4082 6.04451C11.3275 5.99059 11.17 5.91459 10.7233 5.86914C10.2542 5.82143 9.63157 5.81981 8.66757 5.81981C7.70358 5.81981 7.08094 5.82143 6.61188 5.86914Z" fill="white"/>
<path fill-rule="evenodd" clip-rule="evenodd" d="M8.60283 17.8207C8.62434 17.8207 8.64592 17.8207 8.66757 17.8207C8.68923 17.8207 8.71081 17.8207 8.73231 17.8207C9.61325 17.8207 10.3729 17.8207 10.9931 17.8838C11.6507 17.9506 12.2977 18.0993 12.8896 18.4948C13.3263 18.7866 13.7013 19.1616 13.9931 19.5983C14.3886 20.1902 14.5373 20.8372 14.6042 21.4948C14.6672 22.115 14.6672 22.8746 14.6672 23.7556V23.8851C14.6672 24.766 14.6672 25.5257 14.6042 26.1459C14.5373 26.8035 14.3886 27.4505 13.9931 28.0423C13.7013 28.4791 13.3263 28.854 12.8896 29.1459C12.2977 29.5413 11.6507 29.69 10.9931 29.7569C10.3729 29.82 9.61326 29.82 8.73233 29.8199H8.60282C7.72189 29.82 6.9622 29.82 6.34202 29.7569C5.68441 29.69 5.03743 29.5413 4.44557 29.1459C4.00884 28.854 3.63386 28.4791 3.34205 28.0423C2.94658 27.4505 2.79789 26.8035 2.73099 26.1459C2.6679 25.5257 2.66793 24.766 2.66797 23.8851C2.66797 23.8636 2.66797 23.842 2.66797 23.8203C2.66797 23.7987 2.66797 23.7771 2.66797 23.7556C2.66793 22.8747 2.6679 22.115 2.73099 21.4948C2.79789 20.8372 2.94658 20.1902 3.34205 19.5983C3.63386 19.1616 4.00884 18.7866 4.44557 18.4948C5.03743 18.0993 5.68441 17.9506 6.34202 17.8838C6.96221 17.8207 7.7219 17.8207 8.60283 17.8207ZM6.61188 20.5366C6.16511 20.582 6.00769 20.658 5.927 20.7119C5.78142 20.8092 5.65643 20.9342 5.55915 21.0798C5.50523 21.1605 5.42924 21.3179 5.38379 21.7646C5.33607 22.2337 5.33446 22.8563 5.33446 23.8203C5.33446 24.7843 5.33607 25.407 5.38379 25.876C5.42924 26.3228 5.50523 26.4802 5.55915 26.5609C5.65643 26.7065 5.78142 26.8315 5.927 26.9288C6.00769 26.9827 6.16511 27.0587 6.61188 27.1041C7.08094 27.1518 7.70358 27.1534 8.66757 27.1534C9.63157 27.1534 10.2542 27.1518 10.7233 27.1041C11.17 27.0587 11.3275 26.9827 11.4082 26.9288C11.5537 26.8315 11.6787 26.7065 11.776 26.5609C11.8299 26.4802 11.9059 26.3228 11.9514 25.876C11.9991 25.407 12.0007 24.7843 12.0007 23.8203C12.0007 22.8563 11.9991 22.2337 11.9514 21.7646C11.9059 21.3179 11.8299 21.1605 11.776 21.0798C11.6787 20.9342 11.5537 20.8092 11.4082 20.7119C11.3275 20.658 11.17 20.582 10.7233 20.5366C10.2542 20.4888 9.63157 20.4872 8.66757 20.4872C7.70358 20.4872 7.08094 20.4888 6.61188 20.5366Z" fill="white"/>
<path fill-rule="evenodd" clip-rule="evenodd" d="M23.2689 3.15332C23.2904 3.15332 23.312 3.15332 23.3336 3.15332C23.3553 3.15332 23.3768 3.15332 23.3984 3.15332C24.2793 3.15328 25.039 3.15325 25.6592 3.21634C26.3168 3.28324 26.9638 3.43194 27.5556 3.8274C27.9923 4.11922 28.3673 4.49419 28.6591 4.93093C29.0546 5.52278 29.2033 6.16976 29.2702 6.82737C29.3333 7.44755 29.3333 8.20724 29.3332 9.08817V9.21768C29.3333 10.0986 29.3333 10.8583 29.2702 11.4785C29.2033 12.1361 29.0546 12.7831 28.6591 13.3749C28.3673 13.8117 27.9923 14.1866 27.5556 14.4784C26.9638 14.8739 26.3168 15.0226 25.6592 15.0895C25.039 15.1526 24.2793 15.1526 23.3984 15.1525H23.2689C22.3879 15.1526 21.6282 15.1526 21.0081 15.0895C20.3504 15.0226 19.7035 14.8739 19.1116 14.4784C18.6749 14.1866 18.2999 13.8117 18.0081 13.3749C17.6126 12.7831 17.4639 12.1361 17.397 11.4785C17.3339 10.8583 17.334 10.0986 17.334 9.21767C17.334 9.19616 17.334 9.17458 17.334 9.15293C17.334 9.13127 17.334 9.10969 17.334 9.08819C17.334 8.20725 17.3339 7.44756 17.397 6.82737C17.4639 6.16976 17.6126 5.52278 18.0081 4.93093C18.2999 4.49419 18.6749 4.11922 19.1116 3.8274C19.7035 3.43194 20.3504 3.28324 21.0081 3.21634C21.6282 3.15325 22.3879 3.15328 23.2689 3.15332ZM21.2779 5.86914C20.8311 5.91459 20.6737 5.99059 20.593 6.04451C20.4475 6.14178 20.3225 6.26677 20.2252 6.41235C20.1713 6.49304 20.0953 6.65046 20.0498 7.09723C20.0021 7.56629 20.0005 8.18893 20.0005 9.15293C20.0005 10.1169 20.0021 10.7396 20.0498 11.2086C20.0953 11.6554 20.1713 11.8128 20.2252 11.8935C20.3225 12.0391 20.4475 12.1641 20.593 12.2613C20.6737 12.3153 20.8311 12.3913 21.2779 12.4367C21.747 12.4844 22.3696 12.486 23.3336 12.486C24.2976 12.486 24.9202 12.4844 25.3893 12.4367C25.8361 12.3913 25.9935 12.3153 26.0742 12.2613C26.2198 12.1641 26.3448 12.0391 26.442 11.8935C26.496 11.8128 26.5719 11.6554 26.6174 11.2086C26.6651 10.7396 26.6667 10.1169 26.6667 9.15293C26.6667 8.18893 26.6651 7.56629 26.6174 7.09723C26.5719 6.65046 26.496 6.49304 26.442 6.41235C26.3448 6.26677 26.2198 6.14178 26.0742 6.04451C25.9935 5.99059 25.8361 5.91459 25.3893 5.86914C24.9202 5.82143 24.2976 5.81981 23.3336 5.81981C22.3696 5.81981 21.747 5.82143 21.2779 5.86914Z" fill="white"/>
<path fill-rule="evenodd" clip-rule="evenodd" d="M23.2689 17.8207C23.2904 17.8207 23.312 17.8207 23.3336 17.8207C23.3553 17.8207 23.3768 17.8207 23.3984 17.8207C24.2793 17.8207 25.039 17.8207 25.6592 17.8838C26.3168 17.9506 26.9638 18.0993 27.5556 18.4948C27.9923 18.7866 28.3673 19.1616 28.6591 19.5983C29.0546 20.1902 29.2033 20.8372 29.2702 21.4948C29.3333 22.115 29.3333 22.8746 29.3332 23.7556V23.8851C29.3333 24.766 29.3333 25.5257 29.2702 26.1459C29.2033 26.8035 29.0546 27.4505 28.6591 28.0423C28.3673 28.4791 27.9923 28.854 27.5556 29.1459C26.9638 29.5413 26.3168 29.69 25.6592 29.7569C25.039 29.82 24.2793 29.82 23.3984 29.8199H23.2689C22.3879 29.82 21.6282 29.82 21.0081 29.7569C20.3504 29.69 19.7035 29.5413 19.1116 29.1459C18.6749 28.854 18.2999 28.4791 18.0081 28.0423C17.6126 27.4505 17.4639 26.8035 17.397 26.1459C17.3339 25.5257 17.334 24.766 17.334 23.8851C17.334 23.8636 17.334 23.842 17.334 23.8203C17.334 23.7987 17.334 23.7771 17.334 23.7556C17.334 22.8747 17.3339 22.115 17.397 21.4948C17.4639 20.8372 17.6126 20.1902 18.0081 19.5983C18.2999 19.1616 18.6749 18.7866 19.1116 18.4948C19.7035 18.0993 20.3504 17.9506 21.0081 17.8838C21.6282 17.8207 22.3879 17.8207 23.2689 17.8207ZM21.2779 20.5366C20.8311 20.582 20.6737 20.658 20.593 20.7119C20.4475 20.8092 20.3225 20.9342 20.2252 21.0798C20.1713 21.1605 20.0953 21.3179 20.0498 21.7646C20.0021 22.2337 20.0005 22.8563 20.0005 23.8203C20.0005 24.7843 20.0021 25.407 20.0498 25.876C20.0953 26.3228 20.1713 26.4802 20.2252 26.5609C20.3225 26.7065 20.4475 26.8315 20.593 26.9288C20.6737 26.9827 20.8311 27.0587 21.2779 27.1041C21.747 27.1518 22.3696 27.1534 23.3336 27.1534C24.2976 27.1534 24.9202 27.1518 25.3893 27.1041C25.8361 27.0587 25.9935 26.9827 26.0742 26.9288C26.2198 26.8315 26.3448 26.7065 26.442 26.5609C26.496 26.4802 26.5719 26.3228 26.6174 25.876C26.6651 25.407 26.6667 24.7843 26.6667 23.8203C26.6667 22.8563 26.6651 22.2337 26.6174 21.7646C26.5719 21.3179 26.496 21.1605 26.442 21.0798C26.3448 20.9342 26.2198 20.8092 26.0742 20.7119C25.9935 20.658 25.8361 20.582 25.3893 20.5366C24.9202 20.4888 24.2976 20.4872 23.3336 20.4872C22.3696 20.4872 21.747 20.4888 21.2779 20.5366Z" fill="white"/>
</g>
<defs>
<clipPath id="clip0_344_2096">
<rect y="0.486572" width="32" height="32" rx="5" fill="white"/>
</clipPath>
</defs>
</svg>
