<svg width="32" height="33" viewBox="0 0 32 33" fill="none" xmlns="http://www.w3.org/2000/svg">
<g clip-path="url(#clip0_344_1821)">
<path fill-rule="evenodd" clip-rule="evenodd" d="M18.6798 4.63295C17.0996 3.43973 14.9204 3.43973 13.3402 4.63295L4.42908 11.3617C3.12363 12.3474 2.4665 13.9724 2.71948 15.5894L4.26766 25.485C4.60541 27.6439 6.46367 29.2351 8.64708 29.2351H23.2593C25.4279 29.2351 27.2781 27.6649 27.6325 25.5237L29.273 15.612C29.5425 13.9834 28.8863 12.3398 27.5696 11.3456L18.6798 4.63295ZM15.9989 20.3673C18.0741 20.3673 19.7564 18.6849 19.7564 16.6097C19.7564 14.5344 18.0741 12.8521 15.9989 12.8521C13.9236 12.8521 12.2413 14.5344 12.2413 16.6097C12.2413 18.6849 13.9236 20.3673 15.9989 20.3673Z" fill="white"/>
</g>
<defs>
<clipPath id="clip0_344_1821">
<rect y="0.486572" width="32" height="32" rx="5" fill="white"/>
</clipPath>
</defs>
</svg>
