<svg width="32" height="33" viewBox="0 0 32 33" fill="none" xmlns="http://www.w3.org/2000/svg">
<g clip-path="url(#clip0_344_1843)">
<path d="M15.9993 29.82C23.2935 29.82 29.3327 23.7678 29.3327 16.4867C29.3327 9.19255 23.2805 3.15332 15.9863 3.15332C8.70524 3.15332 2.66602 9.19255 2.66602 16.4867C2.66602 23.7678 8.71831 29.82 15.9993 29.82ZM15.9993 27.5979C9.82943 27.5979 4.90132 22.6567 4.90132 16.4867C4.90132 10.3167 9.81636 5.37555 15.9863 5.37555C22.1563 5.37555 27.1106 10.3167 27.1106 16.4867C27.1106 22.6567 22.1694 27.5979 15.9993 27.5979Z" fill="white"/>
<path d="M15.7146 19.1771C16.3683 19.1771 16.7734 18.7588 16.7734 18.249C16.7734 18.1967 16.7734 18.1313 16.7734 18.092C16.7734 17.3601 17.1917 16.8894 18.1068 16.2882C19.3748 15.4516 20.2768 14.6934 20.2768 13.1248C20.2768 10.9548 18.3421 9.77835 16.1199 9.77835C13.8715 9.77835 12.3944 10.8502 12.0414 12.0529C11.9761 12.262 11.9368 12.4712 11.9368 12.6934C11.9368 13.2816 12.3944 13.5954 12.8257 13.5954C13.2702 13.5954 13.5578 13.3862 13.7931 13.0725L14.0283 12.7588C14.4859 12.0006 15.1656 11.5561 16.0414 11.5561C17.231 11.5561 18.0022 12.2359 18.0022 13.2293C18.0022 14.1182 17.4532 14.5496 16.316 15.347C15.3747 16.0005 14.6688 16.6934 14.6688 17.9745C14.6688 18.0268 14.6688 18.092 14.6688 18.1444C14.6688 18.8241 15.048 19.1771 15.7146 19.1771ZM15.6885 23.0725C16.4467 23.0725 17.1002 22.4712 17.1002 21.713C17.1002 20.9549 16.4597 20.3535 15.6885 20.3535C14.9173 20.3535 14.2768 20.9679 14.2768 21.713C14.2768 22.4581 14.9303 23.0725 15.6885 23.0725Z" fill="white"/>
</g>
<defs>
<clipPath id="clip0_344_1843">
<rect y="0.486572" width="32" height="32" rx="5" fill="white"/>
</clipPath>
</defs>
</svg>
