<svg width="32" height="33" viewBox="0 0 32 33" fill="none" xmlns="http://www.w3.org/2000/svg">
<g clip-path="url(#clip0_344_2052)">
<path d="M6.05859 21.064C6.05859 26.5645 9.66321 29.8199 14.6149 29.8199C18.5812 29.8199 21.0383 28.161 22.6722 24.8308C23.6327 22.9848 24.3685 20.7647 25.1543 18.1953C25.4786 17.1475 25.9401 15.813 25.9401 15.2143C25.9401 14.5408 25.4536 14.0917 24.7428 14.0917C23.957 14.0917 23.4955 14.5907 22.9092 15.7756L21.1755 19.4176C21.0009 19.8167 20.8013 19.9664 20.6017 19.9664C20.3398 19.9664 20.1653 19.8167 20.1653 19.3802V6.29632C20.1653 5.56043 19.5666 4.96174 18.8307 4.96174C18.0948 4.96174 17.4961 5.56043 17.4961 6.29632V15.6509C17.1594 15.5261 16.7851 15.4263 16.386 15.3515V4.50025C16.386 3.76436 15.7873 3.1532 15.0514 3.1532C14.3155 3.1532 13.7044 3.76436 13.7044 4.50025V15.2143C13.3177 15.2393 12.9186 15.3017 12.5319 15.364V5.56043C12.5319 4.82454 11.9332 4.22585 11.1973 4.22585C10.4615 4.22585 9.86277 4.82454 9.86277 5.56043V16.2121C9.45117 16.4117 9.07699 16.6237 8.74023 16.8482V9.43944C8.74023 8.70355 8.14154 8.10486 7.40564 8.10486C6.66976 8.10486 6.05859 8.70355 6.05859 9.43944V21.064Z" fill="white"/>
</g>
<defs>
<clipPath id="clip0_344_2052">
<rect y="0.486572" width="32" height="32" rx="5" fill="white"/>
</clipPath>
</defs>
</svg>
