<svg width="32" height="33" viewBox="0 0 32 33" fill="none" xmlns="http://www.w3.org/2000/svg">
<g clip-path="url(#clip0_344_1920)">
<path d="M16.009 3.15332C8.63755 3.14813 2.66082 9.12484 2.66602 16.4963C2.67113 23.7442 8.74181 29.8149 15.9897 29.82C23.3612 29.8252 29.3379 23.8485 29.3327 16.477C29.3276 9.22912 23.2569 3.15844 16.009 3.15332ZM16.0242 22.548H15.875C15.3025 22.548 14.8385 22.084 14.8385 21.5116C14.8385 20.9391 15.3025 20.4751 15.875 20.4751H16.0242C16.5967 20.4751 17.0607 20.9391 17.0607 21.5116C17.0607 22.084 16.5967 22.548 16.0242 22.548ZM19.6727 14.7785C19.5898 15.0604 19.4791 15.3038 19.341 15.5082C19.2026 15.7129 19.0451 15.8953 18.8684 16.0554C18.6914 16.2159 18.5144 16.3734 18.3377 16.5281C18.1276 16.7051 17.934 16.8764 17.7572 17.0422C17.5803 17.208 17.4256 17.3933 17.2929 17.5978C17.1603 17.8025 17.0579 18.043 16.9861 18.3192C16.9412 18.4913 16.9104 18.6869 16.8936 18.9061C16.8751 19.1469 16.6701 19.3308 16.4287 19.3308H15.5632C15.297 19.3308 15.0858 19.1083 15.0966 18.8424C15.108 18.5623 15.1298 18.3133 15.1619 18.0953C15.2117 17.7581 15.2917 17.4625 15.4023 17.208C15.5127 16.9539 15.6482 16.73 15.8086 16.5364C15.9688 16.3431 16.1595 16.1524 16.3808 15.9643C16.5575 15.8095 16.7262 15.6657 16.8866 15.5331C17.0467 15.4004 17.1906 15.254 17.3178 15.0936C17.4447 14.9335 17.5443 14.7537 17.6163 14.5546C17.6881 14.3557 17.7241 14.118 17.7241 13.8415C17.7241 13.5098 17.6661 13.2254 17.55 12.9875C17.4339 12.7499 17.2929 12.5592 17.1271 12.4154C16.9612 12.2718 16.7843 12.1666 16.5964 12.1002C16.4083 12.0339 16.2424 12.0007 16.0989 12.0007C15.4132 12.0007 14.9074 12.2246 14.5814 12.6724C14.3252 13.0241 14.1697 13.4697 14.1147 14.0089C14.0878 14.2735 13.8588 14.4717 13.5928 14.4717H12.6895C12.4172 14.4717 12.1993 14.2392 12.2237 13.968C12.2607 13.5548 12.3446 13.1698 12.4753 12.8134C12.6577 12.3158 12.9231 11.8904 13.2713 11.5364C13.6196 11.1827 14.0396 10.9091 14.5317 10.7155C15.0235 10.5222 15.5737 10.4253 16.1818 10.4253C16.6902 10.4253 17.1628 10.4999 17.5997 10.6492C18.0363 10.7984 18.4177 11.014 18.744 11.2959C19.07 11.5779 19.327 11.9289 19.5151 12.349C19.703 12.7693 19.797 13.2445 19.797 13.7752C19.797 14.1623 19.7556 14.4966 19.6727 14.7785Z" fill="white"/>
</g>
<defs>
<clipPath id="clip0_344_1920">
<rect y="0.486572" width="32" height="32" rx="5" fill="white"/>
</clipPath>
</defs>
</svg>
