<svg width="32" height="33" viewBox="0 0 32 33" fill="none" xmlns="http://www.w3.org/2000/svg">
<g clip-path="url(#clip0_344_1964)">
<path d="M15.9993 3.15332C8.63555 3.15332 2.66602 9.12286 2.66602 16.4867C2.66602 23.8505 8.63555 29.82 15.9993 29.82C23.3631 29.82 29.3327 23.8504 29.3327 16.4867C29.3327 9.12286 23.3631 3.15332 15.9993 3.15332ZM15.9993 9.22324C16.671 9.22324 17.2154 9.76769 17.2154 10.4393C17.2154 11.1109 16.671 11.6554 15.9993 11.6554C15.3277 11.6554 14.7833 11.1109 14.7833 10.4393C14.7833 9.76769 15.3277 9.22324 15.9993 9.22324ZM17.2155 22.5339C17.2155 23.2056 16.671 23.7501 15.9994 23.7501C15.3277 23.7501 14.7832 23.2056 14.7832 22.5339V14.1895C14.7832 13.5179 15.3277 12.9734 15.9993 12.9734C16.671 12.9734 17.2155 13.5179 17.2155 14.1895V22.5339Z" fill="white"/>
</g>
<defs>
<clipPath id="clip0_344_1964">
<rect y="0.486572" width="32" height="32" rx="5" fill="white"/>
</clipPath>
</defs>
</svg>
