<svg width="32" height="33" viewBox="0 0 32 33" fill="none" xmlns="http://www.w3.org/2000/svg">
<g clip-path="url(#clip0_344_1953)">
<path d="M7.38281 10.4207C7.38281 15.3667 10.3452 16.5903 11.1696 25.1813C11.2211 25.645 11.4787 25.9412 11.9681 25.9412H20.0311C20.5334 25.9412 20.791 25.645 20.8425 25.1813C21.6669 16.5903 24.6164 15.3667 24.6164 10.4207C24.6164 5.97708 20.8168 2.48657 15.9996 2.48657C11.1824 2.48657 7.38281 5.97708 7.38281 10.4207ZM9.32771 10.4207C9.32771 6.94309 12.3803 4.43147 15.9996 4.43147C19.6189 4.43147 22.6716 6.94309 22.6716 10.4207C22.6716 14.1173 20.2243 14.9932 19.0651 23.9963H12.947C11.7749 14.9932 9.32771 14.1173 9.32771 10.4207Z" fill="white"/>
<path d="M15.9932 30.4866C17.9896 30.4866 19.6512 29.5077 19.78 28.0265H12.2193C12.3095 29.5077 13.9839 30.4866 15.9932 30.4866Z" fill="white"/>
</g>
<defs>
<clipPath id="clip0_344_1953">
<rect y="0.486572" width="32" height="32" rx="5" fill="white"/>
</clipPath>
</defs>
</svg>
