<svg width="32" height="33" viewBox="0 0 32 33" fill="none" xmlns="http://www.w3.org/2000/svg">
<g clip-path="url(#clip0_344_1876)">
<path d="M16.0056 5.41466C16.6244 5.41466 17.1378 4.90122 17.1378 4.28247C17.1378 3.66371 16.6244 3.15027 16.0056 3.15027C15.3868 3.15027 14.8734 3.66371 14.8734 4.28247C14.8734 4.90122 15.3868 5.41466 16.0056 5.41466ZM19.7708 6.03343C20.3895 6.03343 20.9031 5.51999 20.9031 4.90122C20.9031 4.28247 20.3895 3.76903 19.7708 3.76903C19.1521 3.76903 18.6386 4.28247 18.6386 4.90122C18.6386 5.51999 19.1521 6.03343 19.7708 6.03343ZM23.1937 7.75805C23.8125 7.75805 24.3259 7.24462 24.3259 6.62586C24.3259 6.0071 23.8125 5.49366 23.1937 5.49366C22.5749 5.49366 22.0615 6.0071 22.0615 6.62586C22.0615 7.24462 22.5749 7.75805 23.1937 7.75805ZM25.8926 10.4701C26.5113 10.4701 27.0248 9.95663 27.0248 9.33787C27.0248 8.71911 26.5113 8.20567 25.8926 8.20567C25.2738 8.20567 24.7604 8.71911 24.7604 9.33787C24.7604 9.95663 25.2738 10.4701 25.8926 10.4701ZM27.6172 13.8403C28.236 13.8403 28.7494 13.3269 28.7494 12.7081C28.7494 12.0894 28.236 11.5759 27.6172 11.5759C26.9984 11.5759 26.485 12.0894 26.485 12.7081C26.485 13.3269 26.9984 13.8403 27.6172 13.8403ZM28.2623 17.6187C28.881 17.6187 29.3946 17.1053 29.3946 16.4865C29.3946 15.8678 28.881 15.3543 28.2623 15.3543C27.6436 15.3543 27.1301 15.8678 27.1301 16.4865C27.1301 17.1053 27.6436 17.6187 28.2623 17.6187ZM27.6172 21.3971C28.236 21.3971 28.7494 20.8837 28.7494 20.2649C28.7494 19.6462 28.236 19.1328 27.6172 19.1328C26.9984 19.1328 26.485 19.6462 26.485 20.2649C26.485 20.8837 26.9984 21.3971 27.6172 21.3971ZM25.8926 24.7805C26.5113 24.7805 27.0248 24.2671 27.0248 23.6483C27.0248 23.0296 26.5113 22.5162 25.8926 22.5162C25.2738 22.5162 24.7604 23.0296 24.7604 23.6483C24.7604 24.2671 25.2738 24.7805 25.8926 24.7805ZM23.1937 27.4793C23.8125 27.4793 24.3259 26.9659 24.3259 26.3471C24.3259 25.7285 23.8125 25.215 23.1937 25.215C22.5749 25.215 22.0615 25.7285 22.0615 26.3471C22.0615 26.9659 22.5749 27.4793 23.1937 27.4793ZM19.7708 29.204C20.3895 29.204 20.9031 28.6906 20.9031 28.0718C20.9031 27.453 20.3895 26.9396 19.7708 26.9396C19.1521 26.9396 18.6386 27.453 18.6386 28.0718C18.6386 28.6906 19.1521 29.204 19.7708 29.204ZM16.0056 29.8228C16.6244 29.8228 17.1378 29.3094 17.1378 28.6906C17.1378 28.0718 16.6244 27.5584 16.0056 27.5584C15.3868 27.5584 14.8734 28.0718 14.8734 28.6906C14.8734 29.3094 15.3868 29.8228 16.0056 29.8228ZM12.2404 29.204C12.8591 29.204 13.3726 28.6906 13.3726 28.0718C13.3726 27.453 12.8591 26.9396 12.2404 26.9396C11.6084 26.9396 11.1082 27.453 11.1082 28.0718C11.1082 28.6906 11.6084 29.204 12.2404 29.204ZM8.81745 27.4793C9.43621 27.4793 9.94964 26.9659 9.94964 26.3471C9.94964 25.7285 9.43621 25.215 8.81745 25.215C8.18552 25.215 7.68525 25.7285 7.68525 26.3471C7.68525 26.9659 8.18552 27.4793 8.81745 27.4793ZM6.10544 24.7805C6.7242 24.7805 7.23763 24.2671 7.23763 23.6483C7.23763 23.0296 6.7242 22.5162 6.10544 22.5162C5.48668 22.5162 4.97324 23.0296 4.97324 23.6483C4.97324 24.2671 5.48668 24.7805 6.10544 24.7805ZM4.3808 21.3971C4.99956 21.3971 5.513 20.8837 5.513 20.2649C5.513 19.6462 4.99956 19.1328 4.3808 19.1328C3.76205 19.1328 3.24861 19.6462 3.24861 20.2649C3.24861 20.8837 3.76205 21.3971 4.3808 21.3971ZM3.73571 17.6187C4.35447 17.6187 4.86791 17.1053 4.86791 16.4865C4.86791 15.8678 4.35447 15.3543 3.73571 15.3543C3.11695 15.3543 2.60352 15.8678 2.60352 16.4865C2.60352 17.1053 3.11695 17.6187 3.73571 17.6187ZM4.3808 13.8403C4.99956 13.8403 5.513 13.3269 5.513 12.7081C5.513 12.0894 4.99956 11.5759 4.3808 11.5759C3.76205 11.5759 3.24861 12.0894 3.24861 12.7081C3.24861 13.3269 3.76205 13.8403 4.3808 13.8403ZM6.10544 10.4701C6.7242 10.4701 7.23763 9.95663 7.23763 9.33787C7.23763 8.71911 6.7242 8.20567 6.10544 8.20567C5.48668 8.20567 4.97324 8.71911 4.97324 9.33787C4.97324 9.95663 5.48668 10.4701 6.10544 10.4701ZM8.81745 7.75805C9.43621 7.75805 9.94964 7.24462 9.94964 6.62586C9.94964 6.0071 9.43621 5.49366 8.81745 5.49366C8.18552 5.49366 7.68525 6.0071 7.68525 6.62586C7.68525 7.24462 8.18552 7.75805 8.81745 7.75805ZM12.2404 6.03343C12.8591 6.03343 13.3726 5.51999 13.3726 4.90122C13.3726 4.28247 12.8591 3.76903 12.2404 3.76903C11.6084 3.76903 11.1082 4.28247 11.1082 4.90122C11.1082 5.51999 11.6084 6.03343 12.2404 6.03343Z" fill="url(#paint0_linear_344_1876)"/>
</g>
<defs>
<linearGradient id="paint0_linear_344_1876" x1="15.999" y1="3.15027" x2="7.09721" y2="24.4953" gradientUnits="userSpaceOnUse">
<stop stop-color="white" stop-opacity="0.1"/>
<stop offset="1" stop-color="white"/>
</linearGradient>
<clipPath id="clip0_344_1876">
<rect y="0.486572" width="32" height="32" rx="5" fill="white"/>
</clipPath>
</defs>
</svg>
