<svg width="32" height="33" viewBox="0 0 32 33" fill="none" xmlns="http://www.w3.org/2000/svg">
<g clip-path="url(#clip0_344_1975)">
<path d="M10.6394 28.3901C9.00752 28.3901 7.64357 27.528 7.63139 26.2894H13.6475C13.623 27.528 12.2347 28.3901 10.6394 28.3901ZM14.439 24.6743C14.439 25.0629 14.1224 25.3543 13.7448 25.3543H7.50962C7.13208 25.3543 6.82764 25.0508 6.82764 24.6743C6.82764 24.2857 7.13208 23.9821 7.50962 23.9821H13.7448C14.1224 23.9821 14.439 24.2736 14.439 24.6743ZM13.4821 5.55496C12.5372 6.89142 11.9912 8.50472 11.9912 10.2603C11.9912 14.5226 13.7193 16.1002 14.7538 19.9727C14.6098 20.6756 14.4897 21.4731 14.4024 22.3793C14.366 22.7679 14.1345 23.0471 13.7082 23.0471H7.53396C7.10774 23.0471 6.87635 22.7679 6.83982 22.3793C6.21873 15.9312 3.94141 14.984 3.94141 11.1467C3.94141 7.68589 6.9007 4.96579 10.615 4.96579C11.6463 4.96579 12.6188 5.1741 13.4821 5.55496Z" fill="white"/>
<path d="M21.1067 3.15332C16.7956 3.15332 13.4101 6.27414 13.4101 10.245C13.4101 14.6408 16.0527 15.7337 16.7835 23.3233C16.8321 23.7483 17.0514 24.0155 17.5142 24.0155H24.6993C25.1499 24.0155 25.3812 23.7483 25.4178 23.3233C26.1485 15.7337 28.8033 14.6408 28.8033 10.245C28.8033 6.27414 25.4056 3.15332 21.1067 3.15332ZM17.4776 26.4927H24.7358C25.1376 26.4927 25.4421 26.2013 25.4421 25.8006C25.4421 25.3998 25.1376 25.1084 24.7358 25.1084H17.4776C17.0757 25.1084 16.7835 25.3998 16.7835 25.8006C16.7835 26.2013 17.0757 26.4927 17.4776 26.4927ZM21.1067 29.82C22.8969 29.82 24.4191 28.9214 24.5045 27.5856H17.709C17.7821 28.9214 19.3044 29.82 21.1067 29.82Z" fill="white"/>
</g>
<defs>
<clipPath id="clip0_344_1975">
<rect y="0.486572" width="32" height="32" rx="5" fill="white"/>
</clipPath>
</defs>
</svg>
