<svg width="32" height="33" viewBox="0 0 32 33" fill="none" xmlns="http://www.w3.org/2000/svg">
<g clip-path="url(#clip0_344_2030)">
<path d="M15.6293 29.82C13.4757 29.82 11.9048 28.2491 11.7401 26.4756H19.5184C19.3411 28.2491 17.7702 29.82 15.6293 29.82ZM20.8686 24.74H5.58333C4.39251 24.74 3.67042 24.132 3.67042 23.2072C3.67042 21.9404 4.96258 20.8002 6.06472 19.6727C6.90083 18.7986 7.11619 16.9998 7.21754 15.5429C7.24451 14.0632 7.38283 12.7242 7.65907 11.5452L20.8686 24.74ZM19.2904 6.11769C22.6602 7.33385 23.9397 10.6783 24.041 15.5429C24.1296 16.9998 24.3577 18.7986 25.1938 19.6727C26.2959 20.8002 27.5754 21.9404 27.5754 23.2072C27.5754 23.584 27.4577 23.9082 27.2349 24.1589L10.1843 7.10826C10.6972 6.6927 11.2907 6.36219 11.9681 6.11769C12.4495 4.45816 13.7544 3.15332 15.6293 3.15332C17.4915 3.15332 18.809 4.45816 19.2904 6.11769Z" fill="white"/>
<path d="M3.92397 5.73131L26.6888 28.4582C27.0689 28.8509 27.6896 28.8509 28.0697 28.4582C28.4371 28.0782 28.4497 27.4701 28.0697 27.0774L5.31749 4.35047C4.93743 3.97042 4.31668 3.97042 3.92397 4.35047C3.55659 4.71785 3.55659 5.36393 3.92397 5.73131Z" fill="white"/>
</g>
<defs>
<clipPath id="clip0_344_2030">
<rect y="0.486572" width="32" height="32" rx="5" fill="white"/>
</clipPath>
</defs>
</svg>
