<svg width="32" height="33" viewBox="0 0 32 33" fill="none" xmlns="http://www.w3.org/2000/svg">
<g clip-path="url(#clip0_344_2019)">
<path d="M5.95978 24.7399H26.039C27.2297 24.7399 27.9519 24.1317 27.9519 23.207C27.9519 21.9402 26.6597 20.8 25.5703 19.6725C24.7341 18.7985 24.5061 16.9996 24.4047 15.5427C24.316 10.6781 23.0239 7.33372 19.6541 6.11757C19.1728 4.45802 17.868 3.1532 15.993 3.1532C14.1308 3.1532 12.8133 4.45802 12.3446 6.11757C8.97481 7.33372 7.68266 10.6781 7.59398 15.5427C7.49263 16.9996 7.2646 18.7985 6.4285 19.6725C5.32636 20.8 4.04688 21.9402 4.04688 23.207C4.04688 24.1317 4.7563 24.7399 5.95978 24.7399ZM15.993 29.8199C18.1467 29.8199 19.7175 28.2489 19.8821 26.4754H12.1165C12.2812 28.2489 13.8521 29.8199 15.993 29.8199Z" fill="white"/>
</g>
<defs>
<clipPath id="clip0_344_2019">
<rect y="0.486572" width="32" height="32" rx="5" fill="white"/>
</clipPath>
</defs>
</svg>
