<svg width="32" height="33" viewBox="0 0 32 33" fill="none" xmlns="http://www.w3.org/2000/svg">
<g clip-path="url(#clip0_344_1986)">
<path d="M18.4385 7.6351H9.36345C7.98306 7.6351 6.5501 7.81915 5.74815 8.60794C4.95937 9.40989 4.78847 10.8166 4.78847 12.2101V23.1085C4.78847 24.4626 4.95937 25.8694 5.74815 26.6581C6.5501 27.46 7.96991 27.6441 9.324 27.6441H20.2619C21.616 27.6441 23.0358 27.46 23.8246 26.6581C24.6266 25.8694 24.7974 24.4626 24.7974 23.1085V14.0631C25.5388 14.0622 26.2527 13.9299 26.914 13.6821V22.7405C26.914 24.9885 26.7169 26.8685 25.3759 28.2094C24.0349 29.5504 22.1418 29.7607 19.8938 29.7607H9.67897C7.44405 29.7607 5.55096 29.5504 4.21001 28.2094C2.86907 26.8685 2.67188 24.9885 2.67188 22.7405V12.4993C2.67188 10.2907 2.86907 8.41074 4.21001 7.0698C5.55096 5.72885 7.44405 5.5185 9.65267 5.5185H18.837C18.5833 6.17794 18.4444 6.8916 18.4385 7.6351Z" fill="white"/>
<path d="M24.7867 12.277C27.2714 12.277 29.3354 10.213 29.3354 7.71517C29.3354 5.21732 27.2714 3.15332 24.7867 3.15332C22.2757 3.15332 20.2249 5.21732 20.2249 7.71517C20.2249 10.213 22.2757 12.277 24.7867 12.277Z" fill="white"/>
</g>
<defs>
<clipPath id="clip0_344_1986">
<rect y="0.486572" width="32" height="32" rx="5" fill="white"/>
</clipPath>
</defs>
</svg>
