<svg width="32" height="33" viewBox="0 0 32 33" fill="none" xmlns="http://www.w3.org/2000/svg">
<g clip-path="url(#clip0_344_1942)">
<path d="M3.55469 23.5856C3.55469 24.5278 4.29331 25.1475 5.54632 25.1475H11.1124C11.2179 27.6386 13.2095 29.8199 15.9925 29.8199C18.7888 29.8199 20.7804 27.6515 20.8858 25.1475H26.452C27.6917 25.1475 28.4436 24.5278 28.4436 23.5856C28.4436 22.2949 27.0982 21.1332 25.9639 19.9844C25.0934 19.0939 24.856 17.261 24.7504 15.7766C24.6581 10.6911 23.3128 7.41265 19.8043 6.17353C19.3559 4.48266 17.9446 3.1532 15.9925 3.1532C14.0536 3.1532 12.6292 4.48266 12.1939 6.17353C8.68546 7.41265 7.34012 10.6911 7.24779 15.7766C7.14227 17.261 6.90486 19.0939 6.03434 19.9844C4.88684 21.1332 3.55469 22.2949 3.55469 23.5856ZM6.11348 23.1984V23.0435C6.3509 22.6693 7.14227 21.9076 7.82814 21.1591C8.77778 20.1265 9.22623 18.4613 9.34494 15.9445C9.45046 10.3039 11.1651 8.50977 13.4205 7.90312C13.7503 7.82568 13.9349 7.67079 13.9481 7.3352C13.9877 5.99282 14.7791 5.05059 15.9925 5.05059C17.2191 5.05059 17.9973 5.99282 18.0501 7.3352C18.0633 7.67079 18.2348 7.82568 18.5645 7.90312C20.8332 8.50977 22.5478 10.3039 22.6534 15.9445C22.772 18.4613 23.2205 20.1265 24.1569 21.1591C24.856 21.9076 25.6342 22.6693 25.8715 23.0435V23.1984H6.11348ZM13.1699 25.1475H18.8283C18.7228 26.9028 17.5885 28 15.9925 28C14.4098 28 13.2623 26.9028 13.1699 25.1475Z" fill="white"/>
</g>
<defs>
<clipPath id="clip0_344_1942">
<rect y="0.486572" width="32" height="32" rx="5" fill="white"/>
</clipPath>
</defs>
</svg>
