<svg width="32" height="33" viewBox="0 0 32 33" fill="none" xmlns="http://www.w3.org/2000/svg">
<g clip-path="url(#clip0_344_2041)">
<path d="M7.62033 16.4867C7.62033 18.2226 6.21309 19.6299 4.47716 19.6299C2.74123 19.6299 1.33398 18.2226 1.33398 16.4867C1.33398 14.7508 2.74123 13.3435 4.47716 13.3435C6.21309 13.3435 7.62033 14.7508 7.62033 16.4867Z" fill="white"/>
<path d="M19.1438 16.4867C19.1438 18.2226 17.7366 19.6299 16.0007 19.6299C14.2647 19.6299 12.8575 18.2226 12.8575 16.4867C12.8575 14.7508 14.2647 13.3435 16.0007 13.3435C17.7366 13.3435 19.1438 14.7508 19.1438 16.4867Z" fill="white"/>
<path d="M30.6673 16.4867C30.6673 18.2226 29.2601 19.6299 27.5241 19.6299C25.7882 19.6299 24.381 18.2226 24.381 16.4867C24.381 14.7508 25.7882 13.3435 27.5241 13.3435C29.2601 13.3435 30.6673 14.7508 30.6673 16.4867Z" fill="white"/>
</g>
<defs>
<clipPath id="clip0_344_2041">
<rect y="0.486572" width="32" height="32" rx="5" fill="white"/>
</clipPath>
</defs>
</svg>
