<svg width="32" height="33" viewBox="0 0 32 33" fill="none" xmlns="http://www.w3.org/2000/svg">
<g clip-path="url(#clip0_344_1931)">
<path fill-rule="evenodd" clip-rule="evenodd" d="M29.3327 16.4867C29.3327 23.8505 23.3631 29.82 15.9993 29.82C8.63555 29.82 2.66602 23.8505 2.66602 16.4867C2.66602 9.12286 8.63555 3.15332 15.9993 3.15332C23.3631 3.15332 29.3327 9.12286 29.3327 16.4867ZM15.9993 27.5978C22.1358 27.5978 27.1105 22.6232 27.1105 16.4867C27.1105 10.3502 22.1358 5.37554 15.9993 5.37554C9.86285 5.37554 4.88824 10.3502 4.88824 16.4867C4.88824 22.6232 9.86285 27.5978 15.9993 27.5978Z" fill="white"/>
<path d="M24.3288 16.4827C24.3288 21.0851 20.5978 24.8161 15.9954 24.8161C11.3931 24.8161 7.66211 21.0851 7.66211 16.4827C7.66211 11.8804 11.3931 8.14941 15.9954 8.14941C20.5978 8.14941 24.3288 11.8804 24.3288 16.4827Z" fill="white"/>
</g>
<defs>
<clipPath id="clip0_344_1931">
<rect y="0.486572" width="32" height="32" rx="5" fill="white"/>
</clipPath>
</defs>
</svg>
