<svg width="32" height="33" viewBox="0 0 32 33" fill="none" xmlns="http://www.w3.org/2000/svg">
<g clip-path="url(#clip0_344_1832)">
<path d="M2.66602 13.9389C2.66602 19.8859 7.55172 24.7245 13.5565 24.7245C15.9311 24.7245 18.101 23.9677 19.8889 22.6971L26.6033 29.3605C26.9171 29.6713 27.3266 29.82 27.7633 29.82C28.6914 29.82 29.3327 29.1306 29.3327 28.2251C29.3327 27.7926 29.1689 27.4006 28.8823 27.1168L22.2088 20.467C23.6146 18.6559 24.447 16.3988 24.447 13.9389C24.447 7.99197 19.5613 3.15332 13.5565 3.15332C7.55172 3.15332 2.66602 7.99197 2.66602 13.9389ZM4.9997 13.9389C4.9997 9.26246 8.83457 5.46453 13.5565 5.46453C18.2784 5.46453 22.1133 9.26246 22.1133 13.9389C22.1133 18.6153 18.2784 22.4133 13.5565 22.4133C8.83457 22.4133 4.9997 18.6153 4.9997 13.9389Z" fill="white"/>
</g>
<defs>
<clipPath id="clip0_344_1832">
<rect y="0.486572" width="32" height="32" rx="5" fill="white"/>
</clipPath>
</defs>
</svg>
