<svg width="32" height="33" viewBox="0 0 32 33" fill="none" xmlns="http://www.w3.org/2000/svg">
<g clip-path="url(#clip0_344_1810)">
<path d="M14.8255 29.82H17.1732C17.8367 29.82 18.3215 29.4244 18.4618 28.7737L19.1254 25.9667C19.6229 25.8009 20.1078 25.6094 20.5288 25.4053L22.9914 26.9109C23.54 27.2554 24.1652 27.2043 24.6246 26.745L26.2705 25.1119C26.7298 24.6525 26.7936 23.989 26.4236 23.4404L24.918 21.0034C25.1349 20.5568 25.3263 20.0975 25.4666 19.6381L28.2992 18.9619C28.9499 18.8215 29.3327 18.3367 29.3327 17.6732V15.3638C29.3327 14.7131 28.9499 14.2283 28.2992 14.088L25.4921 13.4117C25.3263 12.8886 25.1221 12.4165 24.9435 12.0209L26.4492 9.54566C26.8064 8.99702 26.7681 8.37182 26.296 7.91248L24.6246 6.26656C24.1525 5.83275 23.5911 5.75618 23.0296 6.07516L20.5288 7.61902C20.1205 7.40212 19.6485 7.21073 19.1254 7.04487L18.4618 4.19957C18.3215 3.54885 17.8367 3.15332 17.1732 3.15332H14.8255C14.162 3.15332 13.6772 3.54885 13.5241 4.19957L12.8606 7.01935C12.363 7.18521 11.8781 7.37661 11.4443 7.60626L8.96904 6.07516C8.40764 5.75618 7.83347 5.81999 7.36139 6.26656L5.70269 7.91248C5.23061 8.37182 5.17957 8.99702 5.54959 9.54566L7.04241 12.0209C6.87654 12.4165 6.6724 12.8886 6.50652 13.4117L3.69951 14.088C3.04879 14.2283 2.66602 14.7131 2.66602 15.3638V17.6732C2.66602 18.3367 3.04879 18.8215 3.69951 18.9619L6.53204 19.6381C6.6724 20.0975 6.86378 20.5568 7.06793 21.0034L5.57511 23.4404C5.19233 23.989 5.26888 24.6525 5.72821 25.1119L7.36139 26.745C7.82072 27.2043 8.45867 27.2554 9.00732 26.9109L11.4571 25.4053C11.8909 25.6094 12.363 25.8009 12.8606 25.9667L13.5241 28.7737C13.6772 29.4244 14.162 29.82 14.8255 29.82ZM15.9993 20.9906C13.5241 20.9906 11.4954 18.9492 11.4954 16.4739C11.4954 14.0114 13.5241 11.9827 15.9993 11.9827C18.4746 11.9827 20.5033 14.0114 20.5033 16.4739C20.5033 18.9492 18.4746 20.9906 15.9993 20.9906Z" fill="white"/>
</g>
<defs>
<clipPath id="clip0_344_1810">
<rect y="0.486572" width="32" height="32" rx="5" fill="white"/>
</clipPath>
</defs>
</svg>
