<svg width="32" height="33" viewBox="0 0 32 33" fill="none" xmlns="http://www.w3.org/2000/svg">
<g clip-path="url(#clip0_344_805)">
<path d="M28 14.3744V15.5463C27.9412 15.6114 27.9588 15.6933 27.9521 15.7695C27.8472 16.9683 27.4622 18.0705 26.7303 19.0254C25.4895 20.6442 23.7759 21.358 21.789 21.4962C20.9003 21.558 20.0088 21.552 19.118 21.5464C18.82 21.5445 18.5305 21.5965 18.2439 21.6802C17.3694 21.9356 16.604 23.0523 16.9335 24.077C17.0605 24.4718 17.299 24.7962 17.5288 25.1296C17.7927 25.5125 17.9556 25.9424 17.9043 26.4035C17.7814 27.5084 16.9621 28.2227 15.8485 28.2473C15.0813 28.2642 14.3182 28.2035 13.5699 28.0481C10.7552 27.4632 8.43053 26.0524 6.63571 23.8082C5.06651 21.8462 4.17785 19.611 4.02717 17.0853C3.95604 15.8931 4.01788 14.7138 4.29249 13.5588C5.06553 10.3072 6.85001 7.75869 9.69822 5.98331C11.0551 5.13754 12.5359 4.62028 14.1183 4.38438C14.4318 4.33763 14.7532 4.34475 15.0596 4.25C15.6848 4.25 16.3099 4.25 16.935 4.25C16.97 4.26412 17.0041 4.28824 17.0399 4.29088C17.6763 4.33794 18.3046 4.43402 18.9278 4.57258C21.5801 5.16228 23.8095 6.45956 25.5614 8.54555C26.6671 9.86206 27.417 11.3601 27.7911 13.0429C27.8889 13.483 27.9176 13.9327 28 14.3744ZM16.7001 9.25309C16.7233 10.4066 17.552 11.3517 18.7835 11.3605C19.9655 11.3689 20.8855 10.5311 20.9044 9.27019C20.9218 8.10558 20.0474 7.19669 18.827 7.16039C17.6704 7.12599 16.7091 8.0887 16.7001 9.25309ZM6.85448 13.4726C6.87914 14.6208 7.70483 15.5714 8.94036 15.5783C10.1198 15.5848 11.0377 14.7498 11.0569 13.4848C11.0744 12.3309 10.2158 11.4111 8.97917 11.3792C7.81887 11.3492 6.86325 12.3092 6.85448 13.4726ZM11.0743 9.26913C11.1101 10.4669 11.9896 11.366 13.1726 11.359C14.4047 11.3518 15.2774 10.4586 15.2786 9.2538C15.2798 8.02548 14.3361 7.16908 13.1595 7.16051C12.0086 7.15213 11.07 8.1184 11.0743 9.26913ZM7.55658 19.0876C7.5778 20.269 8.45064 21.209 9.6577 21.2048C10.8643 21.2005 11.7578 20.3259 11.7624 19.0995C11.7668 17.9331 10.9055 17.0472 9.69169 17.0038C8.54305 16.9627 7.57185 17.927 7.55658 19.0876ZM20.9201 13.4714C20.9503 14.6675 21.8206 15.588 23.0261 15.5789C24.2106 15.57 25.1003 14.7362 25.1224 13.4883C25.1426 12.345 24.2867 11.4175 23.0445 11.3797C21.8865 11.3445 20.9285 12.307 20.9201 13.4714Z" fill="white"/>
</g>
<defs>
<clipPath id="clip0_344_805">
<rect y="0.25" width="32" height="32" rx="5" fill="white"/>
</clipPath>
</defs>
</svg>
