<svg width="32" height="33" viewBox="0 0 32 33" fill="none" xmlns="http://www.w3.org/2000/svg">
<g clip-path="url(#clip0_344_651)">
<path d="M12.9023 10.8682C12.4308 10.8682 12.0357 10.4825 12.0357 10.0221C12.0357 9.54919 12.4308 9.17588 12.9023 9.17588H22.7409C23.2125 9.17588 23.6075 9.54919 23.6075 10.0221C23.6075 10.4825 23.2125 10.8682 22.7409 10.8682H12.9023ZM12.9023 14.4022C12.4308 14.4022 12.0357 14.0164 12.0357 13.5436C12.0357 13.0832 12.4308 12.7099 12.9023 12.7099H20.3705C20.8547 12.7099 21.2371 13.0832 21.2371 13.5436C21.2371 14.0164 20.8547 14.4022 20.3705 14.4022H12.9023ZM9.19374 29.5834H25.6975C26.2583 29.5834 26.7171 29.1478 26.7171 28.5879C26.7171 28.1524 26.4113 27.7666 26.0034 27.6297C24.3976 27.0076 24.0663 24.9792 25.6466 23.4238C26.1309 22.951 26.7171 22.3412 26.7171 21.0969V6.82404C26.7171 4.23577 25.4044 2.91675 22.7664 2.91675H9.23197C6.59391 2.91675 5.28125 4.22333 5.28125 6.82404V25.7383C5.28125 28.3017 6.60665 29.5834 9.19374 29.5834ZM9.30843 27.58C8.02127 27.58 7.33308 26.9081 7.33308 25.7259C7.33308 24.606 8.14871 23.8842 9.42313 23.8842H22.4987C22.6645 23.8842 22.8174 23.8718 22.9448 23.8469C22.3458 25.141 22.4478 26.5099 23.1232 27.58H9.30843ZM8.92611 21.9927C8.53104 21.9927 8.19968 21.6693 8.19968 21.2711V5.5548C8.19968 5.1566 8.53104 4.84551 8.92611 4.84551C9.32118 4.84551 9.66528 5.1566 9.66528 5.5548V21.2711C9.66528 21.6693 9.32118 21.9927 8.92611 21.9927Z" fill="white"/>
</g>
<defs>
<clipPath id="clip0_344_651">
<rect y="0.250122" width="32" height="32" rx="5" fill="white"/>
</clipPath>
</defs>
</svg>
