<svg width="32" height="33" viewBox="0 0 32 33" fill="none" xmlns="http://www.w3.org/2000/svg">
<g clip-path="url(#clip0_344_948)">
<path d="M9.80041 8.87134C11.0949 8.87134 12.1305 7.84653 12.1305 6.55203C12.1305 5.25753 11.0949 4.22192 9.80041 4.22192C8.50591 4.22192 7.4703 5.25753 7.4703 6.55203C7.4703 7.84653 8.50591 8.87134 9.80041 8.87134ZM9.80041 19.3136C10.2427 19.3136 10.4153 19.6158 10.6634 20.3924C11.0302 21.482 12.1197 26.002 12.4865 27.3288C12.6699 27.9976 13.0151 28.2781 13.5221 28.2781C14.2125 28.2781 14.6332 27.6524 14.439 26.9728C14.3635 26.6815 12.7994 20.1443 12.5728 18.7958C12.3894 17.6093 12.3463 15.2144 12.3463 14.0817C12.3463 13.9091 12.5404 13.8444 12.6483 13.9954C13.4574 15.1281 14.9353 17.2424 15.2265 17.5876C15.5501 17.9545 16.0679 18.0192 16.4887 17.7819C17.0388 17.4906 17.1683 16.8972 16.9418 16.4873C16.8554 16.3255 16.7368 16.1637 16.6289 16.0019L13.835 11.8918C12.9503 10.5866 11.85 10.004 9.80041 10.004C7.75077 10.004 6.65045 10.5866 5.76587 11.8918L2.97191 16.0019C2.86403 16.1637 2.74537 16.3255 2.65907 16.4873C2.43253 16.8972 2.55119 17.4906 3.11214 17.7819C3.53285 18.0192 4.05065 17.9545 4.3635 17.5876C4.65476 17.2424 6.14344 15.1389 6.9525 13.9954C7.04959 13.8551 7.25455 13.9091 7.25455 14.0925C7.25455 15.2252 7.20061 17.6093 7.01723 18.7958C6.80147 20.1443 5.23729 26.6815 5.16177 26.9728C4.9676 27.6524 5.38831 28.2781 6.07871 28.2781C6.58572 28.2781 6.93093 27.9976 7.11431 27.3288C7.48109 26.002 8.57063 21.482 8.93741 20.3924C9.18552 19.6158 9.35812 19.3136 9.80041 19.3136ZM22.206 8.87134C23.5006 8.87134 24.5362 7.84653 24.5362 6.55203C24.5362 5.25753 23.5006 4.22192 22.206 4.22192C20.9116 4.22192 19.876 5.25753 19.876 6.55203C19.876 7.84653 20.9116 8.87134 22.206 8.87134ZM22.206 19.3136C22.6376 19.3136 22.821 19.6158 23.069 20.3924C23.425 21.482 24.5253 26.002 24.8922 27.3288C25.0755 27.9976 25.4207 28.2781 25.9278 28.2781C26.6182 28.2781 27.0389 27.6524 26.8447 26.9728C26.7584 26.6815 25.1942 20.1443 24.9784 18.7958C24.795 17.6093 24.7411 15.2144 24.7411 14.0817C24.7411 13.9091 24.9461 13.8444 25.0431 13.9954C25.8631 15.1281 27.3409 17.2424 27.6321 17.5876C27.9558 17.9545 28.4628 18.0192 28.8943 17.7819C29.4445 17.4906 29.5739 16.8972 29.3366 16.4873C29.2503 16.3255 29.1425 16.1637 29.0238 16.0019L26.2406 11.8918C25.3453 10.5866 24.2557 10.004 22.206 10.004C20.1564 10.004 19.0561 10.5866 18.1715 11.8918L15.3775 16.0019C15.2589 16.1637 15.151 16.3255 15.0647 16.4873C14.8382 16.8972 14.9568 17.4906 15.507 17.7819C15.9385 18.0192 16.4455 17.9545 16.7692 17.5876C17.0604 17.2424 18.5383 15.1389 19.3582 13.9954C19.4552 13.8551 19.6602 13.9091 19.6602 14.0925C19.6602 15.2252 19.6063 17.6093 19.4229 18.7958C19.2071 20.1443 17.643 26.6815 17.5674 26.9728C17.3625 27.6524 17.7939 28.2781 18.4843 28.2781C18.9914 28.2781 19.3258 27.9976 19.5092 27.3288C19.876 26.002 20.9763 21.482 21.3323 20.3924C21.5804 19.6158 21.7637 19.3136 22.206 19.3136Z" fill="white"/>
</g>
<defs>
<clipPath id="clip0_344_948">
<rect y="0.25" width="32" height="32" rx="5" fill="white"/>
</clipPath>
</defs>
</svg>
