<svg width="32" height="33" viewBox="0 0 32 33" fill="none" xmlns="http://www.w3.org/2000/svg">
<g clip-path="url(#clip0_344_849)">
<path d="M17.1579 28.4247C23.8063 28.4247 29.3327 22.8984 29.3327 16.25C29.3327 9.58975 23.8063 4.07532 17.1579 4.07532C10.4976 4.07532 4.98321 9.57781 4.98321 16.2381H7.01233C7.01233 10.6043 11.5241 6.11638 17.1579 6.11638C22.7917 6.11638 27.3035 10.6163 27.3035 16.25C27.3035 21.8839 22.7917 26.4195 17.1579 26.3957C13.7562 26.3837 10.7722 24.7366 8.94596 22.1942C8.57594 21.7048 8.01495 21.5496 7.51364 21.848C7.0362 22.1464 6.90491 22.8029 7.31073 23.328C9.57857 26.3717 13.1355 28.4247 17.1579 28.4247ZM3.51508 13.9464C2.65569 13.9464 2.44084 14.5312 2.90635 15.1997L5.58001 18.9953C5.97389 19.5444 6.54682 19.5325 6.92877 18.9953L9.60244 15.1878C10.056 14.5312 9.84116 13.9464 8.99371 13.9464H3.51508Z" fill="white"/>
<path d="M16.894 9.11305C16.2734 9.11305 15.772 9.61436 15.772 10.235V17.0027C15.772 17.2892 15.8556 17.5637 16.0943 17.8622L18.9828 21.6817C19.4603 22.3023 20.1048 22.4097 20.6896 22.0159C21.2267 21.6458 21.2626 20.9656 20.8448 20.3806L16.703 14.7588L18.0279 18.8409V10.235C18.0279 9.61436 17.5147 9.11305 16.894 9.11305Z" fill="white"/>
</g>
<defs>
<clipPath id="clip0_344_849">
<rect y="0.25" width="32" height="32" rx="5" fill="white"/>
</clipPath>
</defs>
</svg>
