<svg width="32" height="33" viewBox="0 0 32 33" fill="none" xmlns="http://www.w3.org/2000/svg">
<g clip-path="url(#clip0_344_860)">
<path d="M9.84707 17.5207C9.37648 17.5207 9.02354 17.1677 9.02354 16.697C9.02354 16.2383 9.37648 15.8853 9.84707 15.8853H15.1765V8.76766C15.1765 8.30883 15.5295 7.95589 15.9883 7.95589C16.447 7.95589 16.8118 8.30883 16.8118 8.76766V16.697C16.8118 17.1677 16.447 17.5207 15.9883 17.5207H9.84707ZM16 28.25C22.5648 28.25 28 22.803 28 16.25C28 9.6853 22.553 4.25 15.9883 4.25C9.4353 4.25 4 9.6853 4 16.25C4 22.803 9.44707 28.25 16 28.25Z" fill="white"/>
</g>
<defs>
<clipPath id="clip0_344_860">
<rect y="0.25" width="32" height="32" rx="5" fill="white"/>
</clipPath>
</defs>
</svg>
