<svg width="32" height="33" viewBox="0 0 32 33" fill="none" xmlns="http://www.w3.org/2000/svg">
<g clip-path="url(#clip0_344_816)">
<path d="M20.4067 5.17674C20.0531 5.7298 19.7978 6.35022 19.6594 7.01282C18.5385 6.5709 17.3132 6.33415 16.0297 6.33415C10.4576 6.33415 6.01873 10.7966 6.01873 16.3687C6.01873 21.9409 10.4694 26.4034 16.0415 26.4034C21.6137 26.4034 26.0762 21.9409 26.0762 16.3687C26.0762 15.5008 25.9676 14.6599 25.7517 13.8632C26.4324 13.8038 27.0805 13.6191 27.6704 13.3287C27.9443 14.2981 28.0831 15.319 28.0831 16.3687C28.0831 22.9444 22.629 28.4103 16.0415 28.4103C9.46593 28.4103 4 22.9444 4 16.3687C4 9.78134 9.45412 4.32722 16.0297 4.32722C17.5702 4.32722 19.0492 4.62545 20.4067 5.17674ZM16.8561 8.86051V16.8174C16.8561 17.2896 16.4901 17.6438 16.0297 17.6438H9.8673C9.39509 17.6438 9.04093 17.2896 9.04093 16.8174C9.04093 16.3569 9.39509 16.0028 9.8673 16.0028H15.2152V8.86051C15.2152 8.4001 15.5694 8.04594 16.0297 8.04594C16.4901 8.04594 16.8561 8.4001 16.8561 8.86051Z" fill="white"/>
<path d="M25.2369 12.2709C27.4681 12.2709 29.3333 10.4292 29.3333 8.18621C29.3333 5.93137 27.4681 4.08972 25.2369 4.08972C22.9939 4.08972 21.1404 5.93137 21.1404 8.18621C21.1404 10.4292 22.9939 12.2709 25.2369 12.2709Z" fill="white"/>
</g>
<defs>
<clipPath id="clip0_344_816">
<rect y="0.25" width="32" height="32" rx="5" fill="white"/>
</clipPath>
</defs>
</svg>
