<svg width="32" height="33" viewBox="0 0 32 33" fill="none" xmlns="http://www.w3.org/2000/svg">
<g clip-path="url(#clip0_344_959)">
<path d="M16.2654 11.9005L17.9176 14.3309C17.4849 14.3394 17.0511 14.5139 16.7379 14.8642C16.5141 15.1042 16.3613 15.389 16.2896 15.6887C15.8602 15.0859 15.4152 14.4576 15.0842 13.9945C14.9769 13.8441 14.7835 13.9085 14.7835 14.0803C14.7835 15.2078 14.8372 17.5917 15.0198 18.7728C15.2346 20.1152 16.7916 26.6224 16.8668 26.9123C17.06 27.5888 16.6413 28.2116 15.954 28.2116C15.4493 28.2116 15.1057 27.9324 14.9232 27.2666C14.558 25.9458 13.4735 21.4466 13.1084 20.3621C12.8615 19.5889 12.6896 19.2883 12.2494 19.2883C11.8091 19.2883 11.6373 19.5889 11.3903 20.3621C11.036 21.4466 9.9407 25.9458 9.57561 27.2666C9.39306 27.9324 9.04944 28.2116 8.54475 28.2116C7.85752 28.2116 7.43874 27.5888 7.63202 26.9123C7.70719 26.6224 9.27494 20.1152 9.4897 18.7728C9.67225 17.5917 9.7152 15.2186 9.7152 14.091C9.7152 13.9085 9.51118 13.8548 9.41454 13.9945C8.60918 15.1327 7.13807 17.2266 6.84814 17.5702C6.526 17.9353 6.02131 17.9998 5.59179 17.7634C5.04415 17.4735 4.91529 16.8829 5.14079 16.4749C5.23743 16.3138 5.34481 16.1527 5.45219 15.9917L8.23335 11.9005C9.12461 10.6012 10.2092 10.0213 12.2494 10.0213C14.2896 10.0213 15.3849 10.6012 16.2654 11.9005ZM14.5688 6.58517C14.5688 7.87373 13.538 8.89385 12.2494 8.89385C10.9608 8.89385 9.9407 7.87373 9.9407 6.58517C9.9407 5.2966 10.9608 4.26575 12.2494 4.26575C13.538 4.26575 14.5688 5.2966 14.5688 6.58517Z" fill="white"/>
<path d="M21.2784 16.3152C22.2234 16.3152 23.0073 15.5421 23.0073 14.5972C23.0073 13.6522 22.2234 12.8791 21.2784 12.8791C20.3335 12.8791 19.5604 13.6522 19.5604 14.5972C19.5604 15.5421 20.3335 16.3152 21.2784 16.3152ZM18.8946 28.213C19.3026 28.213 19.6462 27.9768 19.7751 27.4398C20.0006 26.6345 20.6556 23.8641 20.8704 23.1876C21.0207 22.7474 21.0529 22.7151 21.1711 22.7151C21.2892 22.7151 21.3213 22.7474 21.4717 23.1876C21.6758 23.8641 22.3415 26.6345 22.567 27.4398C22.6958 27.9768 23.0394 28.213 23.4475 28.213C24.0596 28.213 24.4139 27.6439 24.2636 27.0855C24.2099 26.903 23.2757 22.9191 23.1254 22.0816C23.0502 21.5662 23.0073 20.6642 23.0073 20.2884C23.0073 20.1166 23.2005 20.0629 23.2972 20.2024L24.6716 22.189C24.9616 22.6078 25.434 22.6185 25.7455 22.393C26.0247 22.1997 26.1642 21.8024 25.8958 21.3944L24.124 18.6454C23.5012 17.7004 22.5348 17.3247 21.5468 17.3247H21.1711C20.4516 17.3247 20.1402 17.0991 19.6569 16.5837L18.5187 15.3703C18.2288 15.0696 17.6597 15.0589 17.3376 15.4348C17.0476 15.7354 16.951 16.1757 17.1979 16.5515C17.316 16.734 18.304 17.8401 19.0771 18.8065C19.2489 19.0212 19.3456 19.2253 19.3456 19.5366C19.3456 20.0736 19.3241 21.4158 19.2167 22.0816C19.0664 22.9191 18.1322 26.903 18.0785 27.0855C17.9281 27.6439 18.2825 28.213 18.8946 28.213Z" fill="white"/>
</g>
<defs>
<clipPath id="clip0_344_959">
<rect y="0.250122" width="32" height="32" rx="5" fill="white"/>
</clipPath>
</defs>
</svg>
