<svg width="32" height="33" viewBox="0 0 32 33" fill="none" xmlns="http://www.w3.org/2000/svg">
<g clip-path="url(#clip0_344_893)">
<path d="M25.4644 7.74258V14.6414C25.1521 14.596 24.8322 14.5759 24.5079 14.5759C24.1709 14.5759 23.8389 14.5976 23.515 14.6472V11.2075C23.515 10.0968 22.9096 9.5173 21.832 9.5173H4.95415C3.87657 9.5173 3.2833 10.0968 3.2833 11.2075V22.5922C3.2833 23.715 3.87657 24.2824 4.95415 24.2824H16.9497C17.1174 24.9748 17.3869 25.6274 17.7405 26.2261H5.13576C2.60528 26.2261 1.33398 24.9826 1.33398 22.4835V7.74258C1.33398 5.2435 2.60528 4 5.13576 4H21.6747C24.2051 4 25.4644 5.25558 25.4644 7.74258Z" fill="white"/>
<path d="M25.4644 7.74258V14.6414C25.1521 14.596 24.8322 14.5759 24.5079 14.5759C24.1709 14.5759 23.8389 14.5976 23.515 14.6472V11.2075C23.515 10.0968 22.9096 9.5173 21.832 9.5173H4.95415C3.87657 9.5173 3.2833 10.0968 3.2833 11.2075V22.5922C3.2833 23.715 3.87657 24.2824 4.95415 24.2824H16.9497C17.1174 24.9748 17.3869 25.6274 17.7405 26.2261H5.13576C2.60528 26.2261 1.33398 24.9826 1.33398 22.4835V7.74258C1.33398 5.2435 2.60528 4 5.13576 4H21.6747C24.2051 4 25.4644 5.25558 25.4644 7.74258Z" fill="white"/>
<path d="M8.2944 20.4894V21.2017C8.2944 21.6243 8.16122 21.7571 7.72533 21.7571H7.02307C6.58718 21.7571 6.454 21.6243 6.454 21.2017V20.4894C6.454 20.0669 6.58718 19.9461 7.02307 19.9461H7.72533C8.16122 19.9461 8.2944 20.0669 8.2944 20.4894ZM12.3141 20.4894V21.2017C12.3141 21.6243 12.1809 21.7571 11.7571 21.7571H11.0428C10.6191 21.7571 10.4737 21.6243 10.4737 21.2017V20.4894C10.4737 20.0669 10.6191 19.9461 11.0428 19.9461H11.7571C12.1809 19.9461 12.3141 20.0669 12.3141 20.4894ZM16.3459 20.4894V21.2017C16.3459 21.6243 16.2006 21.7571 15.7769 21.7571H15.0625C14.6387 21.7571 14.4935 21.6243 14.4935 21.2017V20.4894C14.4935 20.0669 14.6387 19.9461 15.0625 19.9461H15.7769C16.2006 19.9461 16.3459 20.0669 16.3459 20.4894ZM8.2944 16.5416V17.2539C8.2944 17.6765 8.16122 17.7972 7.72533 17.7972H7.02307C6.58718 17.7972 6.454 17.6765 6.454 17.2539V16.5416C6.454 16.1191 6.58718 15.9983 7.02307 15.9983H7.72533C8.16122 15.9983 8.2944 16.1191 8.2944 16.5416ZM12.3141 16.5416V17.2539C12.3141 17.6765 12.1809 17.7972 11.7571 17.7972H11.0428C10.6191 17.7972 10.4737 17.6765 10.4737 17.2539V16.5416C10.4737 16.1191 10.6191 15.9983 11.0428 15.9983H11.7571C12.1809 15.9983 12.3141 16.1191 12.3141 16.5416ZM16.3459 16.5416V17.2539C16.3459 17.6765 16.2006 17.7972 15.7769 17.7972H15.0625C14.6387 17.7972 14.4935 17.6765 14.4935 17.2539V16.5416C14.4935 16.1191 14.6387 15.9983 15.0625 15.9983H15.7769C16.2006 15.9983 16.3459 16.1191 16.3459 16.5416ZM12.3141 12.5938V13.3061C12.3141 13.7286 12.1809 13.8493 11.7571 13.8493H11.0428C10.6191 13.8493 10.4737 13.7286 10.4737 13.3061V12.5938C10.4737 12.1712 10.6191 12.0384 11.0428 12.0384H11.7571C12.1809 12.0384 12.3141 12.1712 12.3141 12.5938ZM16.3459 12.5938V13.3061C16.3459 13.7286 16.2006 13.8493 15.7769 13.8493H15.0625C14.6387 13.8493 14.4935 13.7286 14.4935 13.3061V12.5938C14.4935 12.1712 14.6387 12.0384 15.0625 12.0384H15.7769C16.2006 12.0384 16.3459 12.1712 16.3459 12.5938ZM20.3656 12.5938V13.3061C20.3656 13.7286 20.2203 13.8493 19.7966 13.8493H19.0822C18.6584 13.8493 18.5252 13.7286 18.5252 13.3061V12.5938C18.5252 12.1712 18.6584 12.0384 19.0822 12.0384H19.7966C20.2203 12.0384 20.3656 12.1712 20.3656 12.5938Z" fill="white"/>
<path d="M8.2944 20.4894V21.2017C8.2944 21.6243 8.16122 21.7571 7.72533 21.7571H7.02307C6.58718 21.7571 6.454 21.6243 6.454 21.2017V20.4894C6.454 20.0669 6.58718 19.9461 7.02307 19.9461H7.72533C8.16122 19.9461 8.2944 20.0669 8.2944 20.4894ZM12.3141 20.4894V21.2017C12.3141 21.6243 12.1809 21.7571 11.7571 21.7571H11.0428C10.6191 21.7571 10.4737 21.6243 10.4737 21.2017V20.4894C10.4737 20.0669 10.6191 19.9461 11.0428 19.9461H11.7571C12.1809 19.9461 12.3141 20.0669 12.3141 20.4894ZM16.3459 20.4894V21.2017C16.3459 21.6243 16.2006 21.7571 15.7769 21.7571H15.0625C14.6387 21.7571 14.4935 21.6243 14.4935 21.2017V20.4894C14.4935 20.0669 14.6387 19.9461 15.0625 19.9461H15.7769C16.2006 19.9461 16.3459 20.0669 16.3459 20.4894ZM8.2944 16.5416V17.2539C8.2944 17.6765 8.16122 17.7972 7.72533 17.7972H7.02307C6.58718 17.7972 6.454 17.6765 6.454 17.2539V16.5416C6.454 16.1191 6.58718 15.9983 7.02307 15.9983H7.72533C8.16122 15.9983 8.2944 16.1191 8.2944 16.5416ZM12.3141 16.5416V17.2539C12.3141 17.6765 12.1809 17.7972 11.7571 17.7972H11.0428C10.6191 17.7972 10.4737 17.6765 10.4737 17.2539V16.5416C10.4737 16.1191 10.6191 15.9983 11.0428 15.9983H11.7571C12.1809 15.9983 12.3141 16.1191 12.3141 16.5416ZM16.3459 16.5416V17.2539C16.3459 17.6765 16.2006 17.7972 15.7769 17.7972H15.0625C14.6387 17.7972 14.4935 17.6765 14.4935 17.2539V16.5416C14.4935 16.1191 14.6387 15.9983 15.0625 15.9983H15.7769C16.2006 15.9983 16.3459 16.1191 16.3459 16.5416ZM12.3141 12.5938V13.3061C12.3141 13.7286 12.1809 13.8493 11.7571 13.8493H11.0428C10.6191 13.8493 10.4737 13.7286 10.4737 13.3061V12.5938C10.4737 12.1712 10.6191 12.0384 11.0428 12.0384H11.7571C12.1809 12.0384 12.3141 12.1712 12.3141 12.5938ZM16.3459 12.5938V13.3061C16.3459 13.7286 16.2006 13.8493 15.7769 13.8493H15.0625C14.6387 13.8493 14.4935 13.7286 14.4935 13.3061V12.5938C14.4935 12.1712 14.6387 12.0384 15.0625 12.0384H15.7769C16.2006 12.0384 16.3459 12.1712 16.3459 12.5938ZM20.3656 12.5938V13.3061C20.3656 13.7286 20.2203 13.8493 19.7966 13.8493H19.0822C18.6584 13.8493 18.5252 13.7286 18.5252 13.3061V12.5938C18.5252 12.1712 18.6584 12.0384 19.0822 12.0384H19.7966C20.2203 12.0384 20.3656 12.1712 20.3656 12.5938Z" fill="white"/>
<path d="M30.6673 22.3671C30.6673 25.7235 27.8462 28.5002 24.5167 28.5002C21.1387 28.5002 18.3661 25.7476 18.3661 22.3671C18.3661 19.0109 21.1387 16.2342 24.5167 16.2342C27.8826 16.2342 30.6673 18.9988 30.6673 22.3671ZM23.8266 18.7936V21.8239H21.6472C21.2356 21.8239 20.8845 22.1619 20.8845 22.5604C20.8845 22.9708 21.2235 23.3089 21.6472 23.3089H24.5773C25.001 23.3089 25.3279 22.9829 25.3279 22.5604V18.7936C25.3279 18.3952 24.9889 18.0693 24.5773 18.0693C24.1655 18.0693 23.8266 18.3952 23.8266 18.7936Z" fill="white"/>
<path d="M30.6673 22.3671C30.6673 25.7235 27.8462 28.5002 24.5167 28.5002C21.1387 28.5002 18.3661 25.7476 18.3661 22.3671C18.3661 19.0109 21.1387 16.2342 24.5167 16.2342C27.8826 16.2342 30.6673 18.9988 30.6673 22.3671ZM23.8266 18.7936V21.8239H21.6472C21.2356 21.8239 20.8845 22.1619 20.8845 22.5604C20.8845 22.9708 21.2235 23.3089 21.6472 23.3089H24.5773C25.001 23.3089 25.3279 22.9829 25.3279 22.5604V18.7936C25.3279 18.3952 24.9889 18.0693 24.5773 18.0693C24.1655 18.0693 23.8266 18.3952 23.8266 18.7936Z" fill="white"/>
</g>
<defs>
<clipPath id="clip0_344_893">
<rect y="0.250122" width="32" height="32" rx="5" fill="white"/>
</clipPath>
</defs>
</svg>
