<svg width="32" height="33" viewBox="0 0 32 33" fill="none" xmlns="http://www.w3.org/2000/svg">
<g clip-path="url(#clip0_344_915)">
<path d="M7.78123 27.3348H24.2308C26.7476 27.3348 28 26.0823 28 23.6016V8.89822C28 6.41755 26.7476 5.16516 24.2308 5.16516H7.78123C5.26442 5.16516 4 6.4055 4 8.89822V23.6016C4 26.0944 5.26442 27.3348 7.78123 27.3348ZM7.6006 25.3959C6.52885 25.3959 5.93878 24.83 5.93878 23.71V12.3543C5.93878 11.2464 6.52885 10.6684 7.6006 10.6684H24.3873C25.4591 10.6684 26.0612 11.2464 26.0612 12.3543V23.71C26.0612 24.83 25.4591 25.3959 24.3873 25.3959H7.6006ZM13.6578 14.9915H14.3682C14.7898 14.9915 14.9222 14.8711 14.9222 14.4496V13.7392C14.9222 13.3177 14.7898 13.1852 14.3682 13.1852H13.6578C13.2363 13.1852 13.0918 13.3177 13.0918 13.7392V14.4496C13.0918 14.8711 13.2363 14.9915 13.6578 14.9915ZM17.6558 14.9915H18.3663C18.7877 14.9915 18.9322 14.8711 18.9322 14.4496V13.7392C18.9322 13.3177 18.7877 13.1852 18.3663 13.1852H17.6558C17.2343 13.1852 17.0898 13.3177 17.0898 13.7392V14.4496C17.0898 14.8711 17.2343 14.9915 17.6558 14.9915ZM21.6538 14.9915H22.3643C22.7857 14.9915 22.9303 14.8711 22.9303 14.4496V13.7392C22.9303 13.3177 22.7857 13.1852 22.3643 13.1852H21.6538C21.2323 13.1852 21.0998 13.3177 21.0998 13.7392V14.4496C21.0998 14.8711 21.2323 14.9915 21.6538 14.9915ZM9.6598 18.9293H10.3582C10.7918 18.9293 10.9242 18.8089 10.9242 18.3874V17.6769C10.9242 17.2555 10.7918 17.1351 10.3582 17.1351H9.6598C9.22629 17.1351 9.09382 17.2555 9.09382 17.6769V18.3874C9.09382 18.8089 9.22629 18.9293 9.6598 18.9293ZM13.6578 18.9293H14.3682C14.7898 18.9293 14.9222 18.8089 14.9222 18.3874V17.6769C14.9222 17.2555 14.7898 17.1351 14.3682 17.1351H13.6578C13.2363 17.1351 13.0918 17.2555 13.0918 17.6769V18.3874C13.0918 18.8089 13.2363 18.9293 13.6578 18.9293ZM17.6558 18.9293H18.3663C18.7877 18.9293 18.9322 18.8089 18.9322 18.3874V17.6769C18.9322 17.2555 18.7877 17.1351 18.3663 17.1351H17.6558C17.2343 17.1351 17.0898 17.2555 17.0898 17.6769V18.3874C17.0898 18.8089 17.2343 18.9293 17.6558 18.9293ZM21.6538 18.9293H22.3643C22.7857 18.9293 22.9303 18.8089 22.9303 18.3874V17.6769C22.9303 17.2555 22.7857 17.1351 22.3643 17.1351H21.6538C21.2323 17.1351 21.0998 17.2555 21.0998 17.6769V18.3874C21.0998 18.8089 21.2323 18.9293 21.6538 18.9293ZM9.6598 22.8791H10.3582C10.7918 22.8791 10.9242 22.7467 10.9242 22.3252V21.6147C10.9242 21.1932 10.7918 21.0728 10.3582 21.0728H9.6598C9.22629 21.0728 9.09382 21.1932 9.09382 21.6147V22.3252C9.09382 22.7467 9.22629 22.8791 9.6598 22.8791ZM13.6578 22.8791H14.3682C14.7898 22.8791 14.9222 22.7467 14.9222 22.3252V21.6147C14.9222 21.1932 14.7898 21.0728 14.3682 21.0728H13.6578C13.2363 21.0728 13.0918 21.1932 13.0918 21.6147V22.3252C13.0918 22.7467 13.2363 22.8791 13.6578 22.8791ZM17.6558 22.8791H18.3663C18.7877 22.8791 18.9322 22.7467 18.9322 22.3252V21.6147C18.9322 21.1932 18.7877 21.0728 18.3663 21.0728H17.6558C17.2343 21.0728 17.0898 21.1932 17.0898 21.6147V22.3252C17.0898 22.7467 17.2343 22.8791 17.6558 22.8791Z" fill="white"/>
</g>
<defs>
<clipPath id="clip0_344_915">
<rect y="0.25" width="32" height="32" rx="5" fill="white"/>
</clipPath>
</defs>
</svg>
