<svg width="32" height="33" viewBox="0 0 32 33" fill="none" xmlns="http://www.w3.org/2000/svg">
<g clip-path="url(#clip0_344_728)">
<path d="M15.7674 3.99965C15.5851 4.07778 15.4966 4.22361 15.1997 4.90069C14.4237 6.68194 14.2205 7.74444 14.5382 8.39548C14.6789 8.68194 14.9966 9.01527 15.2466 9.12986L15.4289 9.2184V11.4007H11.2101V10.3121L11.382 10.2236C11.8195 9.99444 12.0903 9.66632 12.2257 9.19236C12.4497 8.41632 11.9809 7.16632 11.1476 6.33298C10.9289 6.11423 10.8768 6.08819 10.6632 6.08819C10.4601 6.08819 10.4028 6.11423 10.2257 6.29132C9.77261 6.74444 9.31428 7.49965 9.14761 8.06736C9.02261 8.49444 9.03823 9.07777 9.17886 9.41111C9.30907 9.70798 9.77261 10.1819 9.99136 10.234C10.1164 10.2653 10.1164 10.2757 10.1164 10.833V11.3955L7.52369 11.4111C4.94449 11.4267 4.93393 11.4268 4.66844 11.5465C4.33511 11.6976 4.01219 12.0257 3.85594 12.3642C3.74136 12.6194 3.73615 12.6715 3.72053 14.4996C3.71011 16.2705 3.71532 16.3851 3.80907 16.5361C3.8924 16.6767 4.0799 16.7705 5.18407 17.2288C7.10074 18.0205 7.31428 18.0309 8.8924 17.359C9.67886 17.0257 9.74657 17.0101 10.1424 17.0049C10.5487 16.9996 10.5851 17.0101 11.4445 17.3746C12.882 17.984 13.2049 17.9892 14.5591 17.4371L14.6129 17.4153C15.4534 17.0745 15.6375 16.9998 15.8267 16.9834C15.8798 16.9788 15.9333 16.9788 16.0018 16.9788C16.0703 16.9788 16.1237 16.9788 16.1768 16.9834C16.366 16.9998 16.5502 17.0745 17.3907 17.4153L17.4445 17.4371C18.7987 17.9892 19.1216 17.984 20.5591 17.3746C21.4184 17.0101 21.4549 16.9996 21.8612 17.0049C22.257 17.0101 22.3247 17.0257 23.1112 17.359C24.6893 18.0309 24.8924 18.0205 26.8143 17.2288C27.9237 16.7705 28.1112 16.6715 28.1945 16.5361C28.2882 16.3851 28.2934 16.2653 28.283 14.4996C28.2674 12.6715 28.2622 12.6194 28.1476 12.3642C27.9914 12.0257 27.6684 11.6976 27.3351 11.5465C27.0696 11.4268 27.0591 11.4267 24.4851 11.4111L21.8872 11.3955V10.3174L22.1112 10.1871C22.4184 10.0049 22.6945 9.69757 22.8299 9.40069C22.9653 9.08298 22.9809 8.48923 22.8559 8.06736C22.6893 7.49965 22.2309 6.74444 21.7778 6.29132C21.6007 6.11423 21.5434 6.08819 21.3403 6.08819C21.1268 6.08819 21.0747 6.11423 20.8559 6.33298C20.0226 7.16632 19.5539 8.41632 19.7778 9.19236C19.9132 9.66632 20.1841 9.99444 20.6268 10.2236L20.7934 10.3121V11.4007H16.5747V9.2184L16.757 9.12986C17.007 9.01007 17.3247 8.68194 17.4705 8.39027C17.7049 7.9059 17.6424 7.16632 17.283 6.10382C17.033 5.37465 16.5382 4.26007 16.3976 4.11944C16.2674 3.98403 15.9393 3.92673 15.7674 3.99965Z" fill="white"/>
<path d="M9.10339 18.3525C8.03047 18.7952 7.83255 18.8473 7.18151 18.8473C6.6138 18.8473 6.22318 18.7483 5.41068 18.4098C5.09818 18.2744 4.82214 18.1702 4.79609 18.1702C4.77005 18.1702 4.74922 19.2119 4.74922 20.6702V23.1702H27.2492V20.6702C27.2492 19.2119 27.2284 18.1702 27.2023 18.1702C27.1763 18.1702 26.9003 18.2744 26.5878 18.4098C25.7648 18.7536 25.3846 18.8473 24.8013 18.8473C24.1763 18.8473 23.9107 18.7796 22.8065 18.3265C22.3169 18.1233 21.8846 17.9619 21.8482 17.9619C21.8065 17.9619 21.3846 18.1233 20.9055 18.3213C19.8482 18.7588 19.5253 18.8473 18.9523 18.8473C18.3221 18.8473 18.0773 18.7848 17.0096 18.3473C16.4888 18.1338 16.0357 17.9619 15.9992 17.9619C15.9628 17.9619 15.5096 18.1338 14.9888 18.3473C13.9211 18.7848 13.6763 18.8473 13.0461 18.8473C12.4732 18.8473 12.1503 18.7588 11.093 18.3213C10.6138 18.1233 10.1815 17.9619 10.1294 17.9671C10.0773 17.9723 9.61901 18.1442 9.10339 18.3525Z" fill="white"/>
<path d="M2.82747 25.1052C3.01497 24.7302 3.30664 24.4593 3.67643 24.3187C3.93685 24.2145 4.16602 24.2145 15.9837 24.2145C27.916 24.2093 28.0306 24.2093 28.3066 24.3135C28.6921 24.4593 28.9837 24.725 29.1712 25.1052C29.3118 25.3812 29.3327 25.4802 29.3327 25.8447C29.3327 26.35 29.2493 26.6937 29.0202 27.1156C28.6868 27.7458 28.0358 28.2458 27.3066 28.4333C26.9316 28.527 26.5618 28.5322 15.9993 28.5322C5.43685 28.5322 5.06706 28.527 4.69206 28.4333C3.96289 28.2458 3.31185 27.7458 2.97852 27.1156C2.74935 26.6937 2.66602 26.35 2.66602 25.8447C2.66602 25.4802 2.68685 25.3812 2.82747 25.1052Z" fill="white"/>
</g>
<defs>
<clipPath id="clip0_344_728">
<rect y="0.250122" width="32" height="32" rx="5" fill="white"/>
</clipPath>
</defs>
</svg>
