<svg width="32" height="33" viewBox="0 0 32 33" fill="none" xmlns="http://www.w3.org/2000/svg">
<g clip-path="url(#clip0_344_882)">
<path d="M25.4667 7.74283V14.6423C25.1544 14.5969 24.8345 14.5768 24.5101 14.5768C24.1733 14.5768 23.8411 14.5985 23.5173 14.6481V11.2081C23.5173 10.0973 22.9118 9.51772 21.8341 9.51772H4.9545C3.87682 9.51772 3.28349 10.0973 3.28349 11.2081V22.5939C3.28349 23.7169 3.87682 24.2843 4.9545 24.2843H16.9512C17.119 24.9767 17.3886 25.6294 17.7422 26.2282H5.13613C2.6054 26.2282 1.33398 24.9846 1.33398 22.4852V7.74283C1.33398 5.2435 2.6054 3.99988 5.13613 3.99988H21.6767C24.2074 3.99988 25.4667 5.25558 25.4667 7.74283Z" fill="white"/>
<path d="M8.28384 20.4894V21.2018C8.28384 21.6244 8.15065 21.7572 7.71471 21.7572H7.01239C6.57655 21.7572 6.44326 21.6244 6.44326 21.2018V20.4894C6.44326 20.0669 6.57655 19.9461 7.01239 19.9461H7.71471C8.15065 19.9461 8.28384 20.0669 8.28384 20.4894ZM12.3039 20.4894V21.2018C12.3039 21.6244 12.1707 21.7572 11.747 21.7572H11.0325C10.6087 21.7572 10.4634 21.6244 10.4634 21.2018V20.4894C10.4634 20.0669 10.6087 19.9461 11.0325 19.9461H11.747C12.1707 19.9461 12.3039 20.0669 12.3039 20.4894ZM16.3362 20.4894V21.2018C16.3362 21.6244 16.1908 21.7572 15.7671 21.7572H15.0527C14.6288 21.7572 14.4835 21.6244 14.4835 21.2018V20.4894C14.4835 20.0669 14.6288 19.9461 15.0527 19.9461H15.7671C16.1908 19.9461 16.3362 20.0669 16.3362 20.4894ZM8.28384 16.5412V17.2536C8.28384 17.6762 8.15065 17.797 7.71471 17.797H7.01239C6.57655 17.797 6.44326 17.6762 6.44326 17.2536V16.5412C6.44326 16.1187 6.57655 15.9979 7.01239 15.9979H7.71471C8.15065 15.9979 8.28384 16.1187 8.28384 16.5412ZM12.3039 16.5412V17.2536C12.3039 17.6762 12.1707 17.797 11.747 17.797H11.0325C10.6087 17.797 10.4634 17.6762 10.4634 17.2536V16.5412C10.4634 16.1187 10.6087 15.9979 11.0325 15.9979H11.747C12.1707 15.9979 12.3039 16.1187 12.3039 16.5412ZM16.3362 16.5412V17.2536C16.3362 17.6762 16.1908 17.797 15.7671 17.797H15.0527C14.6288 17.797 14.4835 17.6762 14.4835 17.2536V16.5412C14.4835 16.1187 14.6288 15.9979 15.0527 15.9979H15.7671C16.1908 15.9979 16.3362 16.1187 16.3362 16.5412ZM12.3039 12.593V13.3054C12.3039 13.7279 12.1707 13.8487 11.747 13.8487H11.0325C10.6087 13.8487 10.4634 13.7279 10.4634 13.3054V12.593C10.4634 12.1704 10.6087 12.0376 11.0325 12.0376H11.747C12.1707 12.0376 12.3039 12.1704 12.3039 12.593ZM16.3362 12.593V13.3054C16.3362 13.7279 16.1908 13.8487 15.7671 13.8487H15.0527C14.6288 13.8487 14.4835 13.7279 14.4835 13.3054V12.593C14.4835 12.1704 14.6288 12.0376 15.0527 12.0376H15.7671C16.1908 12.0376 16.3362 12.1704 16.3362 12.593ZM20.3563 12.593V13.3054C20.3563 13.7279 20.211 13.8487 19.7871 13.8487H19.0727C18.6489 13.8487 18.5157 13.7279 18.5157 13.3054V12.593C18.5157 12.1704 18.6489 12.0376 19.0727 12.0376H19.7871C20.211 12.0376 20.3563 12.1704 20.3563 12.593Z" fill="white"/>
<path d="M30.6673 22.3666C30.6673 25.7233 27.846 28.5003 24.5161 28.5003C21.1378 28.5003 18.3649 25.7474 18.3649 22.3666C18.3649 19.01 21.1378 16.233 24.5161 16.233C27.8823 16.233 30.6673 18.998 30.6673 22.3666ZM26.6957 19.65L23.7411 23.7311L22.2518 22.1252C22.1307 21.9924 21.9369 21.8716 21.6826 21.8716C21.2589 21.8716 20.9198 22.1976 20.9198 22.6323C20.9198 22.8013 20.9803 23.0187 21.1256 23.1756L23.172 25.4214C23.3295 25.5905 23.5716 25.675 23.7775 25.675C24.0439 25.675 24.286 25.5663 24.4193 25.3851L27.9308 20.5193C28.0398 20.3623 28.1002 20.1934 28.1002 20.0605C28.1002 19.6379 27.737 19.3119 27.3375 19.3119C27.0589 19.3119 26.841 19.4568 26.6957 19.65Z" fill="white"/>
</g>
<defs>
<clipPath id="clip0_344_882">
<rect y="0.250122" width="32" height="32" rx="5" fill="white"/>
</clipPath>
</defs>
</svg>
