<svg width="32" height="33" viewBox="0 0 32 33" fill="none" xmlns="http://www.w3.org/2000/svg">
<g clip-path="url(#clip0_344_904)">
<path d="M13.6578 14.9917H14.3682C14.7898 14.9917 14.9222 14.8712 14.9222 14.4498V13.7393C14.9222 13.3178 14.7898 13.1853 14.3682 13.1853H13.6578C13.2363 13.1853 13.0918 13.3178 13.0918 13.7393V14.4498C13.0918 14.8712 13.2363 14.9917 13.6578 14.9917Z" fill="white"/>
<path d="M17.6558 14.9917H18.3663C18.7877 14.9917 18.9322 14.8712 18.9322 14.4498V13.7393C18.9322 13.3178 18.7877 13.1853 18.3663 13.1853H17.6558C17.2343 13.1853 17.0898 13.3178 17.0898 13.7393V14.4498C17.0898 14.8712 17.2343 14.9917 17.6558 14.9917Z" fill="white"/>
<path d="M21.6538 14.9917H22.3643C22.7857 14.9917 22.9303 14.8712 22.9303 14.4498V13.7393C22.9303 13.3178 22.7857 13.1853 22.3643 13.1853H21.6538C21.2323 13.1853 21.0998 13.3178 21.0998 13.7393V14.4498C21.0998 14.8712 21.2323 14.9917 21.6538 14.9917Z" fill="white"/>
<path d="M9.6598 18.9295H10.3582C10.7918 18.9295 10.9242 18.809 10.9242 18.3875V17.677C10.9242 17.2556 10.7918 17.1352 10.3582 17.1352H9.6598C9.22629 17.1352 9.09382 17.2556 9.09382 17.677V18.3875C9.09382 18.809 9.22629 18.9295 9.6598 18.9295Z" fill="white"/>
<path d="M13.6578 18.9295H14.3682C14.7898 18.9295 14.9222 18.809 14.9222 18.3875V17.677C14.9222 17.2556 14.7898 17.1352 14.3682 17.1352H13.6578C13.2363 17.1352 13.0918 17.2556 13.0918 17.677V18.3875C13.0918 18.809 13.2363 18.9295 13.6578 18.9295Z" fill="white"/>
<path fill-rule="evenodd" clip-rule="evenodd" d="M7.78123 27.3349H24.2308C26.7476 27.3349 28 26.0825 28 23.6017V8.89834C28 6.41767 26.7476 5.16528 24.2308 5.16528H7.78123C5.26442 5.16528 4 6.40562 4 8.89834V23.6017C4 26.0945 5.26442 27.3349 7.78123 27.3349ZM7.6006 25.396C6.52885 25.396 5.93878 24.8301 5.93878 23.7102V12.3544C5.93878 11.2466 6.52885 10.6685 7.6006 10.6685H24.3873C25.4591 10.6685 26.0612 11.2466 26.0612 12.3544V23.7102C26.0612 24.8301 25.4591 25.396 24.3873 25.396H7.6006Z" fill="white"/>
</g>
<defs>
<clipPath id="clip0_344_904">
<rect y="0.250122" width="32" height="32" rx="5" fill="white"/>
</clipPath>
</defs>
</svg>
