<svg width="32" height="33" viewBox="0 0 32 33" fill="none" xmlns="http://www.w3.org/2000/svg">
<g clip-path="url(#clip0_344_926)">
<path d="M24.1014 8.6452V16.5744H22.9953C22.7165 16.5744 22.461 16.6023 22.2268 16.6565V8.73835C22.2268 7.52744 21.5748 6.91034 20.4221 6.91034H6.357C5.19264 6.91034 4.5406 7.52744 4.5406 8.73835V22.7685C4.5406 23.6877 4.91633 24.2648 5.60736 24.4885C6.60808 21.6327 9.68564 19.6365 13.3896 19.6365C14.3715 19.6365 15.3084 19.776 16.1724 20.0365C16.0801 20.3609 16.0325 20.7181 16.0325 21.1035V26.4712H6.32203C3.90021 26.4712 2.66602 25.2719 2.66602 22.8617V8.6452C2.66602 6.23503 3.90021 5.03577 6.32203 5.03577H20.4571C22.8905 5.03577 24.1014 6.24666 24.1014 8.6452ZM17.3716 13.3258C17.3716 15.8175 15.6135 17.7154 13.3896 17.6921C11.1657 17.6688 9.41917 15.8175 9.40755 13.3258C9.39582 10.9855 11.1657 9.05271 13.3896 9.05271C15.6135 9.05271 17.3716 10.9855 17.3716 13.3258Z" fill="white"/>
<path d="M19.2906 28.5177H28.9429C30.084 28.5177 30.6661 27.9472 30.6661 26.8178V21.1009C30.6661 19.9598 30.084 19.3893 28.9429 19.3893H27.5457C27.1265 19.3893 26.9868 19.3195 26.7307 19.04L26.2999 18.5393C26.032 18.2483 25.7526 18.0853 25.1937 18.0853H23.0048C22.4458 18.0853 22.1548 18.2483 21.8871 18.5393L21.4562 19.04C21.2117 19.3079 21.0719 19.3893 20.6411 19.3893H19.2906C18.1495 19.3893 17.5673 19.9598 17.5673 21.1009V26.8178C17.5673 27.9472 18.1495 28.5177 19.2906 28.5177ZM24.1226 27.1438C22.3178 27.1438 20.8856 25.7117 20.8856 23.8954C20.8856 22.1023 22.3178 20.6584 24.1226 20.6584C25.9156 20.6584 27.3594 22.1023 27.3594 23.8954C27.3594 25.7466 25.9156 27.1438 24.1226 27.1438ZM24.1109 26.2123C25.3917 26.2123 26.4162 25.1761 26.4162 23.8954C26.4162 22.6262 25.3917 21.6016 24.1109 21.6016C22.8418 21.6016 21.8171 22.6262 21.8171 23.8954C21.8171 25.1761 22.8418 26.2123 24.1109 26.2123ZM28.4422 22.3468C28.0464 22.3468 27.697 22.0324 27.697 21.6016C27.697 21.2057 28.0464 20.8681 28.4422 20.8681C28.8498 20.8681 29.1758 21.2057 29.1874 21.6016C29.1874 22.0324 28.8498 22.3468 28.4422 22.3468Z" fill="white"/>
</g>
<defs>
<clipPath id="clip0_344_926">
<rect y="0.25" width="32" height="32" rx="5" fill="white"/>
</clipPath>
</defs>
</svg>
