<svg width="32" height="33" viewBox="0 0 32 33" fill="none" xmlns="http://www.w3.org/2000/svg">
<g clip-path="url(#clip0_344_838)">
<path d="M26.0191 14.8822C25.5298 14.7808 25.0235 14.7282 24.506 14.7268C20.2219 14.7157 16.681 18.2381 16.6698 22.5344C16.6648 24.4487 17.3552 26.2092 18.5035 27.5732C17.0165 28.211 15.3851 28.5627 13.6807 28.5583C6.92091 28.5407 1.31643 22.907 1.33403 16.1472C1.35165 9.37512 6.97324 3.78277 13.7331 3.80036C20.0562 3.81682 25.3613 8.71882 26.0191 14.8822ZM12.8835 8.4585L12.8644 15.8009L7.3667 15.7866C6.88131 15.7853 6.51623 16.1485 6.515 16.6218C6.51374 17.1072 6.87692 17.4723 7.36231 17.4735L13.6974 17.49C14.1707 17.4913 14.5479 17.1281 14.5492 16.6427L14.5705 8.46289C14.5717 7.98957 14.1964 7.62451 13.7231 7.62327C13.2498 7.62204 12.8848 7.98518 12.8835 8.4585Z" fill="white"/>
<path d="M30.6508 22.5666C30.642 25.9405 27.8192 28.7245 24.4695 28.7158C21.0957 28.707 18.3115 25.9326 18.3204 22.5345C18.3292 19.1607 21.1278 16.3766 24.5016 16.3854C27.8876 16.3942 30.6596 19.1807 30.6508 22.5666ZM23.4585 25.4606C23.457 26.0311 23.917 26.4813 24.4753 26.4828C25.0458 26.4842 25.496 26.0364 25.5096 25.466C25.511 24.9077 25.0511 24.4332 24.4807 24.4317C23.9224 24.4302 23.46 24.9023 23.4585 25.4606ZM23.6684 19.4172L23.7565 22.8885C23.7676 23.3011 24.058 23.5932 24.4829 23.5943C24.9076 23.5954 25.2118 23.3049 25.225 22.8923L25.3311 19.4216C25.3445 18.9241 25.0056 18.5834 24.4959 18.5821C23.9862 18.5807 23.6576 18.9197 23.6684 19.4172Z" fill="white"/>
</g>
<defs>
<clipPath id="clip0_344_838">
<rect y="0.25" width="32" height="32" rx="5" fill="white"/>
</clipPath>
</defs>
</svg>
