<svg width="32" height="33" viewBox="0 0 32 33" fill="none" xmlns="http://www.w3.org/2000/svg">
<g clip-path="url(#clip0_344_871)">
<path d="M16 28.2501C22.5648 28.2501 28 22.8031 28 16.2501C28 9.68543 22.553 4.25012 15.9883 4.25012C9.4353 4.25012 4 9.68543 4 16.2501C4 22.8031 9.44707 28.2501 16 28.2501ZM16 26.2502C10.4471 26.2502 6.01177 21.8031 6.01177 16.2501C6.01177 10.6972 10.4353 6.25013 15.9883 6.25013C21.5413 6.25013 26.0001 10.6972 26.0001 16.2501C26.0001 21.8031 21.553 26.2502 16 26.2502Z" fill="white"/>
<path d="M9.85194 17.5308H15.9931C16.4519 17.5308 16.8166 17.1779 16.8166 16.7072V8.77783C16.8166 8.319 16.4519 7.96606 15.9931 7.96606C15.5343 7.96606 15.1814 8.319 15.1814 8.77783V15.8954H9.85194C9.38135 15.8954 9.02841 16.2484 9.02841 16.7072C9.02841 17.1779 9.38135 17.5308 9.85194 17.5308Z" fill="white"/>
</g>
<defs>
<clipPath id="clip0_344_871">
<rect y="0.250122" width="32" height="32" rx="5" fill="white"/>
</clipPath>
</defs>
</svg>
