<svg width="32" height="33" viewBox="0 0 32 33" fill="none" xmlns="http://www.w3.org/2000/svg">
<g clip-path="url(#clip0_344_761)">
<path d="M24.4619 12.6552C24.6555 12.6552 24.7878 12.5231 24.8184 12.3505C25.2768 9.94335 25.2564 10.0855 27.5482 9.63865C27.7214 9.60818 27.8538 9.4863 27.8538 9.27301C27.8538 9.08004 27.7112 8.95815 27.5482 8.91753C25.2463 8.45033 25.2768 8.5722 24.8184 6.2057C24.7878 6.03304 24.6555 5.901 24.4619 5.901C24.248 5.901 24.1258 6.02288 24.0952 6.2057C23.6267 8.59252 23.5554 8.48079 21.3858 8.91753C21.2126 8.95815 21.0802 9.08004 21.0802 9.27301C21.0802 9.4863 21.2024 9.60818 21.3858 9.63865C23.5554 10.0652 23.6267 9.9535 24.0952 12.3505C24.1258 12.5333 24.248 12.6552 24.4619 12.6552ZM13.9297 28.8652C14.0927 28.8652 14.1946 28.7535 14.2252 28.6011C14.6224 26.7221 14.6224 26.7221 16.4864 26.3463C16.6392 26.3159 16.7512 26.2143 16.7512 26.0416C16.7512 25.8791 16.6392 25.7674 16.4864 25.7471C14.6224 25.3611 14.6224 25.3611 14.2252 23.4923C14.1946 23.34 14.0927 23.2283 13.9297 23.2283C13.7566 23.2283 13.6547 23.34 13.6242 23.4923C13.2372 25.3611 13.2372 25.3611 11.3731 25.7471C11.2102 25.7674 11.0981 25.8791 11.0981 26.0416C11.0981 26.2143 11.2102 26.3159 11.3731 26.3463C13.2372 26.7221 13.2372 26.7323 13.6242 28.6011C13.6547 28.7535 13.7566 28.8652 13.9297 28.8652ZM8.63314 25.5643C8.77574 25.5643 8.85722 25.4831 8.8776 25.351C9.19336 23.8173 9.19336 23.8173 10.7212 23.5126C10.8537 23.4822 10.9453 23.411 10.9453 23.2587C10.9453 23.1165 10.8537 23.0251 10.7212 23.0048C9.19336 22.7001 9.19336 22.7001 8.8776 21.1665C8.85722 21.0344 8.77574 20.9532 8.63314 20.9532C8.48035 20.9532 8.39887 21.0344 8.37849 21.1665C8.06273 22.7001 8.06273 22.7001 6.53485 23.0048C6.40244 23.0251 6.31076 23.1165 6.31076 23.2587C6.31076 23.411 6.40244 23.4822 6.53485 23.5126C8.06273 23.8173 8.06273 23.8173 8.37849 25.351C8.39887 25.4831 8.48035 25.5643 8.63314 25.5643Z" fill="white"/>
<path d="M23.5574 24.6942C23.8833 24.6942 24.1481 24.4403 24.1481 24.1152V22.5512L24.9732 23.3636C25.2075 23.5973 25.564 23.6074 25.7881 23.3636C26.0427 23.1402 26.0427 22.7848 25.7881 22.541L24.9834 21.7284H26.5418C26.8678 21.7284 27.1325 21.4644 27.1325 21.1393C27.1325 20.8143 26.8678 20.5605 26.5418 20.5605H24.9732L25.7982 19.7378C26.0325 19.5041 26.0325 19.1487 25.7982 18.915C25.564 18.6815 25.2075 18.6713 24.9732 18.915L24.1481 19.7276V18.1737C24.1481 17.8487 23.8833 17.5846 23.5574 17.5846C23.2314 17.5846 22.9768 17.8487 22.9768 18.1737V19.7276L22.1619 18.915C21.9277 18.6815 21.5609 18.6815 21.3267 18.915C21.0822 19.1487 21.0822 19.5041 21.3164 19.7378L22.1415 20.5605H20.5729C20.2572 20.5605 20.0025 20.8143 20.0025 21.1393C20.0025 21.4644 20.2572 21.7284 20.5729 21.7284H22.1415L21.3267 22.541C21.0822 22.7848 21.0822 23.1402 21.3267 23.3636C21.5609 23.6074 21.9174 23.6074 22.1619 23.3636L22.9768 22.5512V24.1152C22.9768 24.4403 23.2314 24.6942 23.5574 24.6942ZM23.5676 16.9447C23.9954 16.9447 24.3315 16.5994 24.3315 16.1627C24.3315 15.7361 23.9954 15.3907 23.5676 15.3907C23.1296 15.3907 22.7934 15.7361 22.7934 16.1627C22.7934 16.5994 23.1296 16.9447 23.5676 16.9447ZM26.9492 18.4682C27.3464 18.4682 27.6724 18.1533 27.6724 17.7471C27.6724 17.351 27.3464 17.0361 26.9492 17.0361C26.552 17.0361 26.2362 17.351 26.2362 17.7471C26.2362 18.1533 26.552 18.4682 26.9492 18.4682ZM28.5586 21.9113C28.9864 21.9113 29.3327 21.5659 29.3327 21.1393C29.3327 20.7128 28.9864 20.3776 28.5586 20.3776C28.1206 20.3776 27.7844 20.7128 27.7844 21.1393C27.7844 21.5659 28.1206 21.9113 28.5586 21.9113ZM26.9492 25.2528C27.3464 25.2528 27.6724 24.9278 27.6724 24.5418C27.6724 24.1356 27.3464 23.8207 26.9492 23.8207C26.552 23.8207 26.2362 24.1356 26.2362 24.5418C26.2362 24.9278 26.552 25.2528 26.9492 25.2528ZM23.5676 26.8881C23.9954 26.8881 24.3315 26.5528 24.3315 26.1263C24.3315 25.6895 23.9954 25.3442 23.5676 25.3442C23.1296 25.3442 22.7934 25.6895 22.7934 26.1263C22.7934 26.5528 23.1296 26.8881 23.5676 26.8881ZM20.1756 25.2427C20.5729 25.2427 20.8886 24.9278 20.8886 24.5418C20.8886 24.1356 20.5729 23.8207 20.1756 23.8207C19.7784 23.8207 19.4525 24.1356 19.4525 24.5418C19.4525 24.9278 19.7784 25.2427 20.1756 25.2427ZM18.5663 21.9113C19.0043 21.9113 19.3506 21.5659 19.3404 21.1393C19.3506 20.7128 19.0043 20.3776 18.5663 20.3776C18.1385 20.3776 17.8024 20.7128 17.8024 21.1393C17.8024 21.5659 18.1385 21.9113 18.5663 21.9113ZM20.1756 18.4682C20.5729 18.4682 20.8886 18.1533 20.8886 17.7471C20.8886 17.351 20.5729 17.0361 20.1756 17.0361C19.7784 17.0361 19.4525 17.351 19.4525 17.7471C19.4525 18.1533 19.7784 18.4682 20.1756 18.4682Z" fill="white"/>
<path d="M10.7026 14.7665C11.0388 14.7665 11.3138 14.5125 11.3138 14.1672L11.3036 13.0297L12.1185 13.8422C12.3425 14.0859 12.7398 14.0859 12.9843 13.8422C13.2083 13.6086 13.2185 13.2125 12.9843 12.9789L12.1592 12.1867H13.3C13.6362 12.1867 13.9112 11.9124 13.9112 11.5773C13.9112 11.2421 13.6362 10.978 13.3 10.978H12.1592L12.9741 10.1858C13.2185 9.94204 13.2083 9.55609 12.9741 9.31233C12.7296 9.08889 12.3425 9.06857 12.0981 9.31233L11.3138 10.1147L11.3036 8.99748C11.3036 8.64199 11.049 8.38807 10.6925 8.38807C10.3665 8.38807 10.0915 8.64199 10.0915 8.99748L10.1017 10.1147L9.297 9.31233C9.05254 9.07873 8.67565 9.07873 8.42101 9.31233C8.19692 9.54593 8.18673 9.9522 8.42101 10.1858L9.24606 10.978H8.10525C7.76911 10.978 7.4941 11.2421 7.4941 11.5773C7.4941 11.9124 7.76911 12.1867 8.10525 12.1867H9.24606L8.43119 12.9789C8.18673 13.2226 8.19692 13.5984 8.43119 13.8422C8.66547 14.0758 9.05254 14.0961 9.297 13.8422L10.0915 13.0297L10.1017 14.1672C10.1017 14.5125 10.3563 14.7665 10.7026 14.7665ZM10.7128 7.18959C11.0795 7.18959 11.3749 6.88489 11.3749 6.51925V4.29495C11.3749 3.92931 11.0795 3.63477 10.7128 3.63477C10.3461 3.63477 10.0406 3.92931 10.0406 4.29495V6.51925C10.0406 6.88489 10.3461 7.18959 10.7128 7.18959ZM12.9435 7.77868C13.2694 7.97165 13.6667 7.85993 13.8602 7.53492L14.9807 5.62546C15.164 5.30045 15.0418 4.89419 14.7362 4.71137C14.4103 4.51839 14.013 4.63012 13.8195 4.95513L12.6991 6.87474C12.5157 7.18959 12.638 7.60601 12.9435 7.77868ZM14.5834 9.4139C14.777 9.73891 15.1844 9.83032 15.5001 9.65766L17.4253 8.55058C17.7411 8.37792 17.8531 7.9615 17.6697 7.64664C17.4864 7.32162 17.0789 7.22006 16.7633 7.40289L14.8279 8.50996C14.5223 8.68262 14.4001 9.10919 14.5834 9.4139ZM15.1844 11.6484C15.1844 12.0242 15.49 12.3085 15.8465 12.3085L18.0772 12.3187C18.4438 12.3187 18.7596 12.014 18.7596 11.6585C18.7596 11.2827 18.4438 10.9882 18.0874 10.9882L15.8465 10.978C15.49 10.978 15.1844 11.2929 15.1844 11.6484ZM14.5834 13.8726C14.4001 14.2078 14.5325 14.604 14.8279 14.7868L16.753 15.904C17.0789 16.0868 17.4864 15.9649 17.6697 15.6704C17.8531 15.3352 17.7308 14.9391 17.4253 14.7563L15.5001 13.6289C15.1946 13.4563 14.7566 13.568 14.5834 13.8726ZM12.9435 15.5079C12.6277 15.711 12.5259 16.1173 12.6991 16.422L13.8093 18.3416C13.9926 18.6565 14.4204 18.7783 14.7362 18.5955C15.052 18.4127 15.1437 18.0065 14.9705 17.6916L13.8602 15.7517C13.6769 15.4571 13.2593 15.3251 12.9435 15.5079ZM10.7128 16.1173C10.3461 16.1173 10.0406 16.4118 10.0406 16.7775V19.0018C10.0406 19.3674 10.3461 19.6619 10.7128 19.6619C11.0795 19.6619 11.3749 19.3674 11.3749 19.0018V16.7775C11.3749 16.4118 11.0795 16.1173 10.7128 16.1173ZM8.47194 15.5181C8.146 15.3251 7.74875 15.4469 7.5654 15.7618L6.44496 17.6814C6.25143 18.0065 6.37365 18.4127 6.68942 18.5853C7.01537 18.7783 7.41262 18.6666 7.59596 18.3416L8.7164 16.4321C8.90993 16.1071 8.7877 15.6907 8.47194 15.5181ZM6.83202 13.8828C6.64867 13.568 6.23105 13.4664 5.92548 13.6391L3.99018 14.7461C3.67442 14.929 3.57256 15.3453 3.74572 15.6602C3.93924 15.9751 4.34667 16.0767 4.66244 15.904L6.58756 14.7969C6.90332 14.6141 7.01537 14.1977 6.83202 13.8828ZM6.24124 11.6585C6.24124 11.2726 5.92548 10.9882 5.56897 10.9882L3.34847 10.978C2.97159 10.978 2.66602 11.2929 2.66602 11.6484C2.66602 12.0242 2.97159 12.3085 3.33828 12.3085L5.56897 12.3187C5.92548 12.3187 6.24124 12.014 6.24124 11.6585ZM6.83202 9.42406C7.01537 9.08889 6.89313 8.69278 6.58756 8.52011L4.67262 7.40289C4.34667 7.20991 3.93924 7.33178 3.74572 7.63649C3.57256 7.97165 3.6846 8.36777 3.99018 8.54043L5.92548 9.66782C6.22087 9.84048 6.65886 9.73891 6.83202 9.42406ZM8.47194 7.78884C8.79789 7.59586 8.89975 7.17943 8.7164 6.88489L7.60614 4.95513C7.43299 4.64028 7.00518 4.51839 6.68942 4.70122C6.36348 4.89419 6.2718 5.30045 6.45515 5.61532L7.5654 7.54508C7.73856 7.84977 8.16636 7.97165 8.47194 7.78884Z" fill="white"/>
</g>
<defs>
<clipPath id="clip0_344_761">
<rect y="0.25" width="32" height="32" rx="5" fill="white"/>
</clipPath>
</defs>
</svg>
