<svg width="32" height="33" viewBox="0 0 32 33" fill="none" xmlns="http://www.w3.org/2000/svg">
<g clip-path="url(#clip0_344_662)">
<path d="M27.2114 24.3715C27.2114 25.33 27.2118 26.2884 27.2113 27.2469C27.2109 27.9341 26.7683 28.4201 26.1407 28.4243C25.5102 28.4285 25.0438 27.9265 25.0432 27.2327C25.0415 25.2962 25.0401 23.3598 25.0475 21.4234C25.0483 21.2047 25.0293 21.0778 24.7587 21.0918C24.521 21.1042 24.3562 21.1036 24.3582 21.4259C24.3702 23.3622 24.3647 25.2986 24.3635 27.2351C24.363 27.9046 23.9523 28.3883 23.3593 28.4238C22.7165 28.4623 22.215 27.9809 22.21 27.2991C22.2025 26.2723 22.2086 25.2453 22.2089 24.2184C22.2093 23.2893 22.2021 22.3602 22.2149 21.4312C22.2184 21.1778 22.1443 21.0738 21.883 21.0939C21.6398 21.1126 21.3942 21.1026 21.1497 21.1001C20.8255 21.0966 20.7008 20.9531 20.7686 20.6384C20.9075 19.9937 21.0551 19.3509 21.2034 18.7083C21.6637 16.714 22.1268 14.7204 22.5864 12.7259C22.6578 12.4163 22.5118 12.2386 22.2443 12.2888C22.0786 12.3198 22.0285 12.4523 21.9951 12.5824C21.6496 13.9312 21.1739 15.2394 20.7577 16.5661C20.6266 16.9839 20.3371 17.2084 19.9551 17.2171C19.4285 17.2292 19.0135 16.7203 19.1495 16.2107C19.5774 14.607 19.9998 13.0017 20.5403 11.4305C20.9525 10.2323 21.9837 9.48017 23.2432 9.47432C24.2116 9.46981 25.1801 9.46619 26.1485 9.47271C27.4782 9.48166 28.4807 10.1824 28.8711 11.4613C29.4524 13.3658 30.1112 15.2465 30.6263 17.1712C30.7654 17.6912 30.5421 18.1661 30.0876 18.3138C29.5984 18.4727 29.0999 18.2132 28.9389 17.6851C28.4339 16.0281 27.9408 14.3675 27.4433 12.7082C27.421 12.6337 27.406 12.5568 27.3796 12.4839C27.3216 12.3242 27.2068 12.2522 27.0367 12.2824C26.8625 12.3132 26.7785 12.4288 26.8001 12.5956C26.8273 12.8063 26.8742 13.015 26.9223 13.2223C27.3761 15.1782 27.8332 17.1332 28.2861 19.0893C28.4065 19.6093 28.5197 20.1311 28.6286 20.6536C28.6937 20.9657 28.5886 21.0952 28.2765 21.1004C28.0125 21.1048 27.7477 21.1114 27.4845 21.0963C27.2675 21.0839 27.2026 21.1579 27.2053 21.3789C27.2174 22.3763 27.2106 23.374 27.2114 24.3715Z" fill="white"/>
<path d="M9.02186 20.1526C9.02186 22.5096 9.00387 24.8668 9.03278 27.2234C9.0415 27.9342 8.51054 28.4281 7.94959 28.423C7.32784 28.4174 6.88466 27.9309 6.88399 27.2368C6.88151 24.6647 6.8817 22.0926 6.88076 19.5205C6.88069 19.317 6.92389 19.101 6.59586 19.0987C6.22176 19.0962 6.19965 19.1014 6.19964 19.4781C6.19963 22.06 6.20021 24.6418 6.1994 27.2237C6.19923 27.7644 5.94222 28.176 5.50692 28.3433C4.82116 28.607 4.08159 28.1259 4.03609 27.3849C4.0295 27.2777 4.03404 27.1698 4.03402 27.0622C4.03325 22.3581 4.03285 17.6539 4.03076 12.9498C4.03067 12.7617 4.08639 12.499 3.8126 12.4864C3.55561 12.4746 3.51143 12.7177 3.49374 12.9319C3.39812 14.0899 3.30358 15.2479 3.2069 16.4057C3.17196 16.8242 3.14269 17.2435 3.09172 17.6601C3.03143 18.1528 2.62149 18.4797 2.13125 18.4486C1.67282 18.4194 1.30723 18.0268 1.33552 17.5325C1.38572 16.6555 1.46553 15.7801 1.53706 14.9044C1.60304 14.0966 1.69963 13.2904 1.73765 12.4813C1.79877 11.1809 2.87473 9.93143 4.15182 9.70532C4.52203 9.63978 4.89099 9.65094 5.26127 9.64977C6.259 9.64659 7.25694 9.66106 8.25445 9.64578C9.79035 9.62226 10.7331 10.5678 11.1247 11.7179C11.4413 12.6481 11.5497 13.6292 11.7697 14.5835C11.8895 15.1031 11.984 15.6288 12.0837 16.1529C12.1744 16.6304 11.9004 17.0845 11.4593 17.2017C10.9908 17.3262 10.5073 17.0848 10.3766 16.596C10.2087 15.9681 10.0966 15.3252 9.96388 14.6881C9.84303 14.108 9.73606 13.5248 9.60351 12.9474C9.55621 12.7414 9.5307 12.4357 9.22879 12.4796C8.96274 12.5182 9.02592 12.7983 9.02564 12.9938C9.02223 15.3801 9.02343 17.7663 9.02343 20.1526H9.02186Z" fill="white"/>
<path d="M13.6424 24.1359C13.6424 23.0115 13.639 21.8872 13.6456 20.7628C13.6467 20.571 13.598 20.4772 13.3964 20.4109C12.4104 20.0867 11.7462 19.3983 11.3105 18.4769C11.13 18.0951 11.2795 17.6591 11.6339 17.4633C11.9853 17.2693 12.4487 17.3727 12.6557 17.7473C13.2412 18.8068 14.1759 19.1722 15.3222 19.153C15.9256 19.1429 16.5312 19.1932 17.1203 18.9878C17.6992 18.7859 18.1503 18.4419 18.456 17.91C18.6012 17.6575 18.773 17.4369 19.0856 17.3884C19.4041 17.339 19.665 17.4405 19.855 17.7026C20.0381 17.9553 20.05 18.2294 19.9166 18.5044C19.4713 19.4228 18.8035 20.1062 17.8105 20.4148C17.5998 20.4802 17.5985 20.5981 17.5987 20.7614C17.6006 22.5604 17.6 24.3594 17.5998 26.1584C17.5998 26.6081 17.6037 27.0579 17.5973 27.5076C17.5897 28.0476 17.2329 28.4223 16.7385 28.4208C16.2497 28.4193 15.8856 28.0293 15.8849 27.4998C15.8834 26.3559 15.8816 25.2119 15.8877 24.068C15.8888 23.8696 15.8539 23.7641 15.618 23.7657C15.4114 23.7671 15.3535 23.8275 15.355 24.031C15.3634 25.1846 15.3396 26.3388 15.3683 27.4918C15.3797 27.9507 15.0097 28.41 14.515 28.4194C14.0294 28.4287 13.6525 28.0469 13.648 27.509C13.6386 26.3847 13.6452 25.2603 13.6452 24.1359H13.6424Z" fill="white"/>
<path d="M8.95621 6.4998C8.9593 7.82712 7.87196 8.92011 6.53999 8.92859C5.21916 8.937 4.09547 7.80906 4.10216 6.48156C4.10869 5.18745 5.20612 4.07775 6.48301 4.07411C7.86306 4.07017 8.95305 5.13922 8.95621 6.4998Z" fill="white"/>
<path d="M27.1041 6.58258C27.1122 7.89555 26.0445 8.98703 24.7418 8.99731C23.372 9.00812 22.2853 7.9483 22.2792 6.59574C22.2732 5.24484 23.3243 4.16712 24.6692 4.14511C26.0016 4.12331 27.0955 5.21846 27.1041 6.58258Z" fill="white"/>
<path d="M17.5936 16.6518C17.6068 17.7452 16.7175 18.6493 15.6206 18.6578C14.5371 18.6661 13.6307 17.7776 13.6053 16.6822C13.5803 15.6045 14.4756 14.6911 15.577 14.6705C16.6955 14.6497 17.5799 15.5186 17.5936 16.6518Z" fill="white"/>
</g>
<defs>
<clipPath id="clip0_344_662">
<rect y="0.250122" width="32" height="32" rx="5" fill="white"/>
</clipPath>
</defs>
</svg>
