<svg width="32" height="33" viewBox="0 0 32 33" fill="none" xmlns="http://www.w3.org/2000/svg">
<g clip-path="url(#clip0_344_750)">
<path d="M9.69687 9.15632C11.0486 9.15632 12.1323 8.12399 12.1323 6.84685C12.1323 5.55908 11.0486 4.52673 9.69687 4.52673C8.3451 4.52673 7.26147 5.55908 7.26147 6.84685C7.26147 8.12399 8.3451 9.15632 9.69687 9.15632ZM22.2537 9.15632C23.5942 9.15632 24.6778 8.12399 24.6778 6.84685C24.6778 5.55908 23.5942 4.52673 22.2537 4.52673C20.9019 4.52673 19.8183 5.55908 19.8183 6.84685C19.8183 8.12399 20.9019 9.15632 22.2537 9.15632ZM9.68572 19.1499C10.1661 19.1499 10.3671 19.4266 10.6129 20.2142C10.9592 21.2677 12.1434 25.7377 12.4785 27.0574C12.6461 27.7173 13.0147 27.994 13.5398 27.994C14.2548 27.994 14.6793 27.3767 14.4894 26.7062C14.4224 26.4189 12.7801 19.9693 12.5679 18.639C12.3556 17.2767 12.3333 14.3074 12.3445 13.456C12.3669 12.7217 12.7131 12.3704 13.3946 12.264C14.0426 12.1576 15.0703 12.1044 15.9864 12.115C16.936 12.115 17.9191 12.1576 18.5782 12.264C19.2596 12.3704 19.606 12.7217 19.6171 13.456C19.6395 14.3074 19.606 17.2767 19.3713 18.639C19.1479 19.9693 17.528 26.4189 17.4387 26.7062C17.2488 27.3767 17.6956 27.994 18.3995 27.994C18.9245 27.994 19.282 27.7173 19.4719 27.0574C19.8406 25.7483 20.9912 21.2891 21.3487 20.2142C21.6168 19.4478 21.7956 19.1499 22.2537 19.1499C22.7228 19.1499 22.9351 19.4266 23.1808 20.2142C23.516 21.2677 24.7114 25.7377 25.0464 27.0574C25.214 27.7173 25.5939 27.994 26.1077 27.994C26.8227 27.994 27.2472 27.3767 27.0573 26.7062C26.9792 26.4189 25.3481 19.9693 25.1247 18.639C24.9124 17.2767 24.9124 14.3074 24.9236 13.3921C24.9236 12.7536 25.214 12.3492 25.7727 12.2321C26.2976 12.115 30.5652 11.6787 31.1573 11.4977C31.6265 11.3594 31.9616 10.9869 31.9616 10.4973C31.9616 9.88004 31.4589 9.50754 31.012 9.50754C30.8221 9.50754 30.6434 9.55011 30.4312 9.59268C28.6996 9.89068 24.9347 10.178 22.2537 10.2738C19.9746 10.3377 17.5504 10.3909 16.0311 10.3909C14.4894 10.3909 12.0094 10.3377 9.68572 10.2738C7.03803 10.1993 3.23973 9.91196 1.49698 9.59268C1.31823 9.55011 1.11715 9.50754 0.949577 9.50754C0.458031 9.50754 0 9.88004 0 10.4973C0 10.9869 0.312802 11.4019 0.793175 11.4977C1.4076 11.6254 5.65277 12.1363 6.17783 12.2321C6.71406 12.3279 7.03803 12.7536 7.06038 13.3921C7.07155 14.3074 7.03803 17.2767 6.80344 18.639C6.58 19.9693 4.96014 26.4189 4.88194 26.7062C4.68086 27.3767 5.12772 27.994 5.83152 27.994C6.35658 27.994 6.72524 27.7173 6.91515 27.0574C7.2838 25.7483 8.4233 21.2891 8.79196 20.2142C9.06008 19.4478 9.22765 19.1499 9.68572 19.1499Z" fill="white"/>
</g>
<defs>
<clipPath id="clip0_344_750">
<rect y="0.250122" width="32" height="32" rx="5" fill="white"/>
</clipPath>
</defs>
</svg>
