<svg width="32" height="33" viewBox="0 0 32 33" fill="none" xmlns="http://www.w3.org/2000/svg">
<g clip-path="url(#clip0_344_629)">
<path d="M16.342 7.57525C17.6434 7.57525 18.6955 6.53056 18.6955 5.23001C18.6955 3.95079 17.6434 2.91675 16.342 2.91675C15.0188 2.91675 13.956 3.95079 13.956 5.23001C13.956 6.53056 15.0188 7.57525 16.342 7.57525ZM20.3874 29.5352C20.9731 29.3647 21.2767 28.7251 21.0815 28.1494L19.3571 23.0432C19.3028 22.8833 19.2486 22.8193 19.151 22.6808L16.2552 19.4187L16.8626 12.9267C16.8734 12.7134 17.1338 12.6495 17.2531 12.8307L18.6521 14.9521C18.8581 15.2506 19.1619 15.5171 19.4655 15.6877L22.9686 17.5425C23.5109 17.8197 24.1725 17.6278 24.4762 17.1055C24.7473 16.5724 24.5629 15.9116 24.0315 15.6237L20.5175 13.7795L18.1858 10.2403C17.5459 9.27022 16.6131 8.69457 15.3225 8.69457H13.0124L12.1122 17.1055C11.9929 18.1928 12.199 18.8964 13.0992 19.8025L17.3289 23.9812L18.9883 28.8317C19.2269 29.5352 19.8668 29.6739 20.3874 29.5352ZM10.7457 17.1055H12.5243C13.4788 17.1055 14.2163 16.4125 14.2163 15.5171V9.15296C14.2163 8.2575 13.4788 7.55393 12.5243 7.55393H11.3096C9.93225 7.55393 9.12968 8.35344 9.12968 9.72861V15.5171C9.12968 16.4552 9.79125 17.1055 10.7457 17.1055ZM7.71975 29.2474C8.16442 29.6951 8.83684 29.6739 9.27067 29.2474L13.3269 25.2818C13.4028 25.1966 13.4896 25.122 13.533 25.026L14.6501 22.798L12.7087 20.8898L11.5808 23.928L7.71975 27.7444C7.29677 28.1707 7.28593 28.8317 7.71975 29.2474ZM23.4241 11.6155C23.088 11.6155 22.8276 11.8713 22.8276 12.2017V13.8221L24.0315 14.4617V12.2017C24.0315 11.8713 23.7604 11.6155 23.4241 11.6155ZM23.4241 29.5672C23.7604 29.5672 24.0315 29.3007 24.0315 28.9702V18.6298C23.6411 18.7364 23.2289 18.7258 22.8276 18.5979V28.9702C22.8276 29.3007 23.088 29.5672 23.4241 29.5672Z" fill="white"/>
</g>
<defs>
<clipPath id="clip0_344_629">
<rect y="0.250122" width="32" height="32" rx="5" fill="white"/>
</clipPath>
</defs>
</svg>
