<svg width="36" height="37" viewBox="0 0 36 37" fill="none" xmlns="http://www.w3.org/2000/svg">
<foreignObject x="-50" y="-49.9541" width="136" height="136"><div xmlns="http://www.w3.org/1999/xhtml" style="backdrop-filter:blur(25px);clip-path:url(#bgblur_0_1966_58990_clip_path);height:100%;width:100%"></div></foreignObject><g data-figma-bg-blur-radius="50">
<path d="M18.343 9.37139C19.6444 9.37139 20.6965 8.3267 20.6965 7.02615C20.6965 5.74693 19.6444 4.71289 18.343 4.71289C17.0198 4.71289 15.9569 5.74693 15.9569 7.02615C15.9569 8.3267 17.0198 9.37139 18.343 9.37139ZM22.3884 31.3314C22.974 31.1608 23.2777 30.5212 23.0825 29.9456L21.358 24.8393C21.3038 24.6794 21.2496 24.6155 21.1519 24.4769L18.2562 21.2148L18.8636 14.7228C18.8744 14.5096 19.1347 14.4456 19.254 14.6268L20.6531 16.7483C20.8591 17.0467 21.1629 17.3133 21.4665 17.4838L24.9696 19.3386C25.5119 19.6158 26.1735 19.424 26.4772 18.9016C26.7483 18.3686 26.5639 17.7077 26.0325 17.4199L22.5185 15.5756L20.1867 12.0364C19.5469 11.0664 18.6141 10.4907 17.3235 10.4907H15.0134L14.1132 18.9016C13.9939 19.989 14.2 20.6925 15.1001 21.5986L19.3299 25.7774L20.9893 30.6278C21.2279 31.3314 21.8678 31.47 22.3884 31.3314ZM12.7466 18.9016H14.5253C15.4797 18.9016 16.2172 18.2087 16.2172 17.3133V10.9491C16.2172 10.0536 15.4797 9.35008 14.5253 9.35008H13.3106C11.9332 9.35008 11.1307 10.1496 11.1307 11.5247V17.3133C11.1307 18.2513 11.7922 18.9016 12.7466 18.9016ZM9.72073 31.0435C10.1654 31.4913 10.8378 31.47 11.2716 31.0435L15.3279 27.0779C15.4038 26.9927 15.4906 26.9181 15.534 26.8221L16.6511 24.5942L14.7097 22.686L13.5818 25.7242L9.72073 29.5405C9.29775 29.9669 9.2869 30.6278 9.72073 31.0435ZM25.4251 13.4116C25.089 13.4116 24.8286 13.6674 24.8286 13.9979V15.6183L26.0325 16.2579V13.9979C26.0325 13.6674 25.7613 13.4116 25.4251 13.4116ZM25.4251 31.3634C25.7613 31.3634 26.0325 31.0969 26.0325 30.7664V20.426C25.642 20.5326 25.2299 20.5219 24.8286 20.394V30.7664C24.8286 31.0969 25.089 31.3634 25.4251 31.3634Z" fill="black" fill-opacity="0.55"/>
</g>
<defs>
<clipPath id="bgblur_0_1966_58990_clip_path" transform="translate(50 49.9541)"><path d="M0 18.0459C0 8.10477 8.05887 0.0458984 18 0.0458984V0.0458984C27.9411 0.0458984 36 8.10477 36 18.0459V18.0459C36 27.987 27.9411 36.0459 18 36.0459V36.0459C8.05887 36.0459 0 27.987 0 18.0459V18.0459Z"/>
</clipPath></defs>
</svg>
