<svg width="32" height="33" viewBox="0 0 32 33" fill="none" xmlns="http://www.w3.org/2000/svg">
<g clip-path="url(#clip0_344_640)">
<path d="M15.9936 12.0001C18.367 12.0249 20.2481 10.0271 20.2481 7.40882C20.2481 4.96427 18.367 2.91681 15.9936 2.91681C13.6454 2.91681 11.7391 4.96427 11.7391 7.40882C11.7391 10.0271 13.6328 11.9877 15.9936 12.0001ZM8.53239 20.9841H23.4674C24.2375 20.9841 24.6541 20.4878 24.6541 19.8176C24.6541 17.8571 21.763 13.4892 15.9936 13.4892C10.2115 13.4892 7.33305 17.8571 7.33305 19.8176C7.33305 20.4878 7.76229 20.9841 8.53239 20.9841ZM5.90646 29.5835H26.0933C26.6488 29.5835 27.1033 29.1367 27.1033 28.5908C27.1033 28.0448 26.6488 27.5857 26.0933 27.5857H25.3106V24.6944C25.3106 23.3914 24.692 22.6842 23.2654 22.6842H8.73439C7.32042 22.6842 6.68919 23.3914 6.68919 24.6944V27.5857H5.90646C5.35097 27.5857 4.89648 28.0448 4.89648 28.5908C4.89648 29.1367 5.35097 29.5835 5.90646 29.5835ZM13.5191 26.8907C13.0899 26.8907 12.7869 26.5681 12.7869 26.1462C12.7869 25.7367 13.0899 25.4265 13.5191 25.4265H18.5059C18.9225 25.4265 19.2381 25.7367 19.2381 26.1462C19.2381 26.5681 18.9225 26.8907 18.5059 26.8907H13.5191Z" fill="white"/>
</g>
<defs>
<clipPath id="clip0_344_640">
<rect y="0.250122" width="32" height="32" rx="5" fill="white"/>
</clipPath>
</defs>
</svg>
