<svg width="32" height="33" viewBox="0 0 32 33" fill="none" xmlns="http://www.w3.org/2000/svg">
<g clip-path="url(#clip0_344_827)">
<path d="M27.5429 24.2587C27.5429 27.3952 22.7652 29.5834 16.0182 29.5834C9.25899 29.5834 4.45703 27.3952 4.45703 24.2587C4.45703 21.6489 7.80766 19.6923 12.8574 19.124V20.0767C12.8574 20.4287 12.8666 20.7649 12.8882 21.0799C9.37173 21.5397 6.93702 22.7723 6.93702 24.2587C6.93702 26.1794 10.9002 27.6626 16.006 27.6626C21.0875 27.6626 25.075 26.1552 25.075 24.2587C25.075 22.7798 22.6188 21.5405 19.1002 21.0794C19.1213 20.7645 19.1303 20.4285 19.1303 20.0767V19.1195C24.1909 19.6815 27.5429 21.6417 27.5429 24.2587Z" fill="white"/>
<path d="M20.5853 7.49988C20.5853 9.63948 19.1266 11.4387 17.145 11.925V19.6203C17.145 23.2187 16.5129 25.1638 16.0266 25.1638C15.5281 25.1638 14.896 23.2065 14.896 19.6203V11.925C12.9144 11.4265 11.4556 9.63948 11.4556 7.49988C11.4556 4.98341 13.4858 2.91675 16.0266 2.91675C18.5552 2.91675 20.5853 4.98341 20.5853 7.49988ZM13.1576 6.17479C13.1576 7.02576 13.887 7.75518 14.7136 7.75518C15.5767 7.75518 16.2819 7.02576 16.2819 6.17479C16.2819 5.33596 15.5767 4.61871 14.7136 4.61871C13.887 4.61871 13.1576 5.33596 13.1576 6.17479Z" fill="white"/>
</g>
<defs>
<clipPath id="clip0_344_827">
<rect y="0.250122" width="32" height="32" rx="5" fill="white"/>
</clipPath>
</defs>
</svg>
