<svg width="32" height="33" viewBox="0 0 32 33" fill="none" xmlns="http://www.w3.org/2000/svg">
<g clip-path="url(#clip0_344_717)">
<path d="M12.929 9.58383H13.1832C13.3358 9.58383 13.4172 9.65534 13.4172 9.82902V9.9414C13.4172 10.3705 13.702 10.6566 14.1292 10.6566H17.8924C18.3095 10.6566 18.5739 10.3705 18.5739 9.9414V9.82902C18.5739 9.65534 18.6553 9.58383 18.8282 9.58383H19.0825V8.73585H12.929V9.58383ZM1.33398 23.3965C1.33398 24.0402 1.85271 24.5612 2.48331 24.5612H29.518C30.1486 24.5612 30.6673 24.0402 30.6673 23.3965C30.6673 22.7529 30.1486 22.2319 29.518 22.2319H27.2905V10.1049C27.2905 8.67455 26.5276 7.93896 25.1139 7.93896H6.88738C5.5448 7.93896 4.71077 8.67455 4.71077 10.1049V22.2319H2.48331C1.85271 22.2319 1.33398 22.7529 1.33398 23.3965ZM6.34662 22.2319V10.5647C6.34662 9.9108 6.6721 9.58387 7.32304 9.58387H24.6748C25.3258 9.58387 25.6513 9.9108 25.6513 10.5647V22.2319H6.34662Z" fill="white"/>
</g>
<defs>
<clipPath id="clip0_344_717">
<rect y="0.250122" width="32" height="32" rx="5" fill="white"/>
</clipPath>
</defs>
</svg>
