<svg width="32" height="33" viewBox="0 0 32 33" fill="none" xmlns="http://www.w3.org/2000/svg">
<g clip-path="url(#clip0_344_794)">
<path d="M23.8995 17.848C24.1434 17.848 24.3104 17.6812 24.336 17.4244C24.7596 13.9964 24.9266 13.9065 28.4058 13.3417C28.6754 13.3031 28.8424 13.1619 28.8424 12.918C28.8424 12.674 28.6754 12.52 28.4572 12.4815C24.9522 11.8139 24.7596 11.8267 24.336 8.39879C24.3104 8.14201 24.1434 7.97511 23.8995 7.97511C23.6684 7.97511 23.5015 8.14201 23.4629 8.38595C23.0265 11.8652 22.8981 11.9808 19.3418 12.4815C19.1235 12.5072 18.9566 12.674 18.9566 12.918C18.9566 13.1491 19.1235 13.3031 19.3418 13.3417C22.8981 14.0221 23.0137 14.0221 23.4629 17.45C23.5015 17.6812 23.6684 17.848 23.8995 17.848ZM17.7626 9.15626C17.9167 9.15626 17.9937 9.06639 18.0194 8.92517C18.4174 6.78111 18.4045 6.72976 20.6385 6.30609C20.7797 6.28041 20.8824 6.19054 20.8824 6.03648C20.8824 5.88241 20.7797 5.79254 20.6385 5.76686C18.4045 5.31752 18.4815 5.26616 18.0194 3.14778C17.9937 3.00656 17.9167 2.91669 17.7626 2.91669C17.6086 2.91669 17.5186 3.00656 17.493 3.14778C17.0436 5.26616 17.1207 5.31752 14.8868 5.76686C14.7327 5.79254 14.6428 5.88241 14.6428 6.03648C14.6428 6.19054 14.7327 6.28041 14.8868 6.30609C17.1207 6.75544 17.095 6.78111 17.493 8.92517C17.5186 9.06639 17.6086 9.15626 17.7626 9.15626Z" fill="white"/>
<path d="M14.2489 29.5834C18.8835 29.5834 22.6581 27.2725 24.3656 23.2668C24.5582 22.8175 24.5326 22.4195 24.3014 22.1883C24.1218 21.9958 23.7623 21.9701 23.3771 22.1113C22.3115 22.535 21.1047 22.7405 19.7052 22.7405C13.8893 22.7405 10.1405 19.0942 10.1405 13.3939C10.1405 11.9431 10.4101 10.3126 10.8466 9.42678C11.0648 8.97742 11.0648 8.57942 10.8594 8.34833C10.6412 8.09156 10.2432 8.05304 9.74247 8.24562C5.80101 9.81193 3.15625 13.946 3.15625 18.6449C3.15625 24.8845 7.76532 29.5834 14.2489 29.5834Z" fill="white"/>
</g>
<defs>
<clipPath id="clip0_344_794">
<rect y="0.25" width="32" height="32" rx="5" fill="white"/>
</clipPath>
</defs>
</svg>
