<svg width="32" height="33" viewBox="0 0 32 33" fill="none" xmlns="http://www.w3.org/2000/svg">
<g clip-path="url(#clip0_344_684)">
<path d="M21.769 24.7702C21.769 26.554 23.1358 27.7934 25.0703 27.7934C26.7729 27.7934 29.3329 26.5308 29.3329 23.1485V11.3917C29.3329 10.9747 28.9738 10.6156 28.5567 10.6156C28.1282 10.6156 27.7691 10.9747 27.7691 11.3917V19.9053C27.7691 20.4844 27.5375 20.855 27.0393 20.9478L25.186 21.3415C22.8579 21.8281 21.769 23.0095 21.769 24.7702Z" fill="white"/>
<path d="M13.181 18.8612C13.181 20.6334 14.5595 21.8844 16.4823 21.8844C18.1965 21.8844 20.7449 20.6219 20.7449 17.228V5.48267C20.7449 5.0541 20.3973 4.7066 19.9688 4.7066C19.5402 4.7066 19.1811 5.0541 19.1811 5.48267V13.9963C19.1811 14.5639 18.9611 14.9346 18.4514 15.0387L16.6097 15.421C14.2699 15.9075 13.181 17.0889 13.181 18.8612Z" fill="white"/>
<path d="M2.66602 24.7702C2.66602 26.554 4.04441 27.7934 5.96721 27.7934C7.68152 27.7934 10.2298 26.5308 10.2298 23.1485V11.3917C10.2298 10.9747 9.88231 10.6156 9.45374 10.6156C9.02516 10.6156 8.66608 10.9747 8.66608 11.3917V19.9053C8.66608 20.4728 8.44601 20.855 7.93634 20.9478L6.09463 21.33C3.75483 21.8281 2.66602 22.998 2.66602 24.7702Z" fill="white"/>
</g>
<defs>
<clipPath id="clip0_344_684">
<rect y="0.25" width="32" height="32" rx="5" fill="white"/>
</clipPath>
</defs>
</svg>
