<svg width="32" height="33" viewBox="0 0 32 33" fill="none" xmlns="http://www.w3.org/2000/svg">
<g clip-path="url(#clip0_344_937)">
<path d="M2.66602 15.0272C2.66602 17.5367 3.98414 19.4631 5.69517 19.4631C7.4062 19.4631 8.737 17.5367 8.737 15.0272C8.737 12.5303 7.4062 10.5911 5.69517 10.5911C3.98414 10.5911 2.66602 12.5303 2.66602 15.0272ZM8.81305 7.71408C8.81305 10.2109 10.1565 12.1374 11.8549 12.1374C13.5785 12.1374 14.9094 10.1982 14.9094 7.71408C14.9094 5.20457 13.5785 3.27808 11.8549 3.27808C10.1565 3.27808 8.81305 5.20457 8.81305 7.71408ZM17.1021 7.71408C17.1021 10.1982 18.4202 12.1374 20.1439 12.1374C21.8423 12.1374 23.1857 10.2109 23.1857 7.71408C23.1857 5.20457 21.8423 3.27808 20.1439 3.27808C18.4202 3.27808 17.1021 5.20457 17.1021 7.71408ZM23.2618 15.0272C23.2618 17.5367 24.5925 19.4631 26.3036 19.4631C28.0146 19.4631 29.3327 17.5367 29.3327 15.0272C29.3327 12.5303 28.0146 10.5911 26.3036 10.5911C24.5925 10.5911 23.2618 12.5303 23.2618 15.0272ZM6.4683 24.8371C6.4683 27.3973 8.19201 29.2224 10.7269 29.2224C11.9816 29.2224 12.8942 28.8675 13.7687 28.5633C14.4785 28.3098 15.1629 28.0817 15.9993 28.0817C16.8232 28.0817 17.5077 28.3098 18.23 28.5633C19.1046 28.8675 20.0044 29.2224 21.2592 29.2224C23.8068 29.2224 25.5304 27.3973 25.5304 24.8371C25.5304 22.6571 24.225 21.5544 22.9702 20.5278C22.2731 19.9701 21.6014 19.4378 21.1451 18.7281C20.7649 18.1577 20.448 17.5367 20.1819 16.9536C19.2694 15.0018 18.5469 13.164 15.9993 13.164C13.4392 13.164 12.7294 15.0018 11.8169 16.941C11.538 17.5367 11.2338 18.145 10.8663 18.7027C10.3973 19.4125 9.71292 19.9701 9.02851 20.5278C7.77376 21.5544 6.4683 22.6698 6.4683 24.8371Z" fill="white"/>
</g>
<defs>
<clipPath id="clip0_344_937">
<rect y="0.250122" width="32" height="32" rx="5" fill="white"/>
</clipPath>
</defs>
</svg>
