<svg width="32" height="33" viewBox="0 0 32 33" fill="none" xmlns="http://www.w3.org/2000/svg">
<g clip-path="url(#clip0_344_618)">
<path d="M14.6499 2.91669C15.2213 3.08677 15.7327 3.33861 16.1239 3.81971C17.0968 5.01618 16.519 6.96101 15.0548 7.45073C13.4379 7.99158 11.8855 6.76824 11.944 5.1455C11.9795 4.16325 12.6629 3.29321 13.6085 3.02035C13.6977 2.99459 13.782 2.95165 13.8686 2.91669C14.1291 2.91669 14.3895 2.91669 14.6499 2.91669Z" fill="white"/>
<path d="M9.10963 11.638C8.60108 11.9428 8.12038 12.2302 7.64055 12.5192C7.56759 12.5631 7.55614 12.6486 7.52499 12.718C7.02181 13.8395 6.5224 14.9627 6.01898 16.0841C5.7457 16.6928 5.22852 16.9446 4.65345 16.756C4.10837 16.5772 3.76948 15.9569 3.98618 15.4233C4.35058 14.5261 4.76046 13.6472 5.15145 12.7607C5.33998 12.3333 5.53051 11.9067 5.71735 11.4785C5.84266 11.1913 6.03805 10.9676 6.30532 10.8052C7.4312 10.1209 8.55927 9.44019 9.68185 8.75051C10.5452 8.2201 11.4529 8.22491 12.4071 8.4446C13.7083 8.74418 15.0203 8.99647 16.3263 9.2754C16.4536 9.30259 16.5576 9.28348 16.6727 9.2351C17.8133 8.75569 18.9543 8.27735 20.0979 7.80524C20.6904 7.56067 21.2693 7.74819 21.5298 8.25516C21.8359 8.85096 21.5774 9.50509 20.9185 9.78727C20.4015 10.0086 19.8814 10.2226 19.3624 10.4391C18.6276 10.7456 17.8871 11.0393 17.1599 11.3628C16.8215 11.5134 16.4919 11.5145 16.147 11.4381C15.1632 11.2204 14.1796 11.0019 13.1955 10.7854C13.1668 10.7791 13.1339 10.7915 13.0854 10.842C13.2415 10.9226 13.396 11.0064 13.554 11.0832C14.0209 11.3102 14.4852 11.5432 14.959 11.7549C15.1129 11.8236 15.1349 11.9134 15.1148 12.0556C14.91 13.5084 14.7072 14.9616 14.5045 16.4148C14.4329 16.9279 14.3509 17.4399 14.296 17.9547C14.2496 18.3898 14.3909 18.8092 14.4638 19.2316C14.7489 20.8818 15.0579 22.5248 15.0791 24.211C15.0943 25.4238 15.1977 26.6356 15.2666 27.8476C15.2926 28.304 15.2945 28.7496 14.9742 29.1267C14.6357 29.5251 14.1088 29.6809 13.6113 29.5221C13.1187 29.3648 12.7584 28.8744 12.7312 28.3172C12.6412 26.472 12.5563 24.6265 12.4616 22.7816C12.4327 22.2199 12.2958 21.6722 12.204 21.119C12.0417 20.1417 11.8628 19.1671 11.69 18.1915C11.6528 17.9814 11.2048 17.778 11.0221 17.8856C10.935 17.9368 10.9538 18.0236 10.9611 18.0953C11.0334 18.8008 11.111 19.5057 11.187 20.2107C11.2647 20.9331 11.3415 21.6555 11.4203 22.3777C11.4625 22.764 11.3268 23.1062 11.179 23.4519C10.4272 25.2105 9.68147 26.9716 8.93666 28.7331C8.72565 29.2322 8.36544 29.5431 7.82021 29.5757C6.84976 29.6336 6.19639 28.6938 6.57601 27.7871C7.26762 26.1353 7.96159 24.4842 8.68033 22.844C8.8281 22.5068 8.84491 22.1872 8.80711 21.8421C8.70537 20.9136 8.60863 19.9844 8.50779 19.0557C8.46299 18.6431 8.41653 18.2307 8.36469 17.819C8.30196 17.3208 8.42186 16.8368 8.4801 16.3495C8.58035 15.5108 8.70742 14.6753 8.82367 13.8385C8.91867 13.1547 9.01448 12.4711 9.10906 11.7872C9.11355 11.7548 9.10963 11.7212 9.10963 11.638Z" fill="white"/>
<path d="M27.5761 4.21972C26.9647 4.55874 26.3527 4.89684 25.742 5.23706C25.2273 5.52373 24.7118 5.80891 24.202 6.10387C24.0839 6.17217 24.0095 6.16902 23.9117 6.07122C23.6481 5.8077 23.3752 5.55341 23.1032 5.29838C22.985 5.1875 22.8845 5.07378 22.926 4.89397C22.9705 4.7016 23.139 4.67845 23.2855 4.6431C24.3814 4.3787 25.4787 4.12084 26.5754 3.85992C27.0693 3.7424 27.5618 3.61831 28.0569 3.50621C28.2136 3.47075 28.3887 3.41645 28.5131 3.58156C28.6393 3.74892 28.5658 3.89966 28.4708 4.05732C27.7555 5.2442 27.0453 6.43414 26.333 7.62285C26.1037 8.00555 25.9532 8.02368 25.6288 7.71071C25.4103 7.49998 25.1985 7.28163 24.9699 7.08249C24.8399 6.96926 24.8652 6.91095 24.9786 6.80324C25.8455 5.9793 26.7054 5.14793 27.5668 4.31812C27.5847 4.30091 27.5939 4.2747 27.6072 4.25269C27.5968 4.2417 27.5865 4.23071 27.5761 4.21972Z" fill="white"/>
<path d="M23.9188 6.6477C24.1827 6.89962 24.3932 7.10356 24.6074 7.30349C24.6841 7.37509 24.7048 7.43044 24.6116 7.5093C24.4934 7.60945 24.3964 7.73634 24.2727 7.82819C24.1101 7.94899 23.9324 7.86941 23.9227 7.66699C23.9077 7.35103 23.9188 7.03382 23.9188 6.6477Z" fill="white"/>
</g>
<defs>
<clipPath id="clip0_344_618">
<rect y="0.25" width="32" height="32" rx="5" fill="white"/>
</clipPath>
</defs>
</svg>
