<svg width="32" height="33" viewBox="0 0 32 33" fill="none" xmlns="http://www.w3.org/2000/svg">
<g clip-path="url(#clip0_344_706)">
<path d="M12.4138 11.8612C12.4098 12.3244 12.3837 12.7884 12.3396 13.2521C11.5116 12.9174 10.878 12.8927 10.573 13.197C9.86757 13.8801 10.8888 16.2497 13.4155 18.7229C15.9423 21.2168 18.3427 22.231 19.048 21.5273C19.3614 21.224 19.3279 20.5756 18.9598 19.7262C19.4272 19.6824 19.8946 19.6563 20.3615 19.6515C20.8782 21.1123 20.7773 22.4029 19.4587 22.945L5.15098 28.8227C3.59282 29.4643 2.15047 28.0052 2.84532 26.4841L9.14113 12.7624C9.7185 11.5072 10.9826 11.3896 12.4138 11.8612ZM19.7118 18.2404C19.2103 18.2643 18.7072 18.3091 18.2011 18.3771C17.8029 17.785 17.2876 17.1464 16.6619 16.4931L17.6951 15.4755C18.4376 16.2863 19.1646 17.2607 19.7118 18.2404ZM16.6525 14.4582L15.6167 15.4743C14.9491 14.8634 14.2989 14.363 13.6983 13.979C13.7694 13.4796 13.8162 12.9825 13.8415 12.4866C14.8311 13.0151 15.8197 13.7269 16.6525 14.4582Z" fill="white"/>
<path d="M12.1191 5.7881C12.7508 5.7881 13.2772 5.28104 13.2772 4.64979C13.2772 4.02891 12.7508 3.52185 12.1191 3.52185C11.4664 3.52185 10.961 4.02891 10.961 4.64979C10.961 5.28104 11.4664 5.7881 12.1191 5.7881ZM13.5088 7.72319C13.4351 7.34032 13.1825 7.01952 12.7719 7.01952C12.3823 7.02987 11.9823 7.35066 12.0665 7.76459C12.5403 10.1964 12.5403 12.7006 12.0665 15.1738C11.9717 15.5774 12.3823 15.8879 12.7613 15.8982C13.1614 15.8982 13.4246 15.5878 13.4983 15.2049C13.9931 12.68 13.9931 10.2171 13.5088 7.72319ZM18.6255 7.57832C19.731 7.57832 20.6048 6.70908 20.6048 5.63287C20.6048 4.53597 19.731 3.68742 18.6255 3.68742C17.52 3.68742 16.6462 4.53597 16.6462 5.63287C16.6462 6.70908 17.52 7.57832 18.6255 7.57832ZM16.6251 10.838C17.141 10.838 17.5516 10.4241 17.5516 9.917C17.5516 9.42029 17.141 9.00637 16.6251 9.00637C16.1198 9.00637 15.6882 9.42029 15.6882 9.917C15.6882 10.4241 16.1198 10.838 16.6251 10.838ZM27.2164 6.37794C27.7218 6.37794 28.1324 5.97436 28.1324 5.4673C28.1324 4.96025 27.7218 4.54632 27.2164 4.54632C26.7006 4.54632 26.2899 4.96025 26.2899 5.4673C26.2899 5.97436 26.7006 6.37794 27.2164 6.37794ZM24.1738 7.05056L22.2051 8.98567C21.9208 9.26507 21.9313 9.72039 22.2051 9.99979C22.4998 10.2792 22.9631 10.2895 23.2473 9.99979L25.2161 8.07503C25.5003 7.79563 25.4898 7.32997 25.2161 7.05056C24.9318 6.78152 24.4581 6.77117 24.1738 7.05056ZM20.2679 10.9001L14.8986 16.1673C14.6142 16.4363 14.6248 16.9124 14.8986 17.1918C15.1828 17.4608 15.6671 17.4712 15.9408 17.1918L21.2997 11.9142C21.5628 11.6451 21.5733 11.1795 21.2997 10.9001C21.0259 10.6207 20.5416 10.6414 20.2679 10.9001ZM28.1745 15.6602C28.8167 15.6602 29.3326 15.1532 29.3326 14.5116C29.3326 13.8907 28.8167 13.3837 28.1745 13.3837C27.5217 13.3837 27.0164 13.8907 27.0164 14.5116C27.0164 15.1532 27.5217 15.6602 28.1745 15.6602ZM23.6474 16.0845C24.5844 16.0845 25.3319 15.3705 25.3319 14.4495C25.3319 13.5389 24.5844 12.8041 23.6474 12.8041C22.7209 12.8041 21.9945 13.5389 21.9945 14.4495C21.9945 15.3705 22.7209 16.0845 23.6474 16.0845ZM27.7744 20.9585C28.4166 20.9585 28.9325 20.4618 28.9325 19.8201C28.9325 19.1889 28.4166 18.6819 27.7744 18.6819C27.1322 18.6819 26.6163 19.1889 26.6163 19.8201C26.6163 20.4618 27.1322 20.9585 27.7744 20.9585ZM24.5634 18.5577C22.0155 18.0817 19.5204 18.0817 16.941 18.5577C16.562 18.6405 16.2356 18.8992 16.2462 19.2821C16.2462 19.6649 16.562 20.0685 16.9831 19.9857C19.4993 19.5201 22.0366 19.5098 24.5212 19.9754C24.9213 20.0582 25.2582 19.6753 25.2687 19.2821C25.2792 18.8785 24.9423 18.6302 24.5634 18.5577Z" fill="white"/>
</g>
<defs>
<clipPath id="clip0_344_706">
<rect y="0.25" width="32" height="32" rx="5" fill="white"/>
</clipPath>
</defs>
</svg>
