<svg width="32" height="33" viewBox="0 0 32 33" fill="none" xmlns="http://www.w3.org/2000/svg">
<g clip-path="url(#clip0_344_970)">
<path d="M1.33398 16.2553C1.33398 18.3691 2.79255 19.5296 4.43343 19.5296C5.1222 19.5296 5.63877 19.3327 6.25663 18.939C6.83398 18.5763 7.24927 18.7939 7.24927 19.3017V23.1355C7.24927 25.1768 8.30268 26.2234 10.3183 26.2234H13.0227C13.5089 26.2234 13.7216 25.8089 13.3773 25.2183C12.9823 24.5862 12.7898 24.0578 12.7898 23.3531C12.7898 21.6746 13.9343 20.1824 16.0007 20.1824C18.067 20.1824 19.2014 21.6746 19.2014 23.3531C19.2014 24.0578 19.0089 24.5862 18.624 25.2183C18.2797 25.8089 18.4822 26.2234 18.9786 26.2234H21.683C23.6986 26.2234 24.7521 25.1768 24.7521 23.1355V19.3017C24.7521 18.7939 25.1673 18.5763 25.7346 18.939C26.3625 19.3327 26.8791 19.5296 27.5577 19.5296C29.2088 19.5296 30.6673 18.3691 30.6673 16.2553C30.6673 14.1311 29.2088 12.9705 27.5577 12.9705C26.8791 12.9705 26.3625 13.1674 25.7346 13.5611C25.1673 13.9238 24.7521 13.7062 24.7521 13.1985V9.36458C24.7521 7.33365 23.6986 6.27673 21.683 6.27673H18.9786C18.4822 6.27673 18.2797 6.70157 18.624 7.2922C19.0089 7.92427 19.2014 8.45274 19.2014 9.15734C19.2014 10.836 18.067 12.3281 16.0007 12.3281C13.9343 12.3281 12.7898 10.836 12.7898 9.15734C12.7898 8.45274 12.9823 7.92427 13.3773 7.2922C13.7216 6.70157 13.5089 6.27673 13.0227 6.27673H10.3183C8.30268 6.27673 7.24927 7.33365 7.24927 9.36458V13.1985C7.24927 13.7062 6.83398 13.9238 6.25663 13.5611C5.63877 13.1674 5.1222 12.9705 4.43343 12.9705C2.79255 12.9705 1.33398 14.1311 1.33398 16.2553Z" fill="white"/>
</g>
<defs>
<clipPath id="clip0_344_970">
<rect y="0.25" width="32" height="32" rx="5" fill="white"/>
</clipPath>
</defs>
</svg>
