<svg width="32" height="33" viewBox="0 0 32 33" fill="none" xmlns="http://www.w3.org/2000/svg">
<g clip-path="url(#clip0_344_695)">
<path d="M31.0121 15.9315C30.9542 16.2701 30.5038 16.7643 29.917 16.7485C29.408 16.7764 28.9436 16.4606 28.7518 15.9315C28.4175 15.0095 28.0834 14.0873 27.7646 13.1599C27.6989 12.9689 27.6011 12.8756 27.4072 12.8519C27.1182 12.8166 26.8317 12.7594 26.5424 12.7283C26.1975 12.6913 26.1826 12.7152 26.3139 13.0296C26.5125 13.505 26.7187 13.9772 26.9158 14.4532C27.2877 15.3511 27.672 16.2444 28.0189 17.1519C28.2466 17.7473 28.1449 18.2863 27.65 18.7452C26.985 19.3618 26.3536 20.0145 25.6928 20.6358C25.5139 20.804 25.5284 20.9107 25.6731 21.0837C26.8237 22.4603 27.9673 23.8428 29.1121 25.2244C29.8004 26.0551 29.5734 27.1149 28.6297 27.4844C28.0846 27.6978 27.47 27.5271 27.0572 27.0344C26.4561 26.3169 25.8619 25.5935 25.2643 24.873C24.5982 24.0698 23.9332 23.2658 23.2646 22.4648C23.051 22.209 23.0338 22.2087 22.8827 22.5104C22.1809 23.9117 21.4821 25.3146 20.7879 26.7197C20.5612 27.1786 20.2252 27.4761 19.7054 27.5551C18.7382 27.7021 17.9157 26.774 18.2044 25.8394C18.3745 25.2884 18.6826 24.7969 18.9355 24.2826C19.6784 22.7723 20.4388 21.2707 21.1862 19.7627C21.3243 19.4841 21.5107 19.2578 21.7635 19.0793C22.3048 18.6968 22.8418 18.3083 23.3835 17.9263C23.498 17.8456 23.5583 17.7842 23.4865 17.6219C23.164 16.8932 22.8627 16.1552 22.5489 15.4227C22.4342 15.155 22.3869 15.1509 22.1956 15.3637C22.1826 15.3782 22.1689 15.3927 22.159 15.4093C21.6583 16.252 20.9025 16.3222 20.0268 16.1749C19.0985 16.0187 18.1588 15.9241 17.2212 15.8321C16.2685 15.7385 15.7374 14.8675 16.1839 14.0815C16.407 13.6887 16.7627 13.4968 17.2054 13.5324C17.8542 13.5846 18.5003 13.6708 19.147 13.7471C19.5231 13.7914 19.8982 13.8435 20.2735 13.8945C20.3798 13.9089 20.4555 13.8782 20.5266 13.7922C20.8 13.4617 21.079 13.1357 21.3608 12.8124C21.4278 12.7355 21.4208 12.6721 21.3997 12.5764C21.2072 11.7045 21.5924 10.9031 22.3975 10.5221C22.9421 10.2644 23.492 9.98748 24.1207 10.0538C24.6414 10.1087 25.1586 10.1988 25.6764 10.2792C26.6354 10.4281 27.5923 10.5916 28.553 10.7288C29.1172 10.8094 29.4536 11.1092 29.6394 11.6433C30.0723 12.8873 30.9447 15.0957 30.9757 15.297C31.0066 15.4983 31.07 15.593 31.0121 15.9315Z" fill="white"/>
<path d="M11.9693 15.8111C11.3425 16.4236 10.7604 16.996 10.1737 17.5636C10.0118 17.7202 10.1871 17.7919 10.2529 17.8661C10.8996 18.5963 11.5543 19.3195 12.2074 20.0439C12.4294 20.2902 12.6516 20.5365 12.8772 20.7795C13.278 21.2112 13.3737 21.712 13.2214 22.2703C12.8363 23.6827 12.4505 25.0948 12.0656 26.5072C11.8882 27.1582 11.3811 27.5698 10.7373 27.5831C10.1307 27.5957 9.58266 27.1718 9.40874 26.5518C9.28057 26.0948 9.45121 25.6676 9.56237 25.2407C9.81085 24.2866 10.0787 23.3374 10.3459 22.3883C10.3925 22.2227 10.3881 22.0932 10.2564 21.9654C10.0887 21.8028 9.96641 21.5379 9.77241 21.473C9.56003 21.402 9.41089 21.7037 9.20728 21.8078C7.57684 22.6418 5.95303 23.4887 4.32667 24.3307C3.85967 24.5724 3.4001 24.8312 2.92105 25.0464C2.0094 25.456 0.977378 24.7725 1.0024 23.7773C1.01489 23.2805 1.23376 22.8699 1.68427 22.6313C2.88047 21.9976 4.08361 21.3771 5.28458 20.7524C5.74229 20.5144 6.19697 20.2697 6.6623 20.0475C6.86333 19.9515 6.89778 19.8559 6.80821 19.6505C6.4469 18.8219 6.12546 17.9753 5.74638 17.1552C5.40584 16.4185 5.63981 15.8595 6.09606 15.4069C7.19588 14.3157 8.30866 13.2377 9.45349 12.1179C8.97063 11.9886 8.52045 11.8679 8.07014 11.7477C7.95536 11.717 7.91932 11.8186 7.86418 11.8786C7.18381 12.6179 6.51112 13.3644 5.82542 14.0988C5.17548 14.7948 4.1637 14.5921 3.86198 13.7057C3.70908 13.2565 3.85345 12.8664 4.16564 12.5277C4.58206 12.0759 4.99776 11.6235 5.41352 11.1711C5.83579 10.7116 6.25966 10.2536 6.67931 9.79169C7.04597 9.38814 7.47721 9.24438 8.01811 9.38603C9.41356 9.75146 10.8199 10.0768 12.2095 10.4626C13.115 10.7139 13.7395 11.3496 14.1205 12.1875C14.3672 12.7302 14.286 13.2978 13.9464 13.7975C13.8394 13.955 13.8268 14.0853 13.8825 14.2535C13.9921 14.5846 14.0961 14.9179 14.1877 15.2543C14.2341 15.4248 14.3287 15.5003 14.4979 15.5477C15.4312 15.8092 16.3621 16.0792 17.2908 16.3567C17.9071 16.5409 18.2457 17.1542 18.0803 17.7558C17.9167 18.3505 17.3038 18.7069 16.6801 18.5362C15.4663 18.2039 14.2563 17.8571 13.048 17.5051C12.6232 17.3814 12.3647 17.0771 12.2371 16.6565C12.1583 16.3968 12.0734 16.1389 11.9693 15.8111Z" fill="white"/>
<path d="M14.8909 10.5169C13.7507 10.5358 12.7686 9.58965 12.7784 8.43077C12.7882 7.27794 13.6343 6.36661 14.8713 6.32301C15.9668 6.28439 16.9594 7.25202 16.9794 8.35531C17.0013 9.56173 16.0978 10.4969 14.8909 10.5169Z" fill="white"/>
<path d="M15.2932 23.3856C16.4182 23.3427 17.4122 24.3381 17.3995 25.4915C17.3881 26.5315 16.5856 27.5834 15.2933 27.5751C14.124 27.5676 13.1977 26.702 13.205 25.446C13.2127 24.1182 14.3411 23.3477 15.2932 23.3856Z" fill="white"/>
<path d="M22.6194 9.10151C21.5306 9.11318 20.5212 8.29488 20.515 7.01694C20.5093 5.82979 21.3573 4.93039 22.6013 4.91689C23.8533 4.9033 24.698 5.87347 24.7062 6.99937C24.7147 8.16668 23.7863 9.09659 22.6194 9.10151Z" fill="white"/>
</g>
<defs>
<clipPath id="clip0_344_695">
<rect y="0.25" width="32" height="32" rx="5" fill="white"/>
</clipPath>
</defs>
</svg>
