<svg width="32" height="33" viewBox="0 0 32 33" fill="none" xmlns="http://www.w3.org/2000/svg">
<g clip-path="url(#clip0_344_739)">
<path d="M15.2 7.96856C16.6146 7.96856 17.7581 6.84462 17.7581 5.431C17.7581 4.04056 16.6146 2.91663 15.2 2.91663C13.7618 2.91663 12.6183 4.04056 12.6183 5.431C12.6183 6.84462 13.7618 7.96856 15.2 7.96856ZM4.34277 29.2307C4.79074 29.6594 5.53341 29.7405 6.0521 29.2307L11.2155 24.1672C11.5338 23.8659 11.5927 23.6226 11.5573 23.1707L11.2626 19.9032C11.239 19.6946 11.4394 19.6019 11.5809 19.7293L15.2825 22.8579L17.204 28.7325C17.428 29.4161 18.1353 29.6826 18.7365 29.5087C19.4202 29.3118 19.7385 28.6397 19.5264 28.0025L17.5341 21.815C17.4751 21.6412 17.3691 21.4442 17.2276 21.3168L13.2431 17.4467L15.8012 12.418C15.9072 12.2094 16.1666 12.163 16.3434 12.3368L19.2081 15.1756C19.3377 15.3031 19.5264 15.4074 19.715 15.4653L25.4559 17.157C25.9275 17.2961 26.7173 17.1107 26.9649 16.3343C27.1535 15.7087 26.788 15.025 26.1397 14.8396L20.7052 13.2638L17.6048 10.1817C16.8975 9.48645 16.0841 9.18518 15.1175 9.18518H6.91266C6.44112 9.18518 6.02852 9.4401 5.82812 9.84564L3.52936 14.3414C3.23465 14.9207 3.44684 15.6507 4.07163 15.9404C4.69643 16.23 5.40373 16.0099 5.71024 15.3958L7.65533 11.5837H10.0838C10.3549 11.5837 10.5199 11.8386 10.3903 12.0935L8.6102 15.6043C7.97363 16.8441 7.7968 18.2926 8.15045 19.6598L8.99923 22.9389L4.31919 27.5158C3.84765 27.9677 3.85944 28.7556 4.34277 29.2307ZM25.7979 23.9585C27.3539 23.9585 28.6035 22.7187 28.6035 21.2009C28.6035 19.683 27.3539 18.4547 25.7979 18.4547C24.2535 18.4547 23.0039 19.683 23.0039 21.2009C23.0039 22.7187 24.2535 23.9585 25.7979 23.9585Z" fill="white"/>
</g>
<defs>
<clipPath id="clip0_344_739">
<rect y="0.25" width="32" height="32" rx="5" fill="white"/>
</clipPath>
</defs>
</svg>
