<svg width="32" height="33" viewBox="0 0 32 33" fill="none" xmlns="http://www.w3.org/2000/svg">
<g clip-path="url(#clip0_344_772)">
<path d="M30.5167 17.7314C30.3456 18.1854 30.0575 18.4955 29.5418 18.5302C29.405 18.5394 29.4246 18.6492 29.4233 18.7375C29.42 18.9726 29.4206 19.2076 29.4206 19.4427C29.4207 22.5497 29.4193 25.6566 29.4235 28.7636C29.4239 29.085 29.3457 29.3504 29.0375 29.4992C28.7819 29.6225 28.5376 29.5861 28.3212 29.4095C28.0938 29.2239 28.0631 28.9634 28.0632 28.6892C28.065 25.4391 28.0648 22.1891 28.0628 18.939C28.0626 18.4911 28.1333 18.5324 27.6567 18.5324C24.3044 18.5324 23.3306 18.5332 19.9783 18.5333C19.567 18.5333 19.5644 18.5321 19.5643 18.9523C19.5635 22.1921 19.5635 25.4319 19.5641 28.6717C19.5641 28.942 19.5454 29.2085 19.3217 29.3984C19.1209 29.5687 18.8877 29.6214 18.6351 29.5218C18.3188 29.397 18.2036 29.134 18.1857 28.8215C18.1717 28.577 18.1824 28.3311 18.1824 28.0858C18.1822 25.0402 18.1807 21.9945 18.1844 18.9489C18.1847 18.6984 18.193 18.5294 17.8389 18.5043C17.3681 18.471 16.9999 17.9294 17.0406 17.4595C17.0864 16.9319 17.479 16.5346 17.9867 16.5078C18.1396 16.4997 18.2932 16.5038 18.4465 16.5038C22.8003 16.5036 24.7758 16.5131 29.1296 16.4932C29.7645 16.4903 30.2409 16.644 30.5167 17.2408V17.7314Z" fill="white"/>
<path d="M7.9138 12.9466C8.1067 13.3679 8.38133 13.6449 8.61744 13.9471C9.23483 14.7374 9.867 15.5161 10.4828 16.3075C10.828 16.7512 11.2277 17.0944 11.8134 17.145C11.9675 17.1583 11.9899 17.2402 11.9801 17.371C11.9647 17.575 11.9769 17.7819 11.9498 17.9839C11.9255 18.165 11.987 18.2381 12.1602 18.2814C13.0379 18.5006 13.9128 18.7311 14.7887 18.9572C15.7 19.1925 16.0523 19.6458 16.1563 20.5916C16.2887 21.7964 16.4675 22.996 16.6192 24.1988C16.7773 25.453 16.9279 26.7081 17.0801 27.9631C17.1814 28.7987 16.555 29.495 15.7858 29.5749C14.9254 29.6642 14.2267 29.0519 14.1224 28.1826C13.9744 26.948 13.8008 25.7166 13.6432 24.4831C13.5335 23.6241 13.4307 22.7642 13.329 21.9042C13.3138 21.7754 13.3003 21.6459 13.1502 21.6206C12.9952 21.5944 13.0216 21.754 12.9802 21.8318C12.7594 22.247 12.4164 22.4215 11.9523 22.4166C11.0719 22.4074 10.1913 22.4143 9.31082 22.414C8.99371 22.414 8.83569 22.5684 8.83674 22.8773C8.83777 23.9729 8.84545 25.0685 8.83159 26.1638C8.82865 26.3956 8.90508 26.5314 9.08216 26.6712C9.7646 27.21 10.4354 27.7637 11.1048 28.3188C11.4095 28.5714 11.4935 28.8675 11.3674 29.1558C11.2377 29.4521 10.9694 29.6142 10.6581 29.5765C10.445 29.5508 10.2865 29.4175 10.1283 29.288C9.71941 28.9533 9.31122 28.6178 8.83777 28.2293C8.83777 28.4681 8.84107 28.6355 8.83714 28.8027C8.8261 29.273 8.55385 29.5778 8.14623 29.5803C7.75146 29.5828 7.48715 29.2947 7.46686 28.8316C7.45938 28.661 7.46565 28.4898 7.46565 28.2294C6.9839 28.6228 6.57012 28.963 6.15364 29.2998C5.98739 29.4342 5.82265 29.5724 5.59012 29.5804C5.32126 29.5896 5.10899 29.4911 4.97416 29.2576C4.82935 29.0069 4.82326 28.754 5.00448 28.513C5.22341 28.2219 5.53863 28.0389 5.80937 27.8068C6.28314 27.4007 6.77252 27.0125 7.26256 26.6259C7.40338 26.5148 7.47026 26.3957 7.46936 26.2124C7.46372 25.0657 7.4623 23.9189 7.47229 22.7723C7.47469 22.4964 7.377 22.4016 7.09871 22.4055C6.09552 22.4193 5.09204 22.4137 4.08867 22.4126C3.30495 22.4117 2.96964 22.0838 2.87958 21.3043C2.75559 20.2311 2.5995 19.1616 2.46391 18.0897C2.31287 16.8956 2.17227 15.7002 2.02183 14.506C1.86763 13.2819 1.69418 12.0601 1.55742 10.8341C1.51874 10.4873 1.38438 10.1403 1.52057 9.77684C1.67472 9.36545 2.09328 9.04501 2.49255 9.07272C2.97515 9.1062 3.36961 9.45783 3.43139 9.93438C3.62142 11.4003 3.80084 12.8675 3.98995 14.3335C4.14502 15.5356 4.3096 16.7363 4.46693 17.9381C4.55415 18.6043 4.63708 19.2711 4.71828 19.938C4.77851 20.4327 4.77636 20.419 5.28461 20.436C5.55646 20.445 5.68715 20.3757 5.64452 20.0835C5.62695 19.9631 5.64136 19.8382 5.64019 19.7153C5.61362 16.9306 5.56413 14.1461 5.58921 11.3612C5.59774 10.4142 6.37454 9.63587 7.32841 9.61495C8.20919 9.59564 9.08386 9.71212 9.96072 9.77306C10.275 9.79491 10.5914 9.791 10.9055 9.85749C11.8119 10.0494 12.3997 10.7987 12.394 11.8004C12.3926 12.0455 12.2503 11.9297 12.148 11.8905C11.2723 11.5555 10.3977 11.2179 9.52251 10.8816C9.4863 10.8677 9.44818 10.8588 9.38277 10.8847C9.55487 11.0228 9.72276 11.1666 9.89981 11.298C10.6636 11.8648 11.4335 12.4234 12.1926 12.9965C12.3407 13.1083 12.4626 13.0863 12.6127 13.0318C13.8581 12.5792 15.103 12.1247 16.3522 11.6828C17.1293 11.4079 17.8557 11.8254 18.0259 12.6261C18.1452 13.1873 17.8047 13.7681 17.1972 13.9996C16.4634 14.2792 15.7234 14.5427 14.9852 14.8109C14.2376 15.0826 13.4859 15.3435 12.7417 15.6244C12.2181 15.822 11.7554 15.7556 11.3056 15.4172C10.3004 14.6609 9.28285 13.9211 8.26919 13.1762C8.17353 13.1059 8.06966 13.0468 7.9138 12.9466Z" fill="white"/>
<path d="M12.4672 5.63709C12.4692 7.09534 11.3324 8.3712 9.73484 8.35802C8.18869 8.34526 7.04854 7.21858 7.02373 5.64767C6.99943 4.10933 8.21701 2.92979 9.71005 2.91692C11.2521 2.90362 12.4618 4.10377 12.4672 5.63709Z" fill="white"/>
<path d="M20.6718 15.7466C20.0171 15.7466 19.3624 15.7509 18.7078 15.7451C18.284 15.7413 17.9951 15.522 17.9412 15.1827C17.8662 14.7101 18.1648 14.388 18.7021 14.3814C19.2646 14.3744 19.8273 14.3833 20.3899 14.3834C20.9218 14.3836 21.4541 14.3698 21.9855 14.3855C22.2265 14.3926 22.3494 14.2971 22.4595 14.0918C23.0529 12.9848 23.6618 11.8862 24.2623 10.783C24.3937 10.5415 24.5482 10.3295 24.8427 10.2895C25.104 10.2541 25.3292 10.3394 25.4904 10.5511C25.679 10.7987 25.6622 11.0694 25.5243 11.3289C25.208 11.9241 24.8813 12.5136 24.558 13.105C24.1709 13.8129 23.7745 14.5158 23.399 15.2298C23.2056 15.5976 22.9308 15.7649 22.513 15.7533C21.8997 15.7361 21.2856 15.7488 20.6718 15.7488V15.7466Z" fill="white"/>
</g>
<defs>
<clipPath id="clip0_344_772">
<rect y="0.250122" width="32" height="32" rx="5" fill="white"/>
</clipPath>
</defs>
</svg>
