<svg width="32" height="33" viewBox="0 0 32 33" fill="none" xmlns="http://www.w3.org/2000/svg">
<g clip-path="url(#clip0_344_783)">
<path d="M24.0838 11.1395C24.1311 11.186 24.2332 11.2183 24.3224 11.238C25.9967 11.5943 27.4177 11.4797 28.1974 10.7133C28.866 10.0561 28.8715 9.14468 28.2903 8.57346C27.9278 8.21712 27.4559 8.14729 26.9914 8.28159C27.1298 7.83034 27.0588 7.36298 26.6962 7.00664C26.1151 6.43542 25.186 6.439 24.5174 7.09617C23.7376 7.86257 23.621 9.25929 23.9836 10.9049C24.0054 10.9944 24.0382 11.0947 24.0838 11.1395Z" fill="white"/>
<path d="M13.8288 6.06416C11.281 6.45153 8.65543 7.88099 6.51836 10.047C5.38044 11.1982 4.55336 12.3167 3.89281 13.5988C3.02133 15.2847 2.66053 16.6542 2.66608 18.2255C2.67718 19.835 3.07684 20.9371 4.01493 21.9192C4.72544 22.6612 5.56362 23.1086 6.68488 23.3377C7.45645 23.4959 9.00513 23.4523 9.87662 23.2504C10.8203 23.0322 11.6307 22.743 12.5688 22.2792C14.8779 21.1553 16.9317 19.3494 18.4249 17.1343C18.9078 16.4196 19.474 15.3829 19.4074 15.3393C19.2964 15.2738 17.9475 15.0392 17.4813 15.0065L16.9817 14.9683L16.793 15.3175C16.2712 16.2668 15.5662 17.1561 14.6448 18.0345C13.1405 19.464 11.5419 20.3642 9.87662 20.7134C9.26047 20.8389 8.30573 20.8498 7.79505 20.7298C6.11315 20.3424 5.1362 18.8529 5.34158 16.9979C5.44705 16.0704 5.74124 15.1538 6.22972 14.2426C7.64518 11.6074 10.3151 9.43594 12.9851 8.75394C13.4014 8.64483 13.6234 8.623 14.3173 8.623C15.1055 8.623 15.1721 8.63391 15.6328 8.79214C16.471 9.08676 17.0872 9.62144 17.4313 10.3634C17.5978 10.7235 17.7311 11.1709 17.7311 11.3892C17.7311 11.4765 17.7477 11.5419 17.7755 11.5419C17.9364 11.5419 18.9966 11.7329 19.6072 11.8747C20.018 11.9675 20.3677 12.0275 20.3844 12.0057C20.451 11.9402 20.4232 10.4944 20.351 10.0961C19.9458 7.88645 18.436 6.41334 16.2046 6.0587C15.594 5.9605 14.4838 5.9605 13.8288 6.06416Z" fill="white"/>
<path d="M15.1779 12.0787C10.7872 12.5534 8.46694 15.3141 9.49384 18.8605C9.64927 19.4115 9.94901 20.099 10.0267 20.099C10.1821 20.099 11.1535 19.7334 11.6476 19.4934C12.4746 19.0896 12.4247 19.1551 12.2915 18.6531C12.1582 18.1403 12.1471 17.4637 12.2637 17.0164C12.5801 15.827 13.607 14.9758 15.2168 14.5775C15.6442 14.4684 15.8496 14.4521 16.8709 14.4521C17.7701 14.4521 18.1531 14.4739 18.5362 14.5503C20.8786 15.0086 23.0212 16.0888 24.5311 17.5619C25.7578 18.7568 26.4072 20.0171 26.4072 21.1902C26.4072 23.7763 23.4264 25.1512 19.6186 24.3219C17.9256 23.9509 16.0605 23.0834 14.8337 22.1013C14.6561 21.9594 14.5007 21.8449 14.4896 21.8449C14.4785 21.8449 14.2509 21.9813 13.9845 22.1449C13.718 22.3086 13.2296 22.576 12.9021 22.7451L12.297 23.0452L12.5301 23.2525C13.99 24.551 16.1993 25.7404 18.2697 26.346C20.5123 26.9953 22.9879 27.1099 24.8364 26.6461C27.6728 25.9314 29.3325 24.1145 29.3325 21.7194C29.327 17.4528 24.1369 13.0117 18.1642 12.1606C17.4482 12.0569 15.8051 12.0132 15.1779 12.0787Z" fill="white"/>
</g>
<defs>
<clipPath id="clip0_344_783">
<rect y="0.25" width="32" height="32" rx="5" fill="white"/>
</clipPath>
</defs>
</svg>
