<svg width="33" height="33" viewBox="0 0 33 33" fill="none" xmlns="http://www.w3.org/2000/svg">
<g clip-path="url(#clip0_344_1518)">
<path d="M23.2722 14.7698L19.0062 22.3954C18.7796 22.7895 18.6515 23.2624 18.6515 23.7057C18.6515 24.1882 18.7697 24.6387 18.9837 25.0259H6.28696C4.22784 25.0259 3.19336 24.0112 3.19336 21.9816V14.4052H23.515C23.4251 14.5172 23.344 14.6393 23.2722 14.7698ZM7.22293 18.2574C6.64166 18.2574 6.25736 18.6417 6.25736 19.2032V21.0259C6.25736 21.5776 6.64166 21.9717 7.22293 21.9717H9.63673C10.218 21.9717 10.6022 21.5776 10.6022 21.0259V19.2032C10.6022 18.6417 10.218 18.2574 9.63673 18.2574H7.22293ZM26.3461 11.2525V12.1688H3.19336V11.2525C3.19336 9.22296 4.22784 8.19833 6.28696 8.19833H23.2525C25.3214 8.19833 26.3461 9.22296 26.3461 11.2525Z" fill="white"/>
<path d="M26.7401 15.4232L31.016 23.0488C31.1342 23.2657 31.1933 23.4824 31.1933 23.709C31.1933 24.4479 30.6711 25.0292 29.8633 25.0292H21.3214C20.5135 25.0292 20.0012 24.4479 20.0012 23.709C20.0012 23.4824 20.0603 23.2657 20.1785 23.0588L24.4446 15.4232C24.6908 14.9701 25.144 14.7533 25.5972 14.7533C26.0406 14.7533 26.4839 14.9701 26.7401 15.4232ZM24.7598 22.6942C24.7598 23.1572 25.144 23.5317 25.5972 23.5317C26.0603 23.5317 26.4248 23.1572 26.4248 22.6942C26.4346 22.2508 26.0603 21.8666 25.5972 21.8666C25.144 21.8666 24.7598 22.241 24.7598 22.6942ZM24.9175 17.7976L25.0061 20.6055C25.0159 20.9405 25.2524 21.177 25.5972 21.177C25.9421 21.177 26.1884 20.9405 26.1982 20.6055L26.277 17.7976C26.2869 17.3937 26.011 17.1179 25.5972 17.1179C25.1835 17.1179 24.9075 17.3937 24.9175 17.7976Z" fill="white"/>
</g>
<defs>
<clipPath id="clip0_344_1518">
<rect x="0.527344" y="0.61377" width="32" height="32" rx="5" fill="white"/>
</clipPath>
</defs>
</svg>
