<svg width="33" height="33" viewBox="0 0 33 33" fill="none" xmlns="http://www.w3.org/2000/svg">
<g clip-path="url(#clip0_344_1529)">
<path d="M6.31556 26.5318C6.31556 28.618 7.53971 29.7047 9.62576 29.7047H15.4967V18.4875H6.31556V26.5318ZM17.5452 29.7047H23.4287C25.5023 29.7047 26.7388 28.618 26.7388 26.5318V18.4875H17.5452V29.7047ZM4.5293 15.2897C4.5293 16.6263 5.27878 17.1509 6.62784 17.1509H15.4967V10.3931H13.548C11.5869 10.3931 10.4377 9.15645 10.4377 7.7824C10.4377 6.40835 11.437 5.60891 12.811 5.60891C14.2975 5.60891 15.4967 6.73313 15.4967 8.58184V10.3931H17.5452V8.58184C17.5452 6.73313 18.7444 5.60891 20.2309 5.60891C21.6049 5.60891 22.6042 6.40835 22.6042 7.7824C22.6042 9.15645 21.4675 10.3931 19.4939 10.3931H17.5452V17.1509H26.4266C27.7757 17.1509 28.5251 16.6263 28.5251 15.2897V12.2543C28.5251 10.9177 27.7757 10.3931 26.4266 10.3931H23.5286C24.2531 9.70606 24.6903 8.76922 24.6903 7.66997C24.6903 5.24666 22.7791 3.52286 20.3559 3.52286C18.607 3.52286 17.1581 4.48469 16.521 6.15853C15.8839 4.48469 14.4474 3.52286 12.6861 3.52286C10.2753 3.52286 8.35165 5.24666 8.35165 7.66997C8.35165 8.76922 8.78884 9.70606 9.52583 10.3931H6.62784C5.34123 10.3931 4.5293 10.9177 4.5293 12.2543V15.2897Z" fill="white"/>
</g>
<defs>
<clipPath id="clip0_344_1529">
<rect x="0.527344" y="0.61377" width="32" height="32" rx="5" fill="white"/>
</clipPath>
</defs>
</svg>
