<svg width="33" height="33" viewBox="0 0 33 33" fill="none" xmlns="http://www.w3.org/2000/svg">
<g clip-path="url(#clip0_344_1474)">
<path d="M23.9042 4.87212H8.58544C8.66705 3.83406 9.28493 3.28043 10.4158 3.28043H22.0739C23.2047 3.28043 23.8226 3.83406 23.9042 4.87212Z" fill="white"/>
<path d="M26.2009 8.22852H6.30045C6.46366 7.13279 7.02325 6.49842 8.27067 6.49842H24.219C25.4664 6.49842 26.0377 7.13279 26.2009 8.22852Z" fill="white"/>
<path fill-rule="evenodd" clip-rule="evenodd" d="M7.44295 29.9471H25.0234C27.5416 29.9471 28.8706 28.6553 28.8706 26.187V13.8917C28.8706 11.4234 27.5416 10.1316 25.0234 10.1316H7.44295C4.91313 10.1316 3.60742 11.4119 3.60742 13.8917V26.187C3.60742 28.6553 4.91313 29.9471 7.44295 29.9471ZM12.3724 24.3227C12.066 24.6051 11.5608 24.584 11.2663 24.2645C10.9775 23.9512 10.9975 23.446 11.3038 23.1636L17.5995 17.3599L18.5773 16.5513L17.9134 16.5838L16.0106 16.5646C15.8056 16.568 15.6107 16.4695 15.4779 16.3254C15.218 16.0435 15.2106 15.6215 15.5044 15.3506C15.6544 15.2123 15.8247 15.1712 16.0292 15.1797L19.9893 15.4234C20.2722 15.4292 20.4493 15.5209 20.5879 15.6713C20.7323 15.8279 20.8094 16.0119 20.7922 16.2943L20.7136 20.2612C20.7055 20.4657 20.6449 20.6258 20.4949 20.7641C20.201 21.035 19.781 20.9934 19.5211 20.7114C19.3882 20.5673 19.3116 20.3713 19.3318 20.1673L19.4676 18.2572L19.5534 17.6102L18.6681 18.519L12.3724 24.3227Z" fill="white"/>
</g>
<defs>
<clipPath id="clip0_344_1474">
<rect x="0.527344" y="0.61377" width="32" height="32" rx="5" fill="white"/>
</clipPath>
</defs>
</svg>
