<svg width="32" height="33" viewBox="0 0 32 33" fill="none" xmlns="http://www.w3.org/2000/svg">
<g clip-path="url(#clip0_344_1584)">
<path d="M29.3327 16.6138C29.3327 23.8949 23.2935 29.9471 15.9993 29.9471C8.71831 29.9471 2.66602 23.8949 2.66602 16.6138C2.66602 9.31965 8.70524 3.28043 15.9863 3.28043C23.2805 3.28043 29.3327 9.31965 29.3327 16.6138ZM11.9994 12.8621C11.934 13.0713 11.9209 13.2282 11.9209 13.4112C11.9209 13.934 12.2739 14.2739 12.8098 14.2739C13.2804 14.2739 13.5288 13.9733 13.7641 13.5942C14.117 12.7837 14.836 11.921 16.1301 11.921C17.4112 11.921 18.2609 12.6661 18.2609 13.7772C18.2609 14.7576 17.4373 15.5811 16.6399 16.4177L12.3262 21.0321C12.1039 21.2935 11.9732 21.568 11.9732 21.8425C11.9732 22.3916 12.3392 22.7314 12.9405 22.7314H19.8687C20.4046 22.7314 20.7837 22.3916 20.7837 21.8425C20.7837 21.2804 20.4046 20.9537 19.8687 20.9537H14.9666V20.8621L18.1562 17.4504C19.3458 16.1824 20.1824 15.1105 20.1824 13.6072C20.1824 11.568 18.5354 10.1955 16.0386 10.1955C14.13 10.1955 12.4438 11.3589 11.9994 12.8621Z" fill="white"/>
</g>
<defs>
<clipPath id="clip0_344_1584">
<rect y="0.61377" width="32" height="32" rx="5" fill="white"/>
</clipPath>
</defs>
</svg>
