<svg width="32" height="33" viewBox="0 0 32 33" fill="none" xmlns="http://www.w3.org/2000/svg">
<g clip-path="url(#clip0_344_1540)">
<path d="M29.3327 16.6138C29.3327 23.8949 23.2935 29.9471 15.9993 29.9471C8.71831 29.9471 2.66602 23.8949 2.66602 16.6138C2.66602 9.31968 8.70524 3.28046 15.9863 3.28046C23.2805 3.28046 29.3327 9.31968 29.3327 16.6138ZM13.6726 10.4962C12.7837 10.4962 12.2085 10.9929 12.1562 11.7772L11.7771 16.2478C11.7249 17.0321 12.1824 17.542 12.9275 17.542C13.4242 17.542 13.7249 17.4373 14.2738 17.0321C14.9144 16.4831 15.4242 16.2739 16.104 16.2739C17.5288 16.2739 18.4831 17.2675 18.4831 18.7576C18.4831 20.2347 17.3719 21.3328 15.8818 21.3328C14.7707 21.3328 13.8294 20.7838 13.385 19.8948C13.1497 19.4635 12.8229 19.2413 12.4307 19.2413C11.8817 19.2413 11.5157 19.6203 11.5157 20.1432C11.5157 20.3785 11.568 20.5877 11.6595 20.7968C12.1954 22.1694 13.7641 23.0321 15.9209 23.0321C18.6529 23.0321 20.5353 21.3197 20.5353 18.7053C20.5353 16.3262 18.8229 14.6661 16.3523 14.6661C15.2543 14.6661 14.13 15.1497 13.6464 15.8165H13.5549L13.8687 12.1694H19.2543C19.7117 12.1694 20.0516 11.8164 20.0516 11.3328C20.0516 10.836 19.7249 10.4962 19.2543 10.4962H13.6726Z" fill="white"/>
</g>
<defs>
<clipPath id="clip0_344_1540">
<rect y="0.61377" width="32" height="32" rx="5" fill="white"/>
</clipPath>
</defs>
</svg>
