<svg width="32" height="33" viewBox="0 0 32 33" fill="none" xmlns="http://www.w3.org/2000/svg">
<g clip-path="url(#clip0_344_1573)">
<path d="M29.3327 16.6138C29.3327 23.8949 23.2935 29.9471 15.9993 29.9471C8.71831 29.9471 2.66602 23.8949 2.66602 16.6138C2.66602 9.31965 8.70524 3.28043 15.9863 3.28043C23.2805 3.28043 29.3327 9.31965 29.3327 16.6138ZM11.934 12.8099C11.8948 13.0059 11.8817 13.1497 11.8817 13.3458C11.8817 13.8818 12.2608 14.2478 12.7968 14.2478C13.2804 14.2478 13.568 14.0125 13.7249 13.5419C14.0255 12.5354 14.8621 11.9079 16.117 11.9079C17.4634 11.9079 18.3 12.5746 18.3 13.6595C18.3 14.7707 17.3589 15.5811 16.0778 15.5811H15.2281C14.7314 15.5811 14.3785 15.9209 14.3785 16.4308C14.3785 16.9013 14.7314 17.2543 15.2281 17.2543H16.1431C17.6595 17.2543 18.7053 18.0909 18.7053 19.3066C18.7053 20.5223 17.6465 21.3067 16.0778 21.3067C14.6137 21.3067 13.8033 20.6007 13.4765 19.6726C13.2935 19.202 13.019 18.9798 12.5484 18.9798C11.9994 18.9798 11.6072 19.3589 11.6072 19.9079C11.6072 20.104 11.6334 20.2216 11.6726 20.4177C12.0778 21.9733 13.8294 23.0321 16.0386 23.0321C18.9405 23.0321 20.7314 21.5158 20.7314 19.385C20.7314 17.8033 19.5288 16.5353 17.8948 16.3785V16.2739C19.2543 16.0779 20.3 14.836 20.3 13.4242C20.3 11.5419 18.5745 10.1955 16.1563 10.1955C13.9602 10.1955 12.3 11.2151 11.934 12.8099Z" fill="white"/>
</g>
<defs>
<clipPath id="clip0_344_1573">
<rect y="0.61377" width="32" height="32" rx="5" fill="white"/>
</clipPath>
</defs>
</svg>
