<svg width="32" height="33" viewBox="0 0 32 33" fill="none" xmlns="http://www.w3.org/2000/svg">
<g clip-path="url(#clip0_344_1562)">
<path d="M29.3327 16.6138C29.3327 23.8949 23.2935 29.9471 15.9993 29.9471C8.71831 29.9471 2.66602 23.8949 2.66602 16.6138C2.66602 9.31965 8.70524 3.28043 15.9863 3.28043C23.2805 3.28043 29.3327 9.31965 29.3327 16.6138ZM15.2674 10.8883C13.8425 13.4112 12.5353 15.7248 11.0843 18.2609C10.9275 18.5354 10.8621 18.8229 10.8621 19.1105C10.8621 19.7903 11.3066 20.2347 12.0517 20.2347H17.1235V21.6203C17.1235 22.3392 17.4896 22.7575 18.0909 22.7575C18.7445 22.7575 19.1105 22.3524 19.1105 21.6203V20.2347H20.0125C20.6007 20.2347 20.9798 19.8687 20.9798 19.3066C20.9798 18.7837 20.6007 18.4439 20.0125 18.4439H19.1105V15.5419C19.1105 14.8098 18.7445 14.4046 18.0909 14.4046C17.4896 14.4046 17.1235 14.823 17.1235 15.5419V18.4439H13.385C14.6007 16.1824 15.7641 14.1693 17.019 11.8687C17.1235 11.6465 17.1889 11.4373 17.1889 11.2282C17.1889 10.6922 16.8622 10.2347 16.2478 10.2347C15.8164 10.2347 15.5287 10.4438 15.2674 10.8883Z" fill="white"/>
</g>
<defs>
<clipPath id="clip0_344_1562">
<rect y="0.61377" width="32" height="32" rx="5" fill="white"/>
</clipPath>
</defs>
</svg>
