<svg width="32" height="33" viewBox="0 0 32 33" fill="none" xmlns="http://www.w3.org/2000/svg">
<g clip-path="url(#clip0_344_1551)">
<path d="M28 8.65504V24.5724C28 27.2579 26.6443 28.6138 23.9066 28.6138H8.09343C5.36882 28.6138 4 27.2709 4 24.5724V8.65504C4 5.95652 5.36882 4.61377 8.09343 4.61377H23.9066C26.6443 4.61377 28 5.96955 28 8.65504ZM13.686 10.4932C12.7996 10.4932 12.226 10.9886 12.1738 11.7707L11.8088 16.2291C11.7436 17.0114 12.1999 17.5198 12.943 17.5198C13.4384 17.5198 13.7512 17.4154 14.2857 17.0114C14.9245 16.4638 15.4329 16.2553 16.1108 16.2553C17.5318 16.2553 18.4834 17.246 18.4834 18.7321C18.4834 20.2053 17.3753 21.3003 15.8892 21.3003C14.7811 21.3003 13.8425 20.7527 13.3992 19.8663C13.1646 19.4362 12.8387 19.2145 12.4476 19.2145C11.9001 19.2145 11.535 19.5926 11.535 20.114C11.535 20.3487 11.5872 20.5573 11.6915 20.7659C12.2129 22.1346 13.7773 22.9951 15.9284 22.9951C18.6529 22.9951 20.5432 21.2873 20.5432 18.68C20.5432 16.3074 18.8224 14.6518 16.3716 14.6518C15.2635 14.6518 14.1423 15.1341 13.66 15.7989H13.5687L13.8816 12.1618H19.2526C19.7089 12.1618 20.0478 11.8098 20.0478 11.3275C20.0478 10.8321 19.7219 10.4932 19.2526 10.4932H13.686Z" fill="white"/>
</g>
<defs>
<clipPath id="clip0_344_1551">
<rect y="0.61377" width="32" height="32" rx="5" fill="white"/>
</clipPath>
</defs>
</svg>
