<svg width="33" height="33" viewBox="0 0 33 33" fill="none" xmlns="http://www.w3.org/2000/svg">
<g clip-path="url(#clip0_344_1485)">
<path d="M16.5266 29.9471C16.9671 29.9471 17.2891 29.6249 17.3738 29.1672C18.5767 19.894 19.8811 18.4701 29.0637 17.453C29.5381 17.402 29.86 17.063 29.86 16.6052C29.86 16.1644 29.5381 15.8255 29.0637 15.7746C19.8811 14.7575 18.5767 13.3334 17.3738 4.04329C17.2891 3.58556 16.9671 3.28043 16.5266 3.28043C16.0861 3.28043 15.7643 3.58556 15.6965 4.04329C14.4937 13.3334 13.1721 14.7575 4.00657 15.7746C3.51525 15.8255 3.19336 16.1644 3.19336 16.6052C3.19336 17.063 3.51525 17.402 4.00657 17.453C13.1552 18.6566 14.4259 19.894 15.6965 29.1672C15.7643 29.6249 16.0861 29.9471 16.5266 29.9471Z" fill="white"/>
</g>
<defs>
<clipPath id="clip0_344_1485">
<rect x="0.527344" y="0.61377" width="32" height="32" rx="5" fill="white"/>
</clipPath>
</defs>
</svg>
