<svg width="33" height="33" viewBox="0 0 33 33" fill="none" xmlns="http://www.w3.org/2000/svg">
<g clip-path="url(#clip0_344_1507)">
<path d="M15.801 8.21025C15.9693 8.21025 16.06 8.10737 16.0858 7.95306C16.4743 5.86983 16.4354 5.76695 18.6882 5.36831C18.8435 5.32973 18.947 5.23971 18.947 5.07255C18.947 4.91823 18.8435 4.81535 18.6882 4.78963C16.4354 4.39099 16.4743 4.28811 16.0858 2.20488C16.06 2.05057 15.9693 1.94769 15.801 1.94769C15.6327 1.94769 15.5421 2.05057 15.5162 2.20488C15.1278 4.28811 15.1666 4.39099 12.9139 4.78963C12.7456 4.81535 12.6549 4.91823 12.6549 5.07255C12.6549 5.23971 12.7456 5.32973 12.9139 5.36831C15.1666 5.76695 15.1278 5.86983 15.5162 7.95306C15.5421 8.10737 15.6327 8.21025 15.801 8.21025Z" fill="white"/>
<path d="M9.53531 17.0553C9.7813 17.0553 9.9496 16.8882 9.9755 16.6567C10.4416 13.2232 10.5581 13.2232 14.1314 12.5417C14.3515 12.5031 14.5198 12.3488 14.5198 12.1045C14.5198 11.873 14.3515 11.7058 14.1314 11.6801C10.5581 11.1786 10.4286 11.0629 9.9755 7.57795C9.9496 7.33362 9.7813 7.16644 9.53531 7.16644C9.30226 7.16644 9.13396 7.33362 9.09511 7.59081C8.68081 11.0243 8.48661 11.0114 4.93919 11.6801C4.71909 11.7187 4.55078 11.873 4.55078 12.1045C4.55078 12.3617 4.71909 12.5031 4.99097 12.5417C8.51251 13.1075 8.68081 13.1975 9.09511 16.631C9.13396 16.8882 9.30226 17.0553 9.53531 17.0553Z" fill="white"/>
<path d="M18.3128 31.2798C18.6494 31.2798 18.8955 31.0354 18.9602 30.6882C19.8794 23.6541 20.8763 22.574 27.8935 21.8024C28.256 21.7638 28.502 21.5066 28.502 21.1594C28.502 20.825 28.256 20.5679 27.8935 20.5293C20.8763 19.7577 19.8794 18.6775 18.9602 11.6305C18.8955 11.2833 18.6494 11.0519 18.3128 11.0519C17.9762 11.0519 17.7302 11.2833 17.6784 11.6305C16.7592 18.6775 15.7493 19.7577 8.74514 20.5293C8.36968 20.5679 8.1237 20.825 8.1237 21.1594C8.1237 21.5066 8.36968 21.7638 8.74514 21.8024C15.7364 22.7154 16.7074 23.6541 17.6784 30.6882C17.7302 31.0354 17.9762 31.2798 18.3128 31.2798Z" fill="white"/>
</g>
<defs>
<clipPath id="clip0_344_1507">
<rect x="0.527344" y="0.61377" width="32" height="32" rx="5" fill="white"/>
</clipPath>
</defs>
</svg>
