<svg width="33" height="33" viewBox="0 0 33 33" fill="none" xmlns="http://www.w3.org/2000/svg">
<g clip-path="url(#clip0_344_1496)">
<path d="M26.8995 29.4679C27.3327 29.9012 28.0547 29.9012 28.4735 29.4679C28.8922 29.0204 28.9066 28.3273 28.4735 27.8941L5.09578 4.58862C4.66258 4.15543 3.94061 4.14099 3.50742 4.58862C3.08867 5.00736 3.08867 5.72934 3.50742 6.16252L26.8995 29.4679Z" fill="white"/>
<path d="M5.10037 10.3074C4.04434 11.1078 3.49625 12.4069 3.49625 14.1602V15.8885C3.49625 18.9901 5.22463 20.683 8.45647 20.683H11.0017V16.2088L5.10037 10.3074Z" fill="white"/>
<path d="M12.6235 17.8306V20.6948C13.6916 20.8118 14.8451 20.9914 16.0264 21.2335L12.6235 17.8306Z" fill="white"/>
<path d="M29.0368 26.0045C28.8891 25.5953 28.6512 25.2112 28.3231 24.8832L25.0418 21.6019V5.84972C25.0418 4.4173 26.0244 3.43472 27.4449 3.43472C28.8892 3.43472 29.86 4.4173 29.86 5.84972V24.128C29.86 24.922 29.5567 25.5793 29.0368 26.0045Z" fill="white"/>
<path d="M23.42 19.9801L12.7873 9.34739C15.8353 8.99791 20.1873 7.98757 23.42 6.40612V19.9801Z" fill="white"/>
<path d="M15.3345 25.8445C15.7133 27.6676 14.636 28.6975 13.1681 28.6975C11.7948 28.6975 11.0609 27.928 10.469 26.6377L8.48014 22.293C8.69661 22.293 8.90922 22.3008 9.09145 22.3074C9.22813 22.3123 9.34771 22.3167 9.43903 22.3167C12.4341 22.3995 13.7719 22.5061 14.6715 22.6599L15.3345 25.8445Z" fill="white"/>
</g>
<defs>
<clipPath id="clip0_344_1496">
<rect x="0.527344" y="0.61377" width="32" height="32" rx="5" fill="white"/>
</clipPath>
</defs>
</svg>
