<svg width="32" height="32" viewBox="0 0 32 32" fill="none" xmlns="http://www.w3.org/2000/svg">
<g clip-path="url(#clip0_344_1675)">
<path d="M23.7526 5.22069L10.8154 5.22069C10.8575 4.38765 11.3832 3.90869 12.2564 3.90869L22.3116 3.90869C23.1847 3.90869 23.7105 4.38765 23.7526 5.22069Z" fill="white"/>
<path d="M25.848 8.14871C25.5184 8.0963 25.1688 8.07032 24.8011 8.07032H9.7645C9.39696 8.07032 9.04736 8.0963 8.71779 8.14868C8.8294 7.16395 9.49571 6.61482 10.5845 6.61482H23.9914C25.0802 6.61482 25.738 7.16396 25.848 8.14871Z" fill="white"/>
<path d="M28.0183 12.8944V23.4211C28.0183 25.5326 26.9421 26.5986 24.7999 26.5986H11.9775C12.7193 25.5349 13.1559 24.2496 13.1559 22.8778C13.1559 19.2494 10.1732 16.2666 6.55495 16.2666C6.55149 16.2666 6.54804 16.2666 6.5447 16.2671V12.8944C6.5447 10.7829 7.62094 9.71686 9.76321 9.71686H24.7999C26.9421 9.71686 28.0183 10.7829 28.0183 12.8944Z" fill="white"/>
<path d="M11.7655 22.8844C11.7655 25.7237 9.37721 28.0914 6.55852 28.0914C3.69879 28.0914 1.35156 25.7442 1.35156 22.8844C1.35156 20.0247 3.69879 17.6775 6.55852 17.6775C9.408 17.6775 11.7655 20.0247 11.7655 22.8844ZM3.54505 25.3547V25.4059C3.87304 26.1132 5.06204 26.8922 6.55852 26.8922C8.05501 26.8922 9.22354 26.1234 9.56177 25.4059V25.365C9.23377 24.7192 8.18827 24.012 6.55852 24.012C4.92878 24.012 3.88329 24.7192 3.54505 25.3547ZM4.87754 21.347C4.87754 22.4027 5.60528 23.192 6.54828 23.192C7.49127 23.192 8.22926 22.4027 8.22926 21.347C8.22926 20.3834 7.49127 19.5737 6.54828 19.5737C5.61553 19.5737 4.87754 20.3834 4.87754 21.347Z" fill="white"/>
</g>
<defs>
<clipPath id="clip0_344_1675">
<rect width="32" height="32" rx="5" fill="white"/>
</clipPath>
</defs>
</svg>
