<svg width="32" height="33" viewBox="0 0 32 33" fill="none" xmlns="http://www.w3.org/2000/svg">
<g clip-path="url(#clip0_344_1785)">
<path d="M10.0252 25.1449C12.1058 25.1449 13.5443 25.8046 14.1863 26.192C14.4122 26.2968 15.0066 26.6214 15.1612 26.6528V9.24963C14.2695 7.88838 11.8323 6.82031 9.34754 6.82031C6.05434 6.82031 3.36746 8.45382 2.66602 9.68942V25.5114C2.6779 26.4434 3.27235 26.8203 4.00945 26.8203C4.55634 26.8203 4.90112 26.6528 5.26967 26.4015C6.03056 25.857 7.77822 25.1449 10.0252 25.1449ZM21.9854 25.1449C24.2324 25.1449 25.9681 25.857 26.729 26.4015C27.0976 26.6528 27.4424 26.8203 27.9774 26.8203C28.7145 26.8203 29.3327 26.4434 29.3327 25.5114V9.68942C28.6312 8.45382 25.9444 6.82031 22.663 6.82031C20.1783 6.82031 17.7292 7.88838 16.8494 9.24963V26.6737C16.9921 26.6423 17.5865 26.3072 17.8243 26.192C18.4663 25.8046 19.9048 25.1449 21.9854 25.1449Z" fill="white"/>
</g>
<defs>
<clipPath id="clip0_344_1785">
<rect y="0.820312" width="32" height="32" rx="5" fill="white"/>
</clipPath>
</defs>
</svg>
