<svg width="32" height="33" viewBox="0 0 32 33" fill="none" xmlns="http://www.w3.org/2000/svg">
<g clip-path="url(#clip0_344_1653)">
<path d="M2.66602 25.9753C2.66602 26.9598 3.31437 27.344 4.02277 27.344C4.43099 27.344 4.77918 27.104 5.23543 26.8278C6.55617 25.9273 8.18906 25.375 9.85798 25.387C11.5869 25.399 13.3039 26.0354 14.6486 27.332C15.1769 27.8124 15.5611 27.9684 16.0053 27.9684C16.4376 27.9684 16.8338 27.8124 17.3501 27.332C18.6948 26.0473 20.4118 25.399 22.1527 25.387C23.8216 25.375 25.4426 25.9273 26.7633 26.8278C27.2195 27.104 27.5678 27.344 27.9879 27.344C28.6843 27.344 29.3327 26.9598 29.3327 25.9753V9.68233C29.3327 9.47822 29.3207 9.31013 29.1886 9.10601C28.1201 7.24499 25.4065 5.67212 22.1048 5.67212C19.4873 5.67212 17.218 6.71669 16.0053 8.19351C14.7927 6.71669 12.5115 5.67212 9.90601 5.67212C6.59218 5.67212 3.87868 7.24499 2.8101 9.10601C2.69003 9.31013 2.66602 9.47822 2.66602 9.68233V25.9753ZM4.59908 24.9547V9.95848C5.57162 8.55371 7.68479 7.60519 9.90601 7.60519C12.1873 7.60519 14.1804 8.56572 15.0328 10.0305V25.1588C13.8082 24.1863 11.8991 23.454 9.90601 23.454C7.81685 23.454 5.87179 24.0423 4.59908 24.9547ZM16.9659 25.1588V10.0305C17.8184 8.56572 19.8235 7.60519 22.1048 7.60519C24.314 7.60519 26.4271 8.55371 27.3996 9.95848V24.9547C26.1269 24.0423 24.1819 23.454 22.1048 23.454C20.0996 23.454 18.1905 24.1863 16.9659 25.1588Z" fill="white"/>
</g>
<defs>
<clipPath id="clip0_344_1653">
<rect y="0.820312" width="32" height="32" rx="5" fill="white"/>
</clipPath>
</defs>
</svg>
