<svg width="32" height="33" viewBox="0 0 32 33" fill="none" xmlns="http://www.w3.org/2000/svg">
<g clip-path="url(#clip0_344_1609)">
<path d="M6.03383 27.3302C6.12327 27.9598 6.4078 28.388 7.09614 28.7252C9.02008 29.5912 11.7046 30.1423 14.859 30.1536C18.1029 30.1423 21.7158 29.6475 24.2326 28.4328C25.6308 27.7467 25.9999 27.1169 25.9999 25.6435V8.44684C25.9999 6.5236 25.1163 5.61259 23.2818 5.61259H22.2329V7.72703H23.2259C23.6845 7.72703 23.897 7.96322 23.897 8.48058V25.4186C23.897 26.0822 23.7852 26.3633 23.1476 26.6333C21.1118 27.533 18.3154 28.0954 15.6644 28.1291C14.4028 28.1402 13.185 28.0853 11.8811 27.9317C9.56253 27.9486 7.19144 27.5826 6.03383 27.3302Z" fill="white"/>
<path fill-rule="evenodd" clip-rule="evenodd" d="M6.03383 27.3302C6.00991 27.1617 6 26.979 6 26.7796V7.47975C6 6.29881 6.72707 5.55651 8.01342 5.55651H8.86353C12.8009 5.55651 15.8881 4.82546 19.2662 3.73449C19.7584 3.56579 20.1834 3.48706 20.5414 3.48706C21.5928 3.48706 22.2192 4.06066 22.2192 5.23035V5.61275L22.2329 5.61259V7.72703L22.2192 7.72718V23.1693C22.2192 24.2153 21.9843 24.6877 21.3691 25.1601C19.4004 26.6672 15.821 27.7694 11.8389 27.9268C11.853 27.9285 11.867 27.93 11.8811 27.9317C9.56253 27.9486 7.19144 27.5826 6.03383 27.3302ZM10.1163 10.4939V14.3517C10.1163 14.5316 10.2506 14.6216 10.396 14.6216C13.0694 14.6216 15.821 14.1492 17.9128 13.2945C18.0134 13.2495 18.0694 13.1482 18.0694 13.047V9.04308C18.0694 8.77316 17.8456 8.71692 17.7002 8.76191C15.3065 9.66167 12.9799 10.0891 10.396 10.1903C10.2394 10.2015 10.1163 10.3365 10.1163 10.4939Z" fill="white"/>
</g>
<defs>
<clipPath id="clip0_344_1609">
<rect y="0.820312" width="32" height="32" rx="5" fill="white"/>
</clipPath>
</defs>
</svg>
