<svg width="32" height="33" viewBox="0 0 32 33" fill="none" xmlns="http://www.w3.org/2000/svg">
<g clip-path="url(#clip0_344_1598)">
<path d="M3.75612 12.1534C4.47831 12.1534 4.85985 11.7446 4.85985 11.036V7.82023C4.85985 6.40309 5.6093 5.6809 6.97193 5.6809H10.2695C10.9917 5.6809 11.3869 5.28573 11.3869 4.57717C11.3869 3.8686 10.9917 3.48706 10.2695 3.48706H6.94468C4.09678 3.48706 2.66602 4.89057 2.66602 7.69759V11.036C2.66602 11.7446 3.06118 12.1534 3.75612 12.1534ZM28.2426 12.1534C28.9648 12.1534 29.3463 11.7446 29.3463 11.036V7.69759C29.3463 4.89057 27.9155 3.48706 25.0677 3.48706H21.7292C21.0207 3.48706 20.6255 3.8686 20.6255 4.57717C20.6255 5.28573 21.0207 5.6809 21.7292 5.6809H25.0268C26.3758 5.6809 27.1525 6.40309 27.1525 7.82023V11.036C27.1525 11.7446 27.5476 12.1534 28.2426 12.1534ZM6.94468 30.1537H10.2695C10.9917 30.1537 11.3869 29.7586 11.3869 29.0636C11.3869 28.3551 10.9917 27.9599 10.2695 27.9599H6.97193C5.6093 27.9599 4.85985 27.2377 4.85985 25.8206V22.6047C4.85985 21.8826 4.4647 21.4874 3.75612 21.4874C3.04755 21.4874 2.66602 21.8826 2.66602 22.6047V25.9296C2.66602 28.7503 4.09678 30.1537 6.94468 30.1537ZM21.7292 30.1537H25.0677C27.9155 30.1537 29.3463 28.7366 29.3463 25.9296V22.6047C29.3463 21.8826 28.9512 21.4874 28.2426 21.4874C27.534 21.4874 27.1525 21.8826 27.1525 22.6047V25.8206C27.1525 27.2377 26.3758 27.9599 25.0268 27.9599H21.7292C21.0207 27.9599 20.6255 28.3551 20.6255 29.0636C20.6255 29.7586 21.0207 30.1537 21.7292 30.1537Z" fill="white"/>
<path d="M9.92884 22.9726H22.0971C23.5279 22.9726 24.2637 22.2641 24.2637 20.8469V13.6523C24.2637 12.2079 23.5279 11.4993 22.0971 11.4993H20.3257C19.7943 11.4993 19.6307 11.4039 19.3174 11.0497L18.7586 10.4365C18.4181 10.0549 18.0638 9.86416 17.3688 9.86416H14.6162C13.9077 9.86416 13.5534 10.0549 13.2128 10.4365L12.6541 11.0497C12.3407 11.3903 12.1772 11.4993 11.6458 11.4993H9.92884C8.48446 11.4993 7.76226 12.2079 7.76226 13.6523V20.8469C7.76226 22.2641 8.48446 22.9726 9.92884 22.9726ZM16.0334 21.2694C13.7578 21.2694 11.9319 19.4571 11.9319 17.1679C11.9319 14.9059 13.7578 13.0936 16.0334 13.0936C18.2818 13.0936 20.0941 14.9059 20.0941 17.1679C20.0941 19.498 18.2818 21.2694 16.0334 21.2694ZM16.0198 20.0839C17.6141 20.0839 18.9223 18.803 18.9223 17.1679C18.9223 15.5599 17.6141 14.2655 16.0198 14.2655C14.4119 14.2655 13.1038 15.5599 13.1038 17.1679C13.1038 18.803 14.4119 20.0839 16.0198 20.0839ZM21.4568 15.2193C20.9526 15.2193 20.5437 14.8105 20.5437 14.2927C20.5437 13.7749 20.9526 13.3661 21.4568 13.3661C21.9609 13.3661 22.3833 13.7749 22.3833 14.2927C22.3833 14.8105 21.9609 15.2193 21.4568 15.2193Z" fill="white"/>
</g>
<defs>
<clipPath id="clip0_344_1598">
<rect y="0.820312" width="32" height="32" rx="5" fill="white"/>
</clipPath>
</defs>
</svg>
