<svg width="32" height="33" viewBox="0 0 32 33" fill="none" xmlns="http://www.w3.org/2000/svg">
<g clip-path="url(#clip0_344_1631)">
<path d="M6.07536 27.1731H25.9234C28.1818 27.1731 29.3327 26.0439 29.3327 23.8071V12.4391C29.3327 10.2024 28.1818 9.08401 25.9234 9.08401H22.8181C21.9603 9.08401 21.6997 8.91029 21.2111 8.3674L20.3425 7.3902C19.7996 6.79302 19.2458 6.46729 18.1275 6.46729H13.7952C12.6769 6.46729 12.1231 6.79302 11.5803 7.3902L10.7116 8.3674C10.223 8.89943 9.95159 9.08401 9.10468 9.08401H6.07536C3.80608 9.08401 2.66602 10.2024 2.66602 12.4391V23.8071C2.66602 26.0439 3.80608 27.1731 6.07536 27.1731ZM15.9993 23.97C12.7094 23.97 10.071 21.3425 10.071 18.0309C10.071 14.7301 12.7094 12.1025 15.9993 12.1025C19.2893 12.1025 21.9168 14.7301 21.9168 18.0309C21.9168 21.3425 19.2784 23.97 15.9993 23.97ZM15.9993 22.3197C18.3664 22.3197 20.2773 20.4195 20.2773 18.0309C20.2773 15.653 18.3664 13.742 15.9993 13.742C13.6323 13.742 11.7105 15.653 11.7105 18.0309C11.7105 20.4195 13.6433 22.3197 15.9993 22.3197ZM22.6443 14.0352C22.6443 13.2968 23.2958 12.6454 24.0558 12.6454C24.805 12.6454 25.4456 13.2968 25.4456 14.0352C25.4456 14.8061 24.805 15.425 24.0558 15.4358C23.2958 15.4358 22.6443 14.8169 22.6443 14.0352Z" fill="white"/>
</g>
<defs>
<clipPath id="clip0_344_1631">
<rect y="0.820312" width="32" height="32" rx="5" fill="white"/>
</clipPath>
</defs>
</svg>
