<svg width="32" height="33" viewBox="0 0 32 33" fill="none" xmlns="http://www.w3.org/2000/svg">
<g clip-path="url(#clip0_344_1774)">
<path d="M25.9808 15.7492C28.0493 16.619 29.3327 18.5495 29.3327 20.777C29.3327 23.694 26.8294 26.0382 23.626 26.0382H9.01977C5.39209 26.0382 2.66602 23.4183 2.66602 20.2997C2.66602 17.7115 4.16164 15.5688 6.55889 15.187C6.61193 12.217 9.45467 10.2334 12.0641 10.9971C13.337 9.14084 15.3842 7.60278 18.2588 7.60278C22.5971 7.60278 26.002 11.0183 25.9808 15.7492ZM18.8315 13.6277L15.2039 19.6845L13.3793 17.2978C13.1778 17.022 12.9126 16.8736 12.5945 16.8736C12.1171 16.8736 11.7352 17.2554 11.7352 17.7539C11.7352 17.9767 11.8201 18.1888 11.9792 18.401L14.3553 21.3923C14.6098 21.7211 14.8962 21.8696 15.2462 21.8696C15.5963 21.8696 15.8933 21.6998 16.0948 21.3817L20.2423 14.6248C20.3484 14.4551 20.4862 14.2111 20.4862 13.9672C20.4862 13.5004 20.0832 13.1504 19.5846 13.1504C19.2876 13.1504 19.0012 13.3307 18.8315 13.6277Z" fill="white"/>
</g>
<defs>
<clipPath id="clip0_344_1774">
<rect y="0.820312" width="32" height="32" rx="5" fill="white"/>
</clipPath>
</defs>
</svg>
