<svg width="32" height="32" viewBox="0 0 32 32" fill="none" xmlns="http://www.w3.org/2000/svg">
<g clip-path="url(#clip0_344_1708)">
<path d="M24.843 7.71273V7.91316H10.8603C7.5001 7.91316 5.55477 9.84671 5.55477 13.1714V22.4855H5.03601C2.57193 22.4855 1.33398 21.2711 1.33398 18.8306V7.71273C1.33398 5.28401 2.57193 4.05786 5.03601 4.05786H21.141C23.6051 4.05786 24.843 5.28401 24.843 7.71273Z" fill="white"/>
<path d="M30.6673 13.1694V24.2873C30.6673 26.7161 29.4293 27.9422 26.9652 27.9422H10.8603C8.39613 27.9422 7.15818 26.7278 7.15818 24.2873V13.1694C7.15818 10.7407 8.39613 9.51458 10.8603 9.51458H26.9652C29.4293 9.51458 30.6673 10.7407 30.6673 13.1694ZM21.1764 18.2863L16.4133 22.5071L14.5269 20.7975C14.0671 20.3848 13.5837 20.1962 13.0767 20.1962C12.617 20.1962 12.1807 20.3848 11.7208 20.7739L9.05636 23.1202V24.193C9.05636 25.4191 9.71659 26.044 10.8956 26.044H26.9416C28.0971 26.044 28.769 25.4191 28.769 24.193V22.4599L24.3596 18.2981C23.8998 17.8736 23.3457 17.6614 22.768 17.6614C22.1786 17.6614 21.6716 17.8501 21.1764 18.2863ZM13.065 16.0344C13.065 17.4138 14.1849 18.5574 15.5643 18.5574C16.9438 18.5574 18.0638 17.4138 18.0638 16.0344C18.0638 14.6785 16.9438 13.5349 15.5643 13.5349C14.1849 13.5349 13.065 14.6785 13.065 16.0344Z" fill="white"/>
</g>
<defs>
<clipPath id="clip0_344_1708">
<rect width="32" height="32" rx="5" fill="white"/>
</clipPath>
</defs>
</svg>
