<svg width="32" height="32" viewBox="0 0 32 32" fill="none" xmlns="http://www.w3.org/2000/svg">
<g clip-path="url(#clip0_344_1730)">
<path d="M4.60962 6.54178C2.43689 6.9412 0.999282 9.02635 1.39863 11.1991L3.19336 20.9636C3.43466 22.2764 4.29145 23.3209 5.41115 23.8538V13.6746C5.41115 12.1556 5.80078 10.6534 6.92067 9.5468C8.03621 8.44449 9.54341 8.0643 11.0677 8.0643H24.4818L24.2847 6.99186C23.8853 4.81912 21.8002 3.38156 19.6275 3.78098L4.60962 6.54178Z" fill="white"/>
<path d="M30.6665 13.6609V24.6675C30.6665 27.072 29.441 28.2858 27.0018 28.2858H11.0594C8.6201 28.2858 7.39465 27.0836 7.39465 24.6675V13.6609C7.39465 11.2565 8.6201 10.0426 11.0594 10.0426H27.0018C29.441 10.0426 30.6665 11.2565 30.6665 13.6609ZM21.2714 18.7266L16.5563 22.9051L14.689 21.2127C14.2338 20.8041 13.7553 20.6174 13.2535 20.6174C12.7983 20.6174 12.3665 20.8041 11.9113 21.1893L9.27367 23.5121V24.5742C9.27367 25.788 9.92724 26.4067 11.0943 26.4067H26.9784C28.1222 26.4067 28.7874 25.788 28.7874 24.5742V22.8584L24.4225 18.7382C23.9673 18.318 23.4188 18.1079 22.8469 18.1079C22.2634 18.1079 21.7616 18.2947 21.2714 18.7266ZM13.2418 16.4972C13.2418 17.8628 14.3505 18.995 15.716 18.995C17.0815 18.995 18.1902 17.8628 18.1902 16.4972C18.1902 15.1549 17.0815 14.0227 15.716 14.0227C14.3505 14.0227 13.2418 15.1549 13.2418 16.4972Z" fill="white"/>
</g>
<defs>
<clipPath id="clip0_344_1730">
<rect width="32" height="32" rx="5" fill="white"/>
</clipPath>
</defs>
</svg>
