<svg width="32" height="33" viewBox="0 0 32 33" fill="none" xmlns="http://www.w3.org/2000/svg">
<g clip-path="url(#clip0_344_1697)">
<path d="M7.04297 16.595C7.04297 21.5028 10.2855 24.9456 15.0555 25.3462V28.2633H10.4107C9.88492 28.2633 9.45925 28.6889 9.45925 29.2148C9.45925 29.7406 9.88492 30.1537 10.4107 30.1537H21.5907C22.1166 30.1537 22.5422 29.7406 22.5422 29.2148C22.5422 28.6889 22.1166 28.2633 21.5907 28.2633H16.946V25.3462C21.7284 24.9456 24.9585 21.5028 24.9585 16.595V14.0536C24.9585 13.5278 24.5453 13.1146 24.0195 13.1146C23.4937 13.1146 23.068 13.5278 23.068 14.0536V16.5199C23.068 20.7891 20.2886 23.6186 16.007 23.6186C11.7128 23.6186 8.93342 20.7891 8.93342 16.5199V14.0536C8.93342 13.5278 8.52028 13.1146 7.98194 13.1146C7.45612 13.1146 7.04297 13.5278 7.04297 14.0536V16.595ZM16.007 20.9268C18.4984 20.9268 20.176 19.0614 20.176 16.3947V8.01915C20.176 5.33996 18.4984 3.48706 16.007 3.48706C13.5031 3.48706 11.8254 5.33996 11.8254 8.01915V16.3947C11.8254 19.0614 13.5031 20.9268 16.007 20.9268Z" fill="white"/>
</g>
<defs>
<clipPath id="clip0_344_1697">
<rect y="0.820312" width="32" height="32" rx="5" fill="white"/>
</clipPath>
</defs>
</svg>
