<svg width="32" height="33" viewBox="0 0 32 33" fill="none" xmlns="http://www.w3.org/2000/svg">
<g clip-path="url(#clip0_344_1620)">
<path d="M25.5338 15.5079V9.7846C25.5338 7.72864 24.4959 6.69067 22.4 6.69067H5.13386C3.04795 6.69067 2 7.72864 2 9.7846V21.9807C2 24.0367 3.04795 25.0646 5.13386 25.0646H19.159C18.6163 24.1289 18.308 23.0439 18.308 21.8909C18.308 20.1377 19.0232 18.5393 20.1767 17.3749L18.5775 15.8727C18.1383 15.4635 17.6094 15.2539 17.0704 15.2539C16.5215 15.2539 16.0325 15.4435 15.5734 15.8527L11.0622 19.8848L9.21588 18.2181C8.79669 17.8388 8.33756 17.6492 7.86846 17.6492C7.41938 17.6492 6.99023 17.8288 6.581 18.2081L3.60685 20.8934V9.87443C3.60685 8.83646 4.15577 8.29752 5.15382 8.29752H22.38C23.3681 8.29752 23.927 8.83646 23.927 9.87443V15.5123C24.1939 15.4714 24.4677 15.4535 24.7454 15.4535C25.0126 15.4535 25.2764 15.4702 25.5338 15.5079Z" fill="white"/>
<path d="M9.43544 15.9725C10.7229 15.9725 11.7808 14.9146 11.7808 13.6171C11.7808 12.3296 10.7229 11.2617 9.43544 11.2617C8.13793 11.2617 7.08008 12.3296 7.08008 13.6171C7.08008 14.9146 8.13793 15.9725 9.43544 15.9725Z" fill="white"/>
<path fill-rule="evenodd" clip-rule="evenodd" d="M30.0001 21.8792C30.0001 24.6577 27.7027 26.9501 24.9292 26.9501C22.1557 26.9501 19.8583 24.6577 19.8583 21.8792C19.8583 19.1057 22.1508 16.8084 24.9243 16.8084C27.7027 16.8084 30.0001 19.1057 30.0001 21.8792ZM24.9292 20.4115C24.6837 19.9746 24.2714 19.6604 23.7216 19.6604C22.8773 19.6604 22.2538 20.2986 22.2538 21.2067C22.2538 22.591 23.7609 23.7986 24.6592 24.368C24.7476 24.422 24.8654 24.4859 24.9341 24.4859C25.0077 24.4859 25.1108 24.422 25.1943 24.368C26.0877 23.7888 27.5996 22.591 27.5996 21.2067C27.5996 20.2986 26.9762 19.6604 26.1368 19.6604C25.587 19.6604 25.1697 19.9746 24.9292 20.4115Z" fill="white"/>
</g>
<defs>
<clipPath id="clip0_344_1620">
<rect y="0.820312" width="32" height="32" rx="5" fill="white"/>
</clipPath>
</defs>
</svg>
