<svg width="32" height="32" viewBox="0 0 32 32" fill="none" xmlns="http://www.w3.org/2000/svg">
<g clip-path="url(#clip0_344_1664)">
<path d="M26.3572 8.40873V14.1697C26.098 14.1318 25.8325 14.115 25.5634 14.115C23.8917 14.115 22.3598 14.7607 21.2107 15.82L20.1179 14.8081C19.6457 14.366 19.073 14.1551 18.5204 14.1551C17.9477 14.1551 17.3951 14.356 16.9028 14.798L12.1003 19.0576L10.1812 17.3297C9.7392 16.9178 9.22684 16.7169 8.73446 16.7169C8.29241 16.7169 7.81014 16.9178 7.36809 17.3096L4.28361 20.002V20.6148C4.28361 21.5993 4.86634 22.1819 5.84092 22.1819H19.2899C19.4278 22.754 19.6494 23.2937 19.9398 23.7893H5.82082C3.72097 23.7893 2.66602 22.7546 2.66602 20.6851V8.40873C2.66602 6.33923 3.72097 5.29443 5.82082 5.29443H23.2023C25.3123 5.29443 26.3572 6.33923 26.3572 8.40873ZM7.71969 12.3167C7.71969 13.683 8.83494 14.798 10.2014 14.798C11.5577 14.798 12.673 13.683 12.673 12.3167C12.673 10.9605 11.5577 9.83529 10.2014 9.83529C8.83494 9.83529 7.71969 10.9605 7.71969 12.3167Z" fill="white"/>
<path d="M30.666 20.5919C30.666 23.3747 28.325 25.6953 25.562 25.6953C22.7589 25.6953 20.4581 23.3947 20.4581 20.5919C20.4581 17.789 22.7589 15.4884 25.562 15.4884C28.3552 15.4884 30.666 17.789 30.666 20.5919ZM24.909 17.9899V20.6622L24.9592 21.9381L24.2961 21.2649L23.3416 20.3005C23.2211 20.17 23.0503 20.0795 22.8794 20.0895C22.5278 20.0895 22.2465 20.3407 22.2666 20.6823C22.2766 20.8832 22.3369 21.0239 22.4976 21.1544L25.0899 23.5755C25.2606 23.7464 25.4012 23.8067 25.5721 23.8067C25.7429 23.8067 25.8735 23.7263 26.0443 23.5755L28.6465 21.1544C28.7972 21.0239 28.8675 20.8732 28.8675 20.6823C28.8675 20.3407 28.6063 20.0695 28.2547 20.0895C28.0838 20.0997 27.9232 20.17 27.8025 20.3005L26.838 21.2649L26.185 21.9381L26.2352 20.6622V17.9899C26.2352 17.6384 25.9338 17.347 25.5721 17.347C25.2104 17.347 24.909 17.6384 24.909 17.9899Z" fill="white"/>
</g>
<defs>
<clipPath id="clip0_344_1664">
<rect width="32" height="32" rx="5" fill="white"/>
</clipPath>
</defs>
</svg>
