<svg width="32" height="32" viewBox="0 0 32 32" fill="none" xmlns="http://www.w3.org/2000/svg">
<g clip-path="url(#clip0_344_1686)">
<path d="M26.3596 8.42279V14.185C26.1004 14.147 25.8348 14.1302 25.5657 14.1302C25.2863 14.1302 25.0106 14.1482 24.7417 14.1893V8.51322C24.7417 7.46822 24.1792 6.92562 23.1844 6.92562H5.84124C4.83642 6.92562 4.28377 7.46822 4.28377 8.51322V19.607L7.27811 16.9035C7.69011 16.5216 8.12217 16.3407 8.5743 16.3407C9.04659 16.3407 9.50883 16.5317 9.93087 16.9135L11.7897 18.5915L16.3315 14.532C16.7937 14.1201 17.2861 13.9292 17.8387 13.9292C18.3814 13.9292 18.9139 14.1402 19.3561 14.5522L20.966 16.0646C19.8047 17.2368 19.0847 18.8461 19.0847 20.6112C19.0847 21.772 19.3951 22.8645 19.9415 23.8065H5.82114C3.72107 23.8065 2.66602 22.7716 2.66602 20.7016V8.42279C2.66602 6.35287 3.72107 5.30786 5.82114 5.30786H23.2045C25.3146 5.30786 26.3596 6.35287 26.3596 8.42279ZM12.5132 12.2813C12.5132 13.5876 11.4481 14.6527 10.1519 14.6527C8.84559 14.6527 7.78056 13.5876 7.78056 12.2813C7.78056 10.9851 8.84559 9.90992 10.1519 9.90992C11.4481 9.90992 12.5132 10.9851 12.5132 12.2813Z" fill="white"/>
<path d="M20.4571 20.6155C20.4571 17.8322 22.7982 15.5111 25.5616 15.5111C28.365 15.5111 30.666 17.8121 30.666 20.6155C30.666 23.4191 28.365 25.7201 25.5616 25.7201C22.768 25.7201 20.4571 23.4191 20.4571 20.6155ZM26.2147 23.2181V20.5452L26.1645 19.2691L26.8276 19.9424L27.7822 20.9069C27.9028 21.0376 28.0736 21.128 28.2444 21.1181C28.596 21.1181 28.8773 20.8668 28.8573 20.5252C28.8473 20.3242 28.7871 20.1835 28.6262 20.0529L26.0338 17.6313C25.863 17.4604 25.7223 17.4001 25.5515 17.4001C25.3807 17.4001 25.25 17.4806 25.0793 17.6313L22.4768 20.0529C22.3261 20.1835 22.2557 20.3342 22.2557 20.5252C22.2557 20.8668 22.5169 21.1381 22.8686 21.1181C23.0395 21.1079 23.2002 21.0376 23.3208 20.9069L24.2854 19.9424L24.9385 19.2691L24.8883 20.5452V23.2181C24.8883 23.5697 25.1898 23.8611 25.5515 23.8611C25.9132 23.8611 26.2147 23.5697 26.2147 23.2181Z" fill="white"/>
</g>
<defs>
<clipPath id="clip0_344_1686">
<rect width="32" height="32" rx="5" fill="white"/>
</clipPath>
</defs>
</svg>
