<svg width="32" height="33" viewBox="0 0 32 33" fill="none" xmlns="http://www.w3.org/2000/svg">
<g clip-path="url(#clip0_344_1642)">
<path d="M28 10.6066V23.0443C28 25.141 26.9415 26.1893 24.8041 26.1893H7.19593C5.0687 26.1893 4 25.141 4 23.0443V10.6066C4 8.50994 5.0687 7.45142 7.19593 7.45142H24.8041C26.9415 7.45142 28 8.50994 28 10.6066ZM18.4224 17.0799L13.5573 21.3955L11.6132 19.6448C11.1654 19.2275 10.6463 19.0239 10.1476 19.0239C9.69975 19.0239 9.2112 19.2275 8.76337 19.6244L5.63868 22.3521V22.9731C5.63868 23.9705 6.22901 24.5608 7.21628 24.5608H24.7939C25.7608 24.5608 26.3613 23.9705 26.3613 22.9934V21.4259L21.6794 17.0901C21.201 16.6422 20.6209 16.4285 20.0611 16.4285C19.4809 16.4285 18.9211 16.6321 18.4224 17.0799ZM9.11959 14.5659C9.11959 15.9502 10.2494 17.0799 11.6336 17.0799C13.0076 17.0799 14.1374 15.9502 14.1374 14.5659C14.1374 13.1919 13.0076 12.0519 11.6336 12.0519C10.2494 12.0519 9.11959 13.1919 9.11959 14.5659Z" fill="white"/>
</g>
<defs>
<clipPath id="clip0_344_1642">
<rect y="0.820312" width="32" height="32" rx="5" fill="white"/>
</clipPath>
</defs>
</svg>
