<svg width="32" height="33" viewBox="0 0 32 33" fill="none" xmlns="http://www.w3.org/2000/svg">
<g clip-path="url(#clip0_344_1796)">
<path d="M25.7212 8.99171V26.5247C25.7212 28.9518 24.5308 30.1538 22.1383 30.1538H9.86412C7.47169 30.1538 6.28125 28.9518 6.28125 26.5247V8.99171C6.28125 6.5646 7.47169 5.36261 9.86412 5.36261H10.0187C10.0078 5.46009 10.0028 5.56053 10.0028 5.66311V6.87665C10.0028 8.33293 11.0199 9.36156 12.4299 9.36156H19.5726C20.9825 9.36156 21.9997 8.33293 21.9997 6.87665V5.66311C21.9997 5.56053 21.9947 5.46009 21.9838 5.36261H22.1383C24.5308 5.36261 25.7212 6.5646 25.7212 8.99171ZM10.7425 22.4911C10.3264 22.4911 9.99126 22.8262 9.99126 23.2308C9.99126 23.6352 10.338 23.982 10.7425 23.982H16.0359C16.4404 23.982 16.7756 23.6352 16.7756 23.2308C16.7756 22.8262 16.452 22.4911 16.0359 22.4911H10.7425ZM10.7425 18.0298C10.3264 18.0298 9.99126 18.3534 9.99126 18.7694C9.99126 19.1855 10.3264 19.5208 10.7425 19.5208H21.26C21.6761 19.5208 22.0112 19.1855 22.0112 18.7694C22.0112 18.3534 21.6761 18.0298 21.26 18.0298H10.7425ZM10.7425 13.7882C10.338 13.7882 9.99126 14.1348 9.99126 14.5509C9.99126 14.9555 10.338 15.2906 10.7425 15.2906H21.26C21.6645 15.2906 22.0112 14.9555 22.0112 14.5509C22.0112 14.1348 21.6645 13.7882 21.26 13.7882H10.7425Z" fill="white"/>
<path d="M18.5144 4.5241H19.5778C20.248 4.5241 20.6526 4.95173 20.6526 5.66831V6.88186C20.6526 7.59844 20.248 8.02607 19.5778 8.02607H12.4351C11.7648 8.02607 11.3602 7.59844 11.3602 6.88186V5.66831C11.3602 4.95173 11.7648 4.5241 12.4351 4.5241H13.4984C13.5793 3.21808 14.6657 2.15479 16.0064 2.15479C17.3471 2.15479 18.4335 3.21808 18.5144 4.5241ZM15.0009 4.61656C15.0009 5.15977 15.4517 5.62208 16.0064 5.62208C16.5612 5.62208 17.0119 5.15977 17.0119 4.61656C17.0119 4.05024 16.5612 3.59949 16.0064 3.59949C15.4517 3.59949 15.0009 4.05024 15.0009 4.61656Z" fill="white"/>
</g>
<defs>
<clipPath id="clip0_344_1796">
<rect y="0.820312" width="32" height="32" rx="5" fill="white"/>
</clipPath>
</defs>
</svg>
