<svg width="32" height="32" viewBox="0 0 32 32" fill="none" xmlns="http://www.w3.org/2000/svg">
<g clip-path="url(#clip0_344_2118)">
<path d="M23.2959 4.68013H8.70089C8.74835 3.74031 9.34143 3.19995 10.3265 3.19995H21.6703C22.6554 3.19995 23.2484 3.74031 23.2959 4.68013Z" fill="white"/>
<path d="M25.663 7.98031C25.2911 7.92118 24.8966 7.89188 24.4819 7.89188H7.51836C7.10373 7.89188 6.70935 7.92117 6.33755 7.98027C6.46345 6.86931 7.21518 6.24979 8.44343 6.24979H23.5684C24.7967 6.24979 25.5389 6.86932 25.663 7.98031Z" fill="white"/>
<path d="M28.1121 13.339V25.2151C28.1121 27.5972 26.8979 28.7999 24.4812 28.7999H7.51764C5.10088 28.7999 3.88672 27.5972 3.88672 25.2151V13.339C3.88672 10.9568 5.10088 9.75417 7.51764 9.75417H24.4812C26.8979 9.75417 28.1121 10.9568 28.1121 13.339ZM18.3063 18.9359L13.4496 23.203L11.5301 21.48C11.0792 21.0753 10.5935 20.8555 10.0732 20.8555C9.58748 20.8555 9.15964 21.0753 8.6971 21.4684L5.9797 23.839V24.9606C5.9797 26.1171 6.60412 26.7184 7.71421 26.7184H24.2962C25.3831 26.7184 26.0191 26.1171 26.0191 24.9606V23.1567L21.544 18.9475C21.0815 18.5081 20.5034 18.2998 19.9252 18.2998C19.3238 18.2998 18.8035 18.485 18.3063 18.9359ZM10.0269 16.5537C10.0269 17.953 11.1601 19.1209 12.5824 19.1209C13.9816 19.1209 15.1148 17.953 15.1148 16.5537C15.1148 15.1661 13.9816 14.0212 12.5824 14.0212C11.1601 14.0212 10.0269 15.1661 10.0269 16.5537Z" fill="white"/>
</g>
<defs>
<clipPath id="clip0_344_2118">
<rect width="32" height="32" rx="5" fill="white"/>
</clipPath>
</defs>
</svg>
