<svg width="32" height="32" viewBox="0 0 32 32" fill="none" xmlns="http://www.w3.org/2000/svg">
<g clip-path="url(#clip0_344_2129)">
<path d="M21.0104 5.87513L21.2156 7.03976H14.0022C11.1213 7.03976 9.44586 8.72541 9.44586 11.637V24.8951C8.52305 24.5524 7.93854 23.7157 7.69891 22.3944L5.28793 8.64368C4.90994 6.52895 5.76809 5.30304 7.84193 4.93526L17.3327 3.25982C19.4065 2.90227 20.6324 3.77063 21.0104 5.87513Z" fill="white" fill-opacity="0.85"/>
<path d="M26.8029 11.637C26.8029 9.50183 25.7507 8.42915 23.6461 8.42915H14.0023C11.8978 8.42915 10.8353 9.50183 10.8353 11.637V25.5921C10.8353 27.7272 11.8978 28.7999 14.0023 28.7999H23.6461C25.7405 28.7999 26.8029 27.7272 26.8029 25.5921V11.637Z" fill="white" fill-opacity="0.85"/>
</g>
<defs>
<clipPath id="clip0_344_2129">
<rect width="32" height="32" rx="5" fill="white"/>
</clipPath>
</defs>
</svg>
