<svg width="32" height="33" viewBox="0 0 32 33" fill="none" xmlns="http://www.w3.org/2000/svg">
<g clip-path="url(#clip0_344_1752)">
<path d="M6.15277 25.6404H17.8188C20.0021 25.6404 21.3055 24.3804 21.3055 22.1971V11.4327C21.3055 9.26026 20.1106 8.00024 17.9274 8.00024H6.15277C4.06724 8.00024 2.66602 9.26026 2.66602 11.4327V22.1971C2.66602 24.3804 3.96948 25.6404 6.15277 25.6404ZM22.7828 20.0247L26.7366 23.4463C27.1059 23.7721 27.5404 23.9785 27.9314 23.9785C28.7787 23.9785 29.3327 23.3593 29.3327 22.4687V11.172C29.3327 10.2813 28.7787 9.66216 27.9314 9.66216C27.5404 9.66216 27.1059 9.86853 26.7366 10.1944L22.7828 13.6051V20.0247Z" fill="white"/>
</g>
<defs>
<clipPath id="clip0_344_1752">
<rect y="0.820312" width="32" height="32" rx="5" fill="white"/>
</clipPath>
</defs>
</svg>
