<svg width="32" height="33" viewBox="0 0 32 33" fill="none" xmlns="http://www.w3.org/2000/svg">
<g clip-path="url(#clip0_344_1741)">
<path d="M17.5571 26.4716H6.22097C4.044 26.4716 2.74431 25.2153 2.74431 23.0383V12.305C2.74431 12.0991 2.75694 11.9014 2.78547 11.7149L17.5571 26.4716ZM29.3338 12.0451V23.3091C29.3338 24.1972 28.7813 24.8146 27.9366 24.8146C27.5467 24.8146 27.1134 24.6087 26.7452 24.2839L22.8028 20.8721V14.4712L26.7452 11.0703C27.1134 10.7454 27.5467 10.5396 27.9366 10.5396C28.7813 10.5396 29.3338 11.157 29.3338 12.0451ZM21.3298 12.305V23.0383C21.3298 23.2552 21.317 23.4631 21.2879 23.6586L6.50436 8.88253H17.9615C20.1385 8.88253 21.3298 10.1389 21.3298 12.305Z" fill="white"/>
<path d="M22.1429 28.9645C22.4679 29.2894 23.0094 29.2894 23.3235 28.9645C23.6484 28.6396 23.6484 28.1089 23.3235 27.7839L1.9328 6.4041C1.60788 6.07917 1.07718 6.07917 0.741425 6.4041C0.427337 6.71818 0.427337 7.27056 0.741425 7.58464L22.1429 28.9645Z" fill="white"/>
</g>
<defs>
<clipPath id="clip0_344_1741">
<rect y="0.820312" width="32" height="32" rx="5" fill="white"/>
</clipPath>
</defs>
</svg>
