<svg width="32" height="33" viewBox="0 0 32 33" fill="none" xmlns="http://www.w3.org/2000/svg">
<g clip-path="url(#clip0_344_1394)">
<path d="M4.47986 18.0504H14.1855V27.7561C14.1855 28.7426 14.997 29.5699 15.9993 29.5699C17.0017 29.5699 17.8132 28.7426 17.8132 27.7561V18.0504H27.5188C28.5053 18.0504 29.3327 17.239 29.3327 16.2366C29.3327 15.2342 28.5053 14.4227 27.5188 14.4227H17.8132V4.7171C17.8132 3.73063 17.0017 2.90326 15.9993 2.90326C14.997 2.90326 14.1855 3.73063 14.1855 4.7171V14.4227H4.47986C3.49338 14.4227 2.66602 15.2342 2.66602 16.2366C2.66602 17.239 3.49338 18.0504 4.47986 18.0504Z" fill="white"/>
</g>
<defs>
<clipPath id="clip0_344_1394">
<rect y="0.236572" width="32" height="32" rx="5" fill="white"/>
</clipPath>
</defs>
</svg>
