<svg width="32" height="33" viewBox="0 0 32 33" fill="none" xmlns="http://www.w3.org/2000/svg">
<g clip-path="url(#clip0_344_1339)">
<path d="M29.3327 16.2366C29.3327 23.5177 23.2935 29.5699 15.9993 29.5699C8.71831 29.5699 2.66602 23.5177 2.66602 16.2366C2.66602 8.94248 8.70524 2.90326 15.9863 2.90326C23.2805 2.90326 29.3327 8.94248 29.3327 16.2366ZM14.8621 11.0078V15.0994H10.7706C10.0909 15.0994 9.62028 15.57 9.62028 16.2496C9.62028 16.9164 10.0909 17.3608 10.7706 17.3608H14.8621V21.4654C14.8621 22.1321 15.3197 22.6157 15.9863 22.6157C16.6661 22.6157 17.1367 22.1451 17.1367 21.4654V17.3608H21.2412C21.9079 17.3608 22.3916 16.9164 22.3916 16.2496C22.3916 15.57 21.9079 15.0994 21.2412 15.0994H17.1367V11.0078C17.1367 10.3281 16.6661 9.84445 15.9863 9.84445C15.3197 9.84445 14.8621 10.3281 14.8621 11.0078Z" fill="white"/>
</g>
<defs>
<clipPath id="clip0_344_1339">
<rect y="0.236572" width="32" height="32" rx="5" fill="white"/>
</clipPath>
</defs>
</svg>
