<svg width="32" height="33" viewBox="0 0 32 33" fill="none" xmlns="http://www.w3.org/2000/svg">
<g clip-path="url(#clip0_344_1207)">
<path d="M15.9993 29.5699C23.2935 29.5699 29.3327 23.5177 29.3327 16.2365C29.3327 8.94242 23.2805 2.9032 15.9863 2.9032C8.70524 2.9032 2.66602 8.94242 2.66602 16.2365C2.66602 23.5177 8.71831 29.5699 15.9993 29.5699ZM15.9993 27.3477C9.82943 27.3477 4.90132 22.4065 4.90132 16.2365C4.90132 10.0666 9.81636 5.12543 15.9863 5.12543C22.1563 5.12543 27.1106 10.0666 27.1106 16.2365C27.1106 22.4065 22.1694 27.3477 15.9993 27.3477Z" fill="white"/>
<path d="M8.7181 16.2494C8.7181 17.018 9.25144 17.5358 10.0514 17.5358H14.6632V22.1632C14.6632 22.9475 15.1966 23.4965 15.9652 23.4965C16.7495 23.4965 17.2985 22.9633 17.2985 22.1632V17.5358H21.926C22.7104 17.5358 23.2593 17.018 23.2593 16.2494C23.2593 15.4652 22.7104 14.9161 21.926 14.9161H17.2985V10.3043C17.2985 9.50433 16.7495 8.95532 15.9652 8.95532C15.1966 8.95532 14.6632 9.50433 14.6632 10.3043V14.9161H10.0514C9.25144 14.9161 8.7181 15.4652 8.7181 16.2494Z" fill="white"/>
</g>
<defs>
<clipPath id="clip0_344_1207">
<rect y="0.236572" width="32" height="32" rx="5" fill="white"/>
</clipPath>
</defs>
</svg>
