<svg width="32" height="33" viewBox="0 0 32 33" fill="none" xmlns="http://www.w3.org/2000/svg">
<g clip-path="url(#clip0_344_1438)">
<path d="M20.8687 7.70504C21.0718 7.85075 21.3394 7.87059 21.5618 7.75644C21.7842 7.64228 21.924 7.41332 21.924 7.16334V5.40514C24.0461 5.6907 25.6823 7.50882 25.6823 9.70911V10.6946C25.6823 11.0628 25.9808 11.3613 26.349 11.3613C26.7171 11.3613 27.0156 11.0628 27.0156 10.6946V9.70911C27.0156 6.77157 24.7842 4.35521 21.924 4.06253V2.23581C21.924 1.98083 21.7785 1.74818 21.5493 1.63649C21.3201 1.52481 21.0473 1.55366 20.8465 1.71081L17.5614 4.28169C17.3961 4.41107 17.3014 4.61074 17.3058 4.82061C17.3102 5.03048 17.4131 5.22603 17.5837 5.34839L20.8687 7.70504Z" fill="white"/>
<path d="M5.65365 21.1121C6.02184 21.1121 6.32031 21.4106 6.32031 21.7788V22.7643C6.32031 24.9645 7.9565 26.7826 10.0785 27.0682V25.31C10.0785 25.0601 10.2184 24.8311 10.4408 24.7169C10.6631 24.6028 10.9307 24.6226 11.1338 24.7683L14.4188 27.125C14.5894 27.2474 14.6924 27.4429 14.6967 27.6528C14.7011 27.8626 14.6064 28.0623 14.4411 28.1917L11.1561 30.7626C10.9553 30.9197 10.6824 30.9486 10.4532 30.8369C10.224 30.7252 10.0785 30.4926 10.0785 30.2376V28.4108C7.21832 28.1181 4.98698 25.7018 4.98698 22.7643V21.7788C4.98698 21.4106 5.28546 21.1121 5.65365 21.1121Z" fill="white"/>
<path fill-rule="evenodd" clip-rule="evenodd" d="M12.566 5.35479C12.566 4.80251 12.1182 4.35479 11.566 4.35479C11.0137 4.35479 10.566 4.80251 10.566 5.35479V10.9248H5.16016C4.60787 10.9248 4.16016 11.3726 4.16016 11.9248C4.16016 12.4771 4.60787 12.9248 5.16016 12.9248H10.566V20.8765C10.566 21.4288 11.0137 21.8765 11.566 21.8765H19.5176V26.7896C19.5176 27.3419 19.9654 27.7896 20.5176 27.7896C21.0699 27.7896 21.5176 27.3419 21.5176 26.7896V21.8765H26.8413C27.3936 21.8765 27.8413 21.4288 27.8413 20.8765C27.8413 20.3242 27.3936 19.8765 26.8413 19.8765H21.5176V11.9248C21.5176 11.3726 21.0699 10.9248 20.5176 10.9248H12.566V5.35479ZM12.566 19.8765V12.9248H19.5176V19.8765H12.566Z" fill="white"/>
</g>
<defs>
<clipPath id="clip0_344_1438">
<rect y="0.236694" width="32" height="32" rx="5" fill="white"/>
</clipPath>
</defs>
</svg>
