<svg width="32" height="33" viewBox="0 0 32 33" fill="none" xmlns="http://www.w3.org/2000/svg">
<g clip-path="url(#clip0_344_1240)">
<path fill-rule="evenodd" clip-rule="evenodd" d="M21.7692 24.189H23.3801C25.564 24.189 26.6666 23.0652 26.6666 20.8601V6.37864C26.6666 4.15235 25.564 3.0498 23.3801 3.0498H13.383C11.1885 3.0498 10.0966 4.15235 10.0966 6.37864L10.0966 8.27999H8.48564C6.29114 8.27999 5.19922 9.38254 5.19922 11.6088L5.19922 26.0904C5.19922 28.2955 6.30181 29.4191 8.48564 29.4191H18.4828C20.6667 29.4191 21.7692 28.2955 21.7692 26.0904V24.189ZM21.7692 22.4822H23.2847C24.3873 22.4822 24.9597 21.8779 24.9597 20.8283V6.39984C24.9597 5.33971 24.3873 4.75663 23.2847 4.75663L13.4679 4.75663C12.3653 4.75663 11.8034 5.3397 11.8034 6.39984V8.27999L18.4828 8.27999C20.6667 8.27999 21.7692 9.38254 21.7692 11.6088L21.7692 22.4822ZM8.5705 9.98682C7.46791 9.98682 6.90603 10.5699 6.90603 11.63L6.90603 26.0585C6.90603 27.1081 7.4679 27.7123 8.57049 27.7123L18.3874 27.7123C19.4899 27.7123 20.0624 27.1081 20.0624 26.0585V11.63C20.0624 10.5699 19.4899 9.98682 18.3874 9.98682H8.5705Z" fill="white"/>
</g>
<defs>
<clipPath id="clip0_344_1240">
<rect y="0.236572" width="32" height="32" rx="5" fill="white"/>
</clipPath>
</defs>
</svg>
