<svg width="32" height="33" viewBox="0 0 32 33" fill="none" xmlns="http://www.w3.org/2000/svg">
<g clip-path="url(#clip0_344_1427)">
<path d="M29.3327 26.5332C29.3327 27.1521 28.8263 27.6584 28.2075 27.6584H7.9265L10.1998 25.3939H28.2075C28.8263 25.3939 29.3327 25.9143 29.3327 26.5332Z" fill="white"/>
<path d="M6.50415 26.3638L21.8636 11.0325L19.3881 8.55699L4.04271 23.8883L2.69242 27.0249C2.56583 27.3624 2.91747 27.7563 3.25504 27.6157L6.50415 26.3638ZM23.0872 9.82287L24.5078 8.4304C25.2393 7.71306 25.2815 6.93946 24.6204 6.29246L24.1563 5.81423C23.5092 5.18129 22.7357 5.23754 22.0323 5.94082L20.5977 7.34736L23.0872 9.82287Z" fill="white"/>
</g>
<defs>
<clipPath id="clip0_344_1427">
<rect y="0.236572" width="32" height="32" rx="5" fill="white"/>
</clipPath>
</defs>
</svg>
