<svg width="32" height="33" viewBox="0 0 32 33" fill="none" xmlns="http://www.w3.org/2000/svg">
<g clip-path="url(#clip0_344_1416)">
<path d="M26.9168 8.41685L28.6494 6.692C29.5157 5.82151 29.5639 4.87042 28.7617 4.08054L28.1361 3.45185C27.366 2.66197 26.4035 2.74257 25.5372 3.58081L23.8046 5.30567L26.9168 8.41685ZM26.6441 27.0195C27.1414 27.5192 27.9596 27.5192 28.4409 27.0195C28.9382 26.5197 28.9542 25.6976 28.4409 25.1979L7.42505 4.08054C6.92773 3.58081 6.09351 3.56469 5.59619 4.08054C5.11491 4.56414 5.11491 5.40239 5.59619 5.88599L26.6441 27.0195ZM20.7244 14.607L25.3767 9.93214L22.2966 6.82096L17.6442 11.5119L20.7244 14.607ZM7.34484 28.035L16.1041 19.2335L13.0239 16.1384L4.26466 24.94L2.70852 28.7121C2.51601 29.1957 3.01333 29.7115 3.47857 29.5342L7.34484 28.035Z" fill="white"/>
</g>
<defs>
<clipPath id="clip0_344_1416">
<rect y="0.236572" width="32" height="32" rx="5" fill="white"/>
</clipPath>
</defs>
</svg>
