<svg width="32" height="33" viewBox="0 0 32 33" fill="none" xmlns="http://www.w3.org/2000/svg">
<g clip-path="url(#clip0_344_1284)">
<path d="M16.0061 25.4337C24.673 25.4337 30.6673 18.4222 30.6673 16.2366C30.6673 14.0401 24.6622 7.03949 16.0061 7.03949C7.44735 7.03949 1.33398 14.0401 1.33398 16.2366C1.33398 18.4222 7.44735 25.4337 16.0061 25.4337ZM16.0061 22.2634C12.6302 22.2634 9.9468 19.526 9.9468 16.2366C9.9468 12.8607 12.6302 10.2098 16.0061 10.2098C19.3495 10.2098 22.0545 12.8607 22.0545 16.2366C22.0545 19.526 19.3495 22.2634 16.0061 22.2634ZM16.0061 18.4114C17.2071 18.4114 18.2025 17.4268 18.2025 16.2366C18.2025 15.0356 17.2071 14.0509 16.0061 14.0509C14.7942 14.0509 13.7988 15.0356 13.7988 16.2366C13.7988 17.4268 14.7942 18.4114 16.0061 18.4114Z" fill="white"/>
</g>
<defs>
<clipPath id="clip0_344_1284">
<rect y="0.236572" width="32" height="32" rx="5" fill="white"/>
</clipPath>
</defs>
</svg>
