<svg width="32" height="33" viewBox="0 0 32 33" fill="none" xmlns="http://www.w3.org/2000/svg">
<g clip-path="url(#clip0_344_1350)">
<path d="M28.0037 3.76807C26.8505 2.61495 24.981 2.61495 23.8278 3.76807L22.2742 5.32171C22.1325 5.4634 22.0529 5.65559 22.0529 5.85598C22.0529 6.05637 22.1325 6.24856 22.2742 6.39026L25.3815 9.49753C25.5232 9.63923 25.7154 9.71883 25.9158 9.71883C26.1161 9.71883 26.3083 9.63923 26.45 9.49753L28.0037 7.94389C29.1568 6.79077 29.1568 4.92119 28.0037 3.76807Z" fill="white"/>
<path d="M21.0528 7.61129C20.9111 7.46959 20.7189 7.38998 20.5185 7.38998C20.3181 7.38998 20.1259 7.46959 19.9842 7.61129L12.7339 14.8616C12.6284 14.9671 12.5565 15.1014 12.5273 15.2477L11.7505 19.1318C11.7009 19.3795 11.7785 19.6356 11.9571 19.8142C12.1357 19.9929 12.3918 20.0704 12.6396 20.0209L16.5236 19.244C16.6699 19.2148 16.8043 19.1429 16.9097 19.0374L24.16 11.7871C24.3017 11.6454 24.3813 11.4532 24.3813 11.2528C24.3813 11.0524 24.3017 10.8603 24.16 10.7186L21.0528 7.61129Z" fill="white"/>
<path d="M3.13086 11.8138C3.13086 9.51869 4.99142 7.65813 7.28654 7.65813H13.3045C13.9305 7.65813 14.4379 8.16555 14.4379 8.79149C14.4379 9.41744 13.9305 9.92486 13.3045 9.92486H7.28654C6.2433 9.92486 5.39759 10.7706 5.39759 11.8138V25.4142C5.39759 26.4575 6.24331 27.3032 7.28654 27.3032H20.887C21.9302 27.3032 22.7759 26.4575 22.7759 25.4142V18.5749C22.7759 17.949 23.2833 17.4415 23.9093 17.4415C24.5352 17.4415 25.0426 17.949 25.0426 18.5749V25.4142C25.0426 27.7093 23.1821 29.5699 20.887 29.5699H7.28654C4.99142 29.5699 3.13086 27.7093 3.13086 25.4142V11.8138Z" fill="white"/>
</g>
<defs>
<clipPath id="clip0_344_1350">
<rect y="0.236572" width="32" height="32" rx="5" fill="white"/>
</clipPath>
</defs>
</svg>
