<svg width="32" height="33" viewBox="0 0 32 33" fill="none" xmlns="http://www.w3.org/2000/svg">
<g clip-path="url(#clip0_344_1273)">
<path d="M10.5076 13.9401C10.1452 14.7088 9.9468 15.5731 9.9468 16.4909C9.9468 19.7803 12.6302 22.5178 16.0061 22.5178C16.9096 22.5178 17.7664 22.3179 18.5328 21.9558L21.3456 24.7652C19.7289 25.3413 17.9336 25.6881 16.0061 25.6881C7.44735 25.6881 1.33398 18.6766 1.33398 16.4909C1.33398 15.225 3.36498 12.3629 6.73258 10.1696L10.5076 13.9401ZM30.6673 16.4909C30.6673 17.7508 28.6758 20.6138 25.3208 22.8091L21.4981 18.9888C21.8573 18.2271 22.0545 17.3792 22.0545 16.4909C22.0545 13.1151 19.3495 10.4642 16.0061 10.4642C15.1082 10.4642 14.2594 10.6517 13.4998 10.9952L10.7159 8.21295C12.3256 7.63906 14.1056 7.29388 16.0061 7.29388C24.6622 7.29388 30.6673 14.2945 30.6673 16.4909ZM16.5283 19.9536C16.3589 19.9835 16.1842 19.9967 16.0061 19.9967C14.0693 19.9967 12.5004 18.4278 12.5004 16.4909C12.5004 16.3144 12.5134 16.1409 12.5428 15.9729L16.5283 19.9536ZM19.501 16.4909C19.501 16.6498 19.4905 16.8063 19.4666 16.9583L15.5366 13.0309C15.6894 13.0067 15.8465 12.9961 16.0061 12.9961C17.9429 12.9961 19.501 14.5542 19.501 16.4909Z" fill="white"/>
<path d="M24.2433 25.8583C24.568 26.1938 25.0764 26.2154 25.4227 25.8583C25.7689 25.5013 25.7473 25.0143 25.4227 24.6789L7.32064 6.5985C7.00685 6.27389 6.46585 6.27389 6.13043 6.5985C5.81664 6.91228 5.81664 7.46411 6.13043 7.77789L24.2433 25.8583Z" fill="white"/>
</g>
<defs>
<clipPath id="clip0_344_1273">
<rect y="0.236572" width="32" height="32" rx="5" fill="white"/>
</clipPath>
</defs>
</svg>
