<svg width="32" height="33" viewBox="0 0 32 33" fill="none" xmlns="http://www.w3.org/2000/svg">
<g clip-path="url(#clip0_344_1383)">
<path d="M8.63952 6.24895V7.23946C8.63952 7.41555 8.65052 7.59164 8.68354 7.74572H8.43041C7.39588 7.74572 6.8676 8.41706 6.8676 9.45159V26.0921C6.8676 27.1927 7.46192 27.798 8.6065 27.798H20.1074C21.252 27.798 21.8353 27.1927 21.8353 26.0921V18.4432L23.6072 16.6713V26.1141C23.6072 28.4254 22.4736 29.5699 20.1954 29.5699H8.50745C6.24029 29.5699 5.0957 28.4254 5.0957 26.1141V9.42958C5.0957 7.17343 6.19626 5.9738 8.38639 5.9738H8.65052C8.63952 6.06185 8.63952 6.1609 8.63952 6.24895ZM23.6055 9.37573L21.8353 11.1442V9.45159C21.8353 8.41706 21.318 7.74572 20.2835 7.74572H20.0193C20.0524 7.59164 20.0634 7.41555 20.0634 7.23946V6.24895C20.0634 6.1609 20.0634 6.06185 20.0524 5.9738H20.3165C22.4996 5.9738 23.5892 7.15384 23.6055 9.37573ZM16.7396 5.15938H17.7522C18.4016 5.15938 18.7867 5.5666 18.7867 6.24895V7.40454C18.7867 8.08689 18.4016 8.4941 17.7522 8.4941H10.9617C10.3124 8.4941 9.92718 8.08689 9.92718 7.40454V6.24895C9.92718 5.5666 10.3124 5.15938 10.9617 5.15938H11.9632C12.0402 3.91574 13.0748 2.90323 14.3515 2.90323C15.6281 2.90323 16.6626 3.91574 16.7396 5.15938ZM13.3939 5.24743C13.3939 5.7647 13.8232 6.20492 14.3515 6.20492C14.8907 6.20492 15.3089 5.7647 15.3089 5.24743C15.3089 4.70816 14.8907 4.27893 14.3515 4.27893C13.8232 4.27893 13.3939 4.70816 13.3939 5.24743Z" fill="white"/>
<path d="M11.7251 21.9679C11.7251 22.342 11.4059 22.6502 11.0317 22.6502H9.50193C9.12774 22.6502 8.80857 22.342 8.80857 21.9679C8.80857 21.5937 9.11673 21.2855 9.50193 21.2855H11.0317C11.4169 21.2855 11.7251 21.5937 11.7251 21.9679ZM14.4339 18.534H9.50193C9.11673 18.534 8.80857 18.2259 8.80857 17.8408C8.80857 17.4665 9.11673 17.1694 9.50193 17.1694H15.8L14.4339 18.534ZM19.6007 13.3724L18.3448 14.6271H9.50193C9.12774 14.6271 8.80857 14.319 8.80857 13.9447C8.80857 13.5705 9.12774 13.2513 9.50193 13.2513H19.22C19.3605 13.2513 19.4917 13.2964 19.6007 13.3724Z" fill="white"/>
<path d="M25.8464 12.3215L26.6718 11.4851C27.068 11.0889 27.068 10.5496 26.6828 10.1644L26.4186 9.90026C26.0664 9.54808 25.5162 9.5921 25.142 9.95528L24.3166 10.7807L25.8464 12.3215ZM13.509 23.4042L15.7542 22.4027L25.032 13.1469L23.4801 11.6171L14.2244 20.8729L13.1679 23.041C13.0688 23.2391 13.2999 23.4923 13.509 23.4042Z" fill="white"/>
</g>
<defs>
<clipPath id="clip0_344_1383">
<rect y="0.236572" width="32" height="32" rx="5" fill="white"/>
</clipPath>
</defs>
</svg>
