<svg width="32" height="33" viewBox="0 0 32 33" fill="none" xmlns="http://www.w3.org/2000/svg">
<g clip-path="url(#clip0_344_1328)">
<path d="M10.8016 25.4658H28.2606C28.8561 25.4658 29.3327 25.0072 29.3327 24.4173C29.3327 23.8144 28.8561 23.3557 28.2606 23.3557H10.8016C10.206 23.3557 9.72949 23.8144 9.72949 24.4173C9.72949 25.0072 10.206 25.4658 10.8016 25.4658Z" fill="white"/>
<path d="M4.98239 27.2785C6.55753 27.2785 7.48408 26.5839 7.48408 25.4829C7.48408 24.7621 6.98109 24.2641 6.06778 24.1855V24.1461C6.72961 24.0281 7.25907 23.5825 7.25907 22.8224C7.25907 21.8263 6.27957 21.2759 4.96915 21.2759C3.93671 21.2759 2.81162 21.7608 2.81162 22.6258C2.81162 22.9928 3.07635 23.2548 3.48667 23.2548C3.77788 23.2548 3.91024 23.137 4.09555 22.9404C4.39999 22.6127 4.63824 22.5079 4.96915 22.5079C5.37948 22.5079 5.68393 22.7044 5.68393 23.0976C5.68393 23.4645 5.36624 23.6481 4.82356 23.6481H4.67796C4.30733 23.6481 4.06908 23.8316 4.06908 24.2116C4.06908 24.5655 4.2941 24.7752 4.67796 24.7752H4.85002C5.44567 24.7752 5.76335 24.9718 5.76335 25.3781C5.76335 25.732 5.43243 25.9941 4.98239 25.9941C4.51911 25.9941 4.18821 25.732 3.93671 25.4829C3.77788 25.3388 3.64551 25.234 3.39402 25.234C2.97045 25.234 2.66602 25.4829 2.66602 25.8892C2.66602 26.7936 3.91024 27.2785 4.98239 27.2785Z" fill="white"/>
<path d="M10.8016 17.5509H28.2606C28.8561 17.5509 29.3327 17.0791 29.3327 16.4893C29.3327 15.8995 28.8561 15.4408 28.2606 15.4408H10.8016C10.206 15.4408 9.72949 15.8995 9.72949 16.4893C9.72949 17.0791 10.206 17.5509 10.8016 17.5509Z" fill="white"/>
<path d="M3.42193 19.1085H6.8237C7.18108 19.1085 7.45905 18.8596 7.45905 18.4925C7.45905 18.0994 7.19432 17.8503 6.8237 17.8503H4.93089V17.8111L6.01627 16.946C6.91636 16.2121 7.27373 15.7927 7.27373 15.0194C7.27373 13.9709 6.3869 13.2632 4.95736 13.2632C3.68666 13.2632 2.77335 13.9185 2.77335 14.7573C2.77335 15.1767 3.05131 15.3995 3.50135 15.3995C3.80579 15.3995 4.00433 15.3077 4.18965 15.0063C4.37496 14.6917 4.61322 14.5214 4.98383 14.5214C5.36769 14.5214 5.64566 14.7704 5.64566 15.1373C5.64566 15.4519 5.48682 15.7271 4.79853 16.2645L3.06455 17.68C2.79982 17.8897 2.69393 18.1256 2.69393 18.4139C2.69393 18.8202 2.98513 19.1085 3.42193 19.1085Z" fill="white"/>
<path d="M10.8016 9.62192H28.2606C28.8561 9.62192 29.3327 9.1632 29.3327 8.57343C29.3327 7.97055 28.8561 7.51183 28.2606 7.51183H10.8016C10.206 7.51183 9.72949 7.97055 9.72949 8.57343C9.72949 9.1632 10.206 9.62192 10.8016 9.62192Z" fill="white"/>
<path d="M5.55569 11.2103C6.05867 11.2103 6.41606 10.922 6.41606 10.3322V6.09891C6.41606 5.54845 6.01896 5.19458 5.43656 5.19458C4.97328 5.19458 4.68208 5.35185 4.35117 5.57466L3.41138 6.21686C3.14665 6.40034 3.00105 6.57073 3.00105 6.84596C3.00105 7.18672 3.26578 7.42263 3.57022 7.42263C3.74229 7.42263 3.82171 7.39642 4.04673 7.23914L4.65561 6.83285H4.68208V10.3322C4.68208 10.922 5.02623 11.2103 5.55569 11.2103Z" fill="white"/>
</g>
<defs>
<clipPath id="clip0_344_1328">
<rect y="0.236572" width="32" height="32" rx="5" fill="white"/>
</clipPath>
</defs>
</svg>
