<svg width="32" height="33" viewBox="0 0 32 33" fill="none" xmlns="http://www.w3.org/2000/svg">
<g clip-path="url(#clip0_344_1306)">
<path d="M8.98211 29.5699H22.0943C24.2007 29.5699 25.3185 28.4235 25.3185 26.1593V16.2858C25.3185 14.0216 24.2007 12.8895 22.0943 12.8895H8.98211C6.87557 12.8895 5.75781 14.0216 5.75781 16.2858V26.1593C5.75781 28.4235 6.87557 29.5699 8.98211 29.5699ZM8.2656 13.993H10.5441V10.5986C10.5441 6.98736 12.8513 5.06712 15.531 5.06712C18.2108 5.06712 20.5466 6.98736 20.5466 10.5986V13.993H22.8107V10.9138C22.8107 5.52569 19.2855 2.90326 15.531 2.90326C11.7908 2.90326 8.2656 5.52569 8.2656 10.9138V13.993Z" fill="white"/>
</g>
<defs>
<clipPath id="clip0_344_1306">
<rect y="0.236572" width="32" height="32" rx="5" fill="white"/>
</clipPath>
</defs>
</svg>
