<svg width="32" height="33" viewBox="0 0 32 33" fill="none" xmlns="http://www.w3.org/2000/svg">
<g clip-path="url(#clip0_344_1405)">
<path d="M3.92814 12.2413H28.0368C28.7436 12.2413 29.3327 11.6564 29.3327 10.8944C29.3327 10.15 28.7436 9.56519 28.0368 9.56519H3.92814C3.22135 9.56519 2.66602 10.15 2.66602 10.8944C2.66602 11.6564 3.22135 12.2413 3.92814 12.2413Z" fill="white"/>
<path d="M3.92814 22.9079H28.0368C28.7436 22.9079 29.3327 22.3231 29.3327 21.561C29.3327 20.8167 28.7436 20.2319 28.0368 20.2319H3.92814C3.22135 20.2319 2.66602 20.8167 2.66602 21.561C2.66602 22.3231 3.22135 22.9079 3.92814 22.9079Z" fill="white"/>
</g>
<defs>
<clipPath id="clip0_344_1405">
<rect y="0.236572" width="32" height="32" rx="5" fill="white"/>
</clipPath>
</defs>
</svg>
