<svg width="32" height="33" viewBox="0 0 32 33" fill="none" xmlns="http://www.w3.org/2000/svg">
<g clip-path="url(#clip0_344_1449)">
<path d="M26.7661 17.3325C27.3801 17.3325 27.8953 17.5197 28.256 17.886C28.6162 18.252 28.7992 18.7745 28.7992 19.3984V24.8114C28.7992 25.4352 28.6162 25.9578 28.256 26.3237C27.8953 26.69 27.3801 26.8772 26.7661 26.8772H21.291C20.6807 26.8772 20.166 26.6896 19.8045 26.3237C19.4434 25.958 19.2579 25.4359 19.2579 24.8114V19.3984C19.2579 18.7738 19.4434 18.2517 19.8045 17.886C20.166 17.5202 20.6807 17.3325 21.291 17.3325H26.7661ZM27.2214 19.4208C27.2213 19.2401 27.1663 19.1179 27.0886 19.0414C27.0103 18.9647 26.8861 18.9104 26.704 18.9103H21.36C21.1775 18.9104 21.0507 18.9652 20.9703 19.0431C20.8907 19.1202 20.8359 19.2417 20.8358 19.4208V24.7889C20.8358 24.9681 20.8907 25.0895 20.9703 25.1666C21.0507 25.2445 21.1775 25.2993 21.36 25.2994H26.704C26.8862 25.2994 27.0103 25.245 27.0886 25.1683C27.1663 25.0918 27.2213 24.9697 27.2214 24.7889V19.4208ZM28.5957 24.9131C28.5963 24.8977 28.5989 24.8822 28.5992 24.8665V24.8424C28.5988 24.8662 28.5966 24.8897 28.5957 24.9131ZM19.4579 19.3432V19.3863C19.4579 19.3185 19.4619 19.2525 19.4666 19.188C19.4627 19.2387 19.4589 19.2904 19.4579 19.3432ZM26.7661 5.59595C27.3801 5.59595 27.8953 5.78318 28.256 6.14949C28.6158 6.51538 28.7992 7.0366 28.7992 7.6601V13.0748C28.7991 13.6983 28.6159 14.2197 28.256 14.5854C27.8953 14.9518 27.3801 15.139 26.7661 15.139H21.291C20.6807 15.139 20.166 14.9514 19.8045 14.5854C19.4436 14.2199 19.258 13.6991 19.2579 13.0748V7.6601C19.2579 7.03552 19.4434 6.51342 19.8045 6.14777C20.166 5.78208 20.6809 5.59595 21.291 5.59595H26.7661ZM27.2214 7.68424C27.2214 7.50331 27.1664 7.38144 27.0886 7.30487C27.0104 7.22788 26.8866 7.17383 26.704 7.17381H21.36C21.1777 7.17392 21.0507 7.22709 20.9703 7.30487C20.8906 7.38203 20.8358 7.50489 20.8358 7.68424V13.0507C20.8358 13.2298 20.8908 13.3512 20.9703 13.4283C21.0507 13.5062 21.1775 13.561 21.36 13.5611H26.704C26.8863 13.5611 27.0103 13.5069 27.0886 13.4301C27.1664 13.3535 27.2214 13.2317 27.2214 13.0507V7.68424ZM28.5957 13.1749C28.5963 13.1595 28.5989 13.1438 28.5992 13.1283V13.1042C28.5989 13.128 28.5966 13.1515 28.5957 13.1749ZM19.4579 7.60492V7.64803C19.4579 7.60066 19.4608 7.55414 19.4631 7.50835C19.4614 7.54019 19.4586 7.57231 19.4579 7.60492ZM28.5285 25.4115C28.3247 26.2084 27.6978 26.665 26.7678 26.6651H21.291C20.1559 26.6649 19.4621 25.975 19.4579 24.8114L19.4648 25.0252C19.545 26.0661 20.2231 26.6772 21.291 26.6772H26.7661L26.8196 26.6755C27.7244 26.6582 28.3315 26.1998 28.5285 25.4115ZM27.4214 24.7889C27.4214 24.7851 27.4231 24.7807 27.4231 24.7769V19.4104C27.4231 18.9659 27.15 18.7002 26.7058 18.7H21.3617C20.9565 18.7 20.6905 18.9208 20.6461 19.2966C20.6945 18.9278 20.9591 18.7122 21.36 18.712H26.7247C27.15 18.7201 27.413 18.975 27.4214 19.4001V24.7889ZM28.5285 13.6732C28.3248 14.4705 27.6979 14.9268 26.7678 14.9269H21.291C20.1563 14.9267 19.4626 14.2378 19.4579 13.0748L19.4648 13.2887C19.5455 14.3288 20.2236 14.9389 21.291 14.939H26.8196C27.7246 14.9216 28.3316 14.4618 28.5285 13.6732ZM27.4214 13.0507C27.4214 13.0473 27.4231 13.0438 27.4231 13.0403V7.67217C27.4231 7.22768 27.15 6.96194 26.7058 6.9617H21.3617C20.9566 6.96173 20.6907 7.18286 20.6461 7.55836C20.6947 7.18984 20.9592 6.97397 21.36 6.97377H26.7247C27.1501 6.98182 27.4132 7.23822 27.4214 7.66355V13.0507Z" fill="white"/>
<path d="M9.0555 6.29542L3.50687 11.9551C3.32008 12.1529 3.19922 12.4387 3.19922 12.6804C3.19922 13.2629 3.59477 13.6585 4.16611 13.6585C4.45178 13.6585 4.67153 13.5596 4.85831 13.3728L7.14369 11.01L8.91267 8.96592L8.80279 11.5045V25.6264C8.80279 26.2088 9.20933 26.6154 9.79166 26.6154C10.363 26.6154 10.7695 26.2088 10.7695 25.6264V11.5045L10.6707 8.96592L12.4286 11.01L14.725 13.3728C14.9118 13.5596 15.1205 13.6585 15.4062 13.6585C15.9776 13.6585 16.3731 13.2629 16.3731 12.6804C16.3731 12.4387 16.2632 12.1529 16.0655 11.9551L10.5278 6.29542C10.1213 5.86682 9.47303 5.84484 9.0555 6.29542Z" fill="white"/>
</g>
<defs>
<clipPath id="clip0_344_1449">
<rect y="0.236694" width="32" height="32" rx="5" fill="white"/>
</clipPath>
</defs>
</svg>
