<svg width="32" height="33" viewBox="0 0 32 33" fill="none" xmlns="http://www.w3.org/2000/svg">
<g clip-path="url(#clip0_344_1317)">
<path d="M24.1624 2.92672C23.4519 3.07821 23.2534 3.22448 21.9526 4.50958L20.7563 5.69542L26.5393 11.4627L27.6676 10.3343C28.8796 9.12233 29.0938 8.84024 29.2871 8.20814C29.3811 7.9156 29.3915 7.75888 29.3759 7.26783C29.3341 6.19169 29.1565 5.8887 27.6937 4.43644C26.5392 3.28717 26.3251 3.13568 25.5937 2.94761C25.1288 2.82746 24.6482 2.82224 24.1624 2.92672Z" fill="white"/>
<path d="M11.6951 14.7235L4.28231 22.1363L3.4517 25.4483C2.9711 27.3812 2.62109 28.8648 2.62109 29.0111C2.62109 29.3715 2.8196 29.57 3.18006 29.57C3.32633 29.57 4.80993 29.22 6.74279 28.7394L10.0548 27.9088L17.4676 20.496C21.5423 16.4213 24.8751 13.0676 24.8751 13.0362C24.8751 12.9683 19.2228 7.31598 19.1549 7.31598C19.1236 7.31598 15.7698 10.6489 11.6951 14.7235Z" fill="white"/>
</g>
<defs>
<clipPath id="clip0_344_1317">
<rect y="0.236694" width="32" height="32" rx="5" fill="white"/>
</clipPath>
</defs>
</svg>
