<svg width="32" height="33" viewBox="0 0 32 33" fill="none" xmlns="http://www.w3.org/2000/svg">
<g clip-path="url(#clip0_344_1295)">
<path d="M24.7516 6.22916H7.38327C7.57962 4.31249 8.81466 3.45088 10.7231 3.45088H21.4207C23.4376 3.45088 24.5731 4.31249 24.7516 6.22916Z" fill="white"/>
<path d="M29.3327 11.3314V20.996C29.3327 23.3112 28.1098 24.4748 25.8064 24.4748H25.4383V17.8853C25.4383 16.3181 24.2629 15.1426 22.6957 15.1426H9.30299C7.74763 15.1426 6.56034 16.3181 6.56034 17.8853V24.4748H6.19228C3.88893 24.4748 2.66602 23.3112 2.66602 20.996V11.3314C2.66602 9.01618 4.00766 7.84076 6.19228 7.84076H25.8064C28.1098 7.84076 29.3327 9.01618 29.3327 11.3314ZM21.7815 11.7707C21.7815 12.6136 22.4701 13.2904 23.3131 13.2904C24.1323 13.2904 24.8328 12.6018 24.8328 11.7707C24.8328 10.9396 24.1323 10.2391 23.3131 10.2391C22.4701 10.2391 21.7815 10.9396 21.7815 11.7707Z" fill="white"/>
<path d="M8.18685 27.4194C8.18685 28.381 8.82799 29.0223 9.77782 29.0223H22.2206C23.1824 29.0223 23.8235 28.381 23.8235 27.4194V17.8854C23.8235 17.2086 23.3724 16.7693 22.6956 16.7693H9.3029C8.63802 16.7693 8.18685 17.2086 8.18685 17.8854V27.4194ZM12.2355 21.5304C11.7844 21.5304 11.4638 21.1861 11.4638 20.7468C11.4638 20.3312 11.7844 20.0106 12.2355 20.0106H19.7986C20.226 20.0106 20.5466 20.3312 20.5466 20.7468C20.5466 21.1861 20.226 21.5304 19.7986 21.5304H12.2355ZM12.2355 25.7809C11.7844 25.7809 11.4638 25.4485 11.4638 25.033C11.4638 24.5936 11.7844 24.2611 12.2355 24.2611H19.7986C20.226 24.2611 20.5466 24.5936 20.5466 25.033C20.5466 25.4485 20.226 25.7809 19.7986 25.7809H12.2355Z" fill="white"/>
</g>
<defs>
<clipPath id="clip0_344_1295">
<rect y="0.236572" width="32" height="32" rx="5" fill="white"/>
</clipPath>
</defs>
</svg>
