<svg width="32" height="33" viewBox="0 0 32 33" fill="none" xmlns="http://www.w3.org/2000/svg">
<g clip-path="url(#clip0_344_1460)">
<path d="M15.9992 29.0366C23.0016 29.0366 28.7992 23.2265 28.7992 16.2366C28.7992 9.23423 22.9891 3.43657 15.9867 3.43657C8.99687 3.43657 3.19922 9.23423 3.19922 16.2366C3.19922 23.2265 9.00943 29.0366 15.9992 29.0366ZM15.9992 26.9033C10.0761 26.9033 5.34511 22.1598 5.34511 16.2366C5.34511 10.3135 10.0636 5.56991 15.9867 5.56991C21.9099 5.56991 26.666 10.3135 26.666 16.2366C26.666 22.1598 21.9224 26.9033 15.9992 26.9033Z" fill="white"/>
<path d="M11.0699 17.3019H20.921C21.6237 17.3019 22.1005 16.9255 22.1005 16.2604C22.1005 15.5828 21.6488 15.1937 20.921 15.1937H11.0699C10.3421 15.1937 9.87779 15.5828 9.87779 16.2604C9.87779 16.9255 10.3672 17.3019 11.0699 17.3019Z" fill="white"/>
</g>
<defs>
<clipPath id="clip0_344_1460">
<rect y="0.236572" width="32" height="32" rx="5" fill="white"/>
</clipPath>
</defs>
</svg>
