<svg width="32" height="33" viewBox="0 0 32 33" fill="none" xmlns="http://www.w3.org/2000/svg">
<g clip-path="url(#clip0_344_1251)">
<path d="M27.4505 13.7391C27.8651 13.7391 28.2189 13.3976 28.2189 12.983V11.1536C28.2189 7.66575 25.8895 5.31204 22.3895 5.31204H22.1334V3.77541C22.1334 2.87295 21.4505 2.66563 20.7675 3.17784L17.6943 5.43399C17.1821 5.81204 17.1699 6.25108 17.6943 6.62914L20.7675 8.8731C21.4505 9.37311 22.1334 9.16579 22.1334 8.28772V6.7267H22.3773C25.0237 6.7267 26.6944 8.55602 26.6944 11.1536V12.983C26.6944 13.3976 27.0359 13.7391 27.4505 13.7391Z" fill="white"/>
<path d="M6.9135 29.5699H18.9991C21.0845 29.5699 22.1333 28.5821 22.1333 26.4479V14.3867C22.1333 12.2524 21.0845 11.2524 18.9991 11.2524H6.9135C4.8281 11.2524 3.7793 12.2524 3.7793 14.3867V26.4479C3.7793 28.5821 4.8281 29.5699 6.9135 29.5699Z" fill="white"/>
</g>
<defs>
<clipPath id="clip0_344_1251">
<rect y="0.236572" width="32" height="32" rx="5" fill="white"/>
</clipPath>
</defs>
</svg>
