<svg width="32" height="33" viewBox="0 0 32 33" fill="none" xmlns="http://www.w3.org/2000/svg">
<g clip-path="url(#clip0_344_1262)">
<path d="M4.65261 13.7386C5.06726 13.7386 5.42093 13.3972 5.42093 12.9825V11.1531C5.42093 8.55538 7.09173 6.72602 9.73818 6.72602H9.9699V8.28708C9.9699 9.16518 10.6529 9.37251 11.3358 8.87248L14.4091 6.62845C14.9335 6.25039 14.9214 5.81133 14.4091 5.43327L11.3358 3.17705C10.6529 2.66483 9.9699 2.87216 9.9699 3.77464V5.31132H9.72599C6.21365 5.31132 3.89648 7.66509 3.89648 11.1531V12.9825C3.89648 13.3972 4.23796 13.7386 4.65261 13.7386Z" fill="white"/>
<path d="M25.1897 29.5699C27.2752 29.5699 28.3241 28.5821 28.3241 26.4478V14.3862C28.3241 12.2519 27.2752 11.2519 25.1897 11.2519H13.1039C11.0185 11.2519 9.96965 12.2519 9.96965 14.3862V26.4478C9.96965 28.5821 11.0185 29.5699 13.1039 29.5699H25.1897Z" fill="white"/>
</g>
<defs>
<clipPath id="clip0_344_1262">
<rect y="0.236572" width="32" height="32" rx="5" fill="white"/>
</clipPath>
</defs>
</svg>
