<svg width="32" height="33" viewBox="0 0 32 33" fill="none" xmlns="http://www.w3.org/2000/svg">
<g clip-path="url(#clip0_344_1229)">
<path d="M7.48409 29.1011C7.99431 29.4958 8.64141 29.3601 9.41296 28.805L15.9959 24.0062L22.5915 28.805C23.3629 29.3601 23.9976 29.4958 24.5203 29.1011C25.0306 28.7187 25.1425 28.0895 24.8315 27.1889L22.2305 19.5159L28.8757 14.7788C29.6473 14.236 29.9585 13.6685 29.7594 13.0517C29.5602 12.4595 28.9753 12.1635 28.0172 12.1758L19.8662 12.2251L17.3897 4.51498C17.0911 3.6021 16.6431 3.14566 15.9959 3.14566C15.3613 3.14566 14.9133 3.6021 14.6147 4.51498L12.1383 12.2251L3.98726 12.1758C3.02905 12.1635 2.44417 12.4595 2.24506 13.0517C2.03351 13.6685 2.35706 14.236 3.1286 14.7788L9.77384 19.5159L7.17299 27.1889C6.86188 28.0895 6.97388 28.7187 7.48409 29.1011Z" fill="white"/>
</g>
<defs>
<clipPath id="clip0_344_1229">
<rect y="0.236572" width="32" height="32" rx="5" fill="white"/>
</clipPath>
</defs>
</svg>
