<svg width="32" height="33" viewBox="0 0 32 33" fill="none" xmlns="http://www.w3.org/2000/svg">
<g clip-path="url(#clip0_344_1218)">
<path d="M8.49555 12.2027L24.8637 28.5104C24.7915 28.7496 24.6511 28.9458 24.4456 29.1011C23.9275 29.4959 23.2983 29.3602 22.5335 28.8051L15.9952 24.0063L9.46934 28.8051C8.7045 29.3602 8.06301 29.4959 7.55722 29.1011C7.05144 28.7188 6.94041 28.0896 7.24882 27.189L9.82709 19.5159L3.23952 14.7788C2.47468 14.236 2.15393 13.6685 2.36365 13.0517C2.56103 12.4596 3.14083 12.1635 4.09073 12.1758L8.49555 12.2027ZM17.3769 4.51499L19.8318 12.2252L27.9121 12.1758C28.862 12.1635 29.4418 12.4596 29.6392 13.0517C29.8366 13.6685 29.5281 14.236 28.7632 14.7788L22.4344 19.3299L12.9253 9.85603L14.626 4.51499C14.922 3.6021 15.3661 3.14566 15.9952 3.14566C16.6367 3.14566 17.0808 3.6021 17.3769 4.51499Z" fill="white"/>
<path d="M26.573 28.179C26.9432 28.5491 27.5599 28.5491 27.9177 28.179C28.2755 27.7966 28.2878 27.2045 27.9177 26.8343L7.94526 6.9236C7.57517 6.55351 6.95836 6.54117 6.58826 6.9236C6.23052 7.28135 6.23052 7.89816 6.58826 8.26825L26.573 28.179Z" fill="white"/>
</g>
<defs>
<clipPath id="clip0_344_1218">
<rect y="0.236572" width="32" height="32" rx="5" fill="white"/>
</clipPath>
</defs>
</svg>
