<svg width="32" height="33" viewBox="0 0 32 33" fill="none" xmlns="http://www.w3.org/2000/svg">
<g clip-path="url(#clip0_344_1196)">
<path d="M12.7426 25.0807C12.326 25.0807 12.0589 24.8293 12.0376 24.4142L11.7171 12.3854C11.7064 11.9811 11.9735 11.7189 12.4008 11.7189C12.796 11.7189 13.0738 11.9702 13.0845 12.3744L13.4263 24.4142C13.437 24.8184 13.1592 25.0807 12.7426 25.0807ZM16.0008 25.0807C15.5841 25.0807 15.2957 24.8184 15.2957 24.4142V12.3854C15.2957 11.9811 15.5841 11.7189 16.0008 11.7189C16.4174 11.7189 16.7165 11.9811 16.7165 12.3854V24.4142C16.7165 24.8184 16.4174 25.0807 16.0008 25.0807ZM19.2696 25.0807C18.853 25.0807 18.5753 24.8184 18.5859 24.4142L18.9171 12.3854C18.9278 11.9702 19.2055 11.7189 19.6008 11.7189C20.028 11.7189 20.2951 11.9811 20.2844 12.3854L19.9639 24.4142C19.9426 24.8293 19.6755 25.0807 19.2696 25.0807ZM11.3112 9.06406H13.0097V6.72603C13.0097 6.10329 13.437 5.69904 14.0779 5.69904H17.9022C18.5432 5.69904 18.9705 6.10329 18.9705 6.72603V9.06406H20.6689V6.61678C20.6689 5.0326 19.6649 4.07117 18.0197 4.07117H13.9604C12.3153 4.07117 11.3112 5.0326 11.3112 6.61678V9.06406ZM6.46134 9.93809H25.5508C25.9889 9.93809 26.3414 9.5557 26.3414 9.10776C26.3414 8.65983 25.9889 8.28836 25.5508 8.28836H6.46134C6.03404 8.28836 5.66016 8.65983 5.66016 9.10776C5.66016 9.56663 6.03404 9.93809 6.46134 9.93809ZM11.1082 28.402H20.904C22.4316 28.402 23.4571 27.3859 23.5319 25.8235L24.2797 9.70866H7.72187L8.48032 25.8345C8.5551 27.3968 9.55924 28.402 11.1082 28.402Z" fill="white"/>
</g>
<defs>
<clipPath id="clip0_344_1196">
<rect y="0.236572" width="32" height="32" rx="5" fill="white"/>
</clipPath>
</defs>
</svg>
