<svg width="32" height="33" viewBox="0 0 32 33" fill="none" xmlns="http://www.w3.org/2000/svg">
<g clip-path="url(#clip0_344_1372)">
<path d="M12.1359 26.2321C11.7126 26.2321 11.4412 25.98 11.4195 25.5635L11.0939 13.4952C11.083 13.0897 11.3544 12.8266 11.7885 12.8266C12.1901 12.8266 12.4723 13.0787 12.4832 13.4843L12.8305 25.5635C12.8414 25.969 12.5592 26.2321 12.1359 26.2321ZM15.4464 26.2321C15.023 26.2321 14.73 25.969 14.73 25.5635V13.4952C14.73 13.0897 15.023 12.8266 15.4464 12.8266C15.8697 12.8266 16.1736 13.0897 16.1736 13.4952V25.5635C16.1736 25.969 15.8697 26.2321 15.4464 26.2321ZM18.7677 26.2321C18.3444 26.2321 18.0622 25.969 18.0731 25.5635L18.4095 13.4952C18.4204 13.0787 18.7026 12.8266 19.1042 12.8266C19.5383 12.8266 19.8097 13.0897 19.7989 13.4952L19.4732 25.5635C19.4515 25.98 19.1802 26.2321 18.7677 26.2321ZM10.4752 29.5643H20.4284C21.9805 29.5643 23.0225 28.5449 23.0985 26.9774L23.825 11.7383C23.8431 11.3581 23.5397 11.0399 23.1591 11.0399H7.73412C7.35329 11.0399 7.04985 11.3584 7.06823 11.7388L7.8051 26.9885C7.88107 28.5558 8.90135 29.5643 10.4752 29.5643Z" fill="white"/>
<path d="M10.8092 7.8718L12.5152 8.13324L12.8683 5.81445C12.9623 5.19682 13.4525 4.86168 14.0963 4.96033L17.9375 5.54899C18.5813 5.64765 18.9495 6.11435 18.8554 6.73197L18.5024 9.05076L20.2083 9.3122L20.5779 6.88505C20.8171 5.3139 19.9537 4.20582 18.3014 3.9526L14.2241 3.32776C12.5717 3.07454 11.418 3.8735 11.1788 5.44465L10.8092 7.8718ZM5.806 7.99212L24.9798 10.9305C25.4197 10.9979 25.8315 10.6729 25.8992 10.2287C25.9668 9.78442 25.6689 9.36175 25.2289 9.29433L6.05511 6.35596C5.62593 6.29019 5.1943 6.60105 5.12666 7.0453C5.05737 7.50039 5.37681 7.92635 5.806 7.99212Z" fill="white"/>
</g>
<defs>
<clipPath id="clip0_344_1372">
<rect y="0.236572" width="32" height="32" rx="5" fill="white"/>
</clipPath>
</defs>
</svg>
