<svg width="32" height="33" viewBox="0 0 32 33" fill="none" xmlns="http://www.w3.org/2000/svg">
<g clip-path="url(#clip0_344_1361)">
<path d="M3.65857 6.3411H28.3136C28.8694 6.3411 29.3327 5.88117 29.3327 5.28187C29.3327 4.6965 28.8694 4.23657 28.3136 4.23657H3.65857C3.10274 4.23657 2.66602 4.6965 2.66602 5.28187C2.66602 5.88117 3.10274 6.3411 3.65857 6.3411ZM3.65857 13.6442H28.3136C28.8694 13.6442 29.3327 13.1843 29.3327 12.585C29.3327 11.9996 28.8694 11.5397 28.3136 11.5397H3.65857C3.10274 11.5397 2.66602 11.9996 2.66602 12.585C2.66602 13.1843 3.10274 13.6442 3.65857 13.6442ZM3.65857 20.9474H28.3136C28.8694 20.9474 29.3327 20.4734 29.3327 19.8882C29.3327 19.3028 28.8694 18.8428 28.3136 18.8428H3.65857C3.10274 18.8428 2.66602 19.3028 2.66602 19.8882C2.66602 20.4734 3.10274 20.9474 3.65857 20.9474ZM3.65857 28.2366H17.8191C18.3749 28.2366 18.8248 27.7767 18.8248 27.1913C18.8248 26.6059 18.3749 26.1321 17.8191 26.1321H3.65857C3.10274 26.1321 2.66602 26.6059 2.66602 27.1913C2.66602 27.7767 3.10274 28.2366 3.65857 28.2366Z" fill="white"/>
</g>
<defs>
<clipPath id="clip0_344_1361">
<rect y="0.236572" width="32" height="32" rx="5" fill="white"/>
</clipPath>
</defs>
</svg>
